<svg width="15" height="15" viewBox="0 0 15 15" fill="none" xmlns="http://www.w3.org/2000/svg">
<path d="M5 2V3.5" stroke="url(#paint0_linear_551_14732)" stroke-width="0.898713" stroke-miterlimit="10" stroke-linecap="round" stroke-linejoin="round"/>
<path d="M9 2V3.5" stroke="url(#paint1_linear_551_14732)" stroke-width="0.898713" stroke-miterlimit="10" stroke-linecap="round" stroke-linejoin="round"/>
<path d="M2.75 5.54688H11.25" stroke="url(#paint2_linear_551_14732)" stroke-width="0.898713" stroke-miterlimit="10" stroke-linecap="round" stroke-linejoin="round"/>
<path d="M11.5 5.25V9.5C11.5 11 10.75 12 9 12H5C3.25 12 2.5 11 2.5 9.5V5.25C2.5 3.75 3.25 2.75 5 2.75H9C10.75 2.75 11.5 3.75 11.5 5.25Z" stroke="url(#paint3_linear_551_14732)" stroke-width="0.898713" stroke-miterlimit="10" stroke-linecap="round" stroke-linejoin="round"/>
<path d="M8.84882 7.85156H8.85331" stroke="url(#paint4_linear_551_14732)" stroke-width="1.19828" stroke-linecap="round" stroke-linejoin="round"/>
<path d="M8.84882 9.35156H8.85331" stroke="url(#paint5_linear_551_14732)" stroke-width="1.19828" stroke-linecap="round" stroke-linejoin="round"/>
<path d="M6.99725 7.85156H7.00174" stroke="url(#paint6_linear_551_14732)" stroke-width="1.19828" stroke-linecap="round" stroke-linejoin="round"/>
<path d="M6.99725 9.35156H7.00174" stroke="url(#paint7_linear_551_14732)" stroke-width="1.19828" stroke-linecap="round" stroke-linejoin="round"/>
<path d="M5.14569 7.85156H5.15018" stroke="url(#paint8_linear_551_14732)" stroke-width="1.19828" stroke-linecap="round" stroke-linejoin="round"/>
<path d="M5.14569 9.35156H5.15018" stroke="url(#paint9_linear_551_14732)" stroke-width="1.19828" stroke-linecap="round" stroke-linejoin="round"/>
<defs>
<linearGradient id="paint0_linear_551_14732" x1="5.25049" y1="1.81144" x2="6.25808" y2="3.62339" gradientUnits="userSpaceOnUse">
<stop stop-color="#23ADA4"/>
<stop offset="1" stop-color="#23ADA4"/>
</linearGradient>
<linearGradient id="paint1_linear_551_14732" x1="9.25049" y1="1.81144" x2="10.2581" y2="3.62339" gradientUnits="userSpaceOnUse">
<stop stop-color="#23ADA4"/>
<stop offset="1" stop-color="#23ADA4"/>
</linearGradient>
<linearGradient id="paint2_linear_551_14732" x1="4.87914" y1="5.42117" x2="4.94799" y2="6.99967" gradientUnits="userSpaceOnUse">
<stop stop-color="#23ADA4"/>
<stop offset="1" stop-color="#23ADA4"/>
</linearGradient>
<linearGradient id="paint3_linear_551_14732" x1="4.75439" y1="1.58723" x2="9.62168" y2="14.3616" gradientUnits="userSpaceOnUse">
<stop stop-color="#23ADA4"/>
<stop offset="1" stop-color="#23ADA4"/>
</linearGradient>
<linearGradient id="paint4_linear_551_14732" x1="8.72656" y1="7.53871" x2="8.98468" y2="8.23358" gradientUnits="userSpaceOnUse">
<stop stop-color="#23ADA4"/>
<stop offset="1" stop-color="#23ADA4"/>
</linearGradient>
<linearGradient id="paint5_linear_551_14732" x1="8.72656" y1="9.03871" x2="8.98468" y2="9.73358" gradientUnits="userSpaceOnUse">
<stop stop-color="#23ADA4"/>
<stop offset="1" stop-color="#23ADA4"/>
</linearGradient>
<linearGradient id="paint6_linear_551_14732" x1="6.87499" y1="7.53871" x2="7.13311" y2="8.23358" gradientUnits="userSpaceOnUse">
<stop stop-color="#23ADA4"/>
<stop offset="1" stop-color="#23ADA4"/>
</linearGradient>
<linearGradient id="paint7_linear_551_14732" x1="6.87499" y1="9.03871" x2="7.13311" y2="9.73358" gradientUnits="userSpaceOnUse">
<stop stop-color="#23ADA4"/>
<stop offset="1" stop-color="#23ADA4"/>
</linearGradient>
<linearGradient id="paint8_linear_551_14732" x1="5.02343" y1="7.53871" x2="5.28155" y2="8.23358" gradientUnits="userSpaceOnUse">
<stop stop-color="#23ADA4"/>
<stop offset="1" stop-color="#23ADA4"/>
</linearGradient>
<linearGradient id="paint9_linear_551_14732" x1="5.02343" y1="9.03871" x2="5.28155" y2="9.73358" gradientUnits="userSpaceOnUse">
<stop stop-color="#23ADA4"/>
<stop offset="1" stop-color="#23ADA4"/>
</linearGradient>
</defs>
</svg>
