<svg width="40" height="40" viewBox="0 0 40 40" fill="none" xmlns="http://www.w3.org/2000/svg">
<path d="M21.2502 14.9997C21.2502 14.3093 20.6905 13.7497 20.0002 13.7497C19.3098 13.7497 18.7502 14.3093 18.7502 14.9997L18.7502 18.7497H15.0002C14.3098 18.7497 13.7502 19.3094 13.7502 19.9997C13.7502 20.6901 14.3098 21.2497 15.0002 21.2497H18.7502V24.9997C18.7502 25.69 19.3098 26.2497 20.0002 26.2497C20.6905 26.2497 21.2502 25.69 21.2502 24.9997L21.2502 21.2497H25.0002C25.6905 21.2497 26.2502 20.6901 26.2502 19.9997C26.2502 19.3094 25.6905 18.7497 25.0002 18.7497H21.2502V14.9997Z" fill="#B3B3B3"/>
<path fill-rule="evenodd" clip-rule="evenodd" d="M20.0002 2.08301C10.1051 2.08301 2.0835 10.1046 2.0835 19.9997C2.0835 29.8948 10.1051 37.9163 20.0002 37.9163C29.8953 37.9163 37.9168 29.8948 37.9168 19.9997C37.9168 10.1046 29.8953 2.08301 20.0002 2.08301ZM4.5835 19.9997C4.5835 11.4853 11.4858 4.58301 20.0002 4.58301C28.5146 4.58301 35.4168 11.4853 35.4168 19.9997C35.4168 28.5141 28.5146 35.4163 20.0002 35.4163C11.4858 35.4163 4.5835 28.5141 4.5835 19.9997Z" fill="#B3B3B3"/>
</svg>
