<svg width="50" height="50" viewBox="0 0 50 50" fill="none" xmlns="http://www.w3.org/2000/svg">
<rect x="0.5" y="0.5" width="49" height="49" rx="24.5" stroke="#656565"/>
<path d="M31.3986 25.5875C31.389 23.7908 32.1907 22.4348 33.8134 21.4361C32.9055 20.1193 31.5339 19.3947 29.7228 19.2528C28.0083 19.1157 26.1344 20.2661 25.4486 20.2661C24.7242 20.2661 23.0628 19.3017 21.7588 19.3017C19.0639 19.3458 16.2 21.4802 16.2 25.8224C16.2 27.105 16.4318 28.4301 16.8955 29.7975C17.5137 31.5941 19.7449 36 22.0728 35.9266C23.2898 35.8972 24.1495 35.0503 25.7336 35.0503C27.2694 35.0503 28.0662 35.9266 29.4233 35.9266C31.7705 35.8923 33.7893 31.8878 34.3785 30.0863C31.2296 28.5834 31.3986 25.6805 31.3986 25.5875ZM28.6651 17.5492C29.9836 15.9631 29.8628 14.5189 29.8242 14C28.6603 14.0685 27.3128 14.8028 26.5449 15.7085C25.6998 16.6778 25.2023 17.8772 25.3086 19.2283C26.5691 19.3262 27.7185 18.6702 28.6651 17.5492Z" fill="white"/>
</svg>
