<svg width="20" height="25" viewBox="0 0 20 25" fill="none" xmlns="http://www.w3.org/2000/svg">
<path d="M16.6986 13.0728C16.6986 10.013 19.2812 8.42871 19.4031 8.42871C17.929 6.34852 15.7121 5.98571 14.847 5.98571C12.9954 5.7438 11.156 7.08625 10.1691 7.08625C9.18249 7.08625 7.70837 5.98571 6.11273 5.98571C4.01734 5.98571 2.17791 7.20719 1.06945 9.0455C-1.14783 12.831 0.44819 18.3338 2.54321 21.3815C3.53015 22.845 4.76049 24.5622 6.47803 24.4412C8.07404 24.4412 8.69531 23.4618 10.5347 23.4618C12.3742 23.4618 12.9954 24.4412 14.5911 24.4412C16.309 24.4412 17.2955 22.9781 18.2825 21.3815C19.5128 19.6763 20 17.9591 20 17.9591C19.8903 17.9591 16.6986 16.7372 16.6986 13.0728Z" fill="white"/>
<path d="M13.6167 3.90639C14.4814 2.80581 14.969 1.46339 14.8471 0C13.6167 0 12.1426 0.858666 11.2779 1.83831C10.5348 2.69698 9.80379 4.28131 9.92568 5.62377C11.2779 5.74471 12.7517 5.00694 13.6167 3.90639Z" fill="white"/>
</svg>
