<svg width="20" height="20" viewBox="0 0 20 20" fill="none" xmlns="http://www.w3.org/2000/svg">
<g clip-path="url(#clip0_399_8300)">
<path d="M11.8266 16.2835C10.7346 17.3755 9.19437 17.875 7.61519 17.596C6.97188 17.4824 6.35622 17.23 5.81848 16.8591C4.4569 15.9199 3.6948 14.4138 3.73992 12.7978C3.77464 11.5545 4.3284 10.3818 5.20788 9.50235L11.4313 3.27896C12.5688 2.13622 14.4477 2.17003 15.5469 3.3804C16.5751 4.51261 16.474 6.2741 15.3926 7.35555L9.81458 12.9335C9.61693 13.1312 9.34832 13.2275 9.06958 13.2072C8.78577 13.1819 8.53744 13.04 8.37019 12.8068C8.11172 12.447 8.18775 11.8845 8.54758 11.5246L11.4959 8.5763C11.6785 8.39367 11.6785 8.09757 11.4959 7.91494L10.8193 7.23834C10.6367 7.05571 10.3406 7.05571 10.1579 7.23834L7.20962 10.1867C6.19601 11.2003 6.03384 12.8068 6.83459 13.9167C7.32618 14.6009 8.08639 15.0317 8.91754 15.0976C9.75376 15.1685 10.5646 14.8644 11.1576 14.2766L16.7103 8.72384C18.5222 6.91192 18.663 3.9607 16.9223 2.08023C15.0915 0.102344 11.9868 0.0576252 10.0984 1.94607L3.78871 8.24562C2.3267 9.70762 1.63204 11.7365 1.90656 13.8317C2.06212 15.0188 2.54792 16.148 3.30082 17.079C4.59608 18.6805 6.47958 19.5712 8.50626 19.5624C10.2932 19.5547 11.9944 18.7916 13.2579 17.5281L17.8005 12.9855C17.9831 12.8028 17.9831 12.5067 17.8005 12.3241L17.1239 11.6475C16.9413 11.4649 16.6452 11.4649 16.4626 11.6475L11.8266 16.2835Z" fill="#22D1D6"/>
</g>
<defs>
<clipPath id="clip0_399_8300">
<rect width="20" height="20" fill="white"/>
</clipPath>
</defs>
</svg>
