<svg width="135" height="136" viewBox="0 0 135 136" fill="none" xmlns="http://www.w3.org/2000/svg">
<path d="M0 5.44C0 2.45766 2.41766 0 5.4 0V5.44H0ZM5.4 0H10.8V5.44H5.4V0ZM10.8 0H16.2V5.44H10.8V0ZM16.2 0H21.6V5.44H16.2V0ZM21.6 0H27V5.44H21.6V0ZM27 0H32.4V5.44H27V0ZM32.4 0C35.3823 0 37.8 2.45766 37.8 5.44H32.4V0ZM43.2 5.44C43.2 2.45766 45.6177 0 48.6 0V5.44H43.2ZM48.6 0C51.5823 0 54 2.45766 54 5.44H48.6V0ZM59.4 2.72C59.4 1.21779 60.6178 0 62.12 0H64.8V5.44H62.12C60.6178 5.44 59.4 4.22221 59.4 2.72ZM64.8 0H70.2V5.44H64.8V0ZM70.2 0H75.6V5.44H70.2V0ZM75.6 0H81V5.44H75.6V0ZM81 0C83.9823 0 86.4 2.45766 86.4 5.44H81V0ZM97.2 5.44C97.2 2.45766 99.6177 0 102.6 0V5.44H97.2ZM102.6 0H108V5.44H102.6V0ZM108 0H113.4V5.44H108V0ZM113.4 0H118.8V5.44H113.4V0ZM118.8 0H124.2V5.44H118.8V0ZM124.2 0H129.6V5.44H124.2V0ZM129.6 0C132.582 0 135 2.45766 135 5.44H129.6V0ZM0 5.44H5.4V10.88H0V5.44ZM32.4 5.44H37.8V10.88H32.4V5.44ZM43.2 5.44H48.6V10.88H43.2V5.44ZM48.6 5.44H54V10.88H48.6V5.44ZM70.2 5.44H75.6V10.88H70.2V5.44ZM75.6 5.44H81V10.88H75.6V5.44ZM81 5.44H86.4C86.4 8.42234 83.9823 10.88 81 10.88V5.44ZM97.2 5.44H102.6V10.88H97.2V5.44ZM129.6 5.44H135V10.88H129.6V5.44ZM0 10.88H5.4V16.32H0V10.88ZM10.8 16.32C10.8 13.3377 13.2177 10.88 16.2 10.88V16.32H10.8ZM16.2 10.88H21.6V16.32H16.2V10.88ZM21.6 10.88C24.5823 10.88 27 13.3377 27 16.32H21.6V10.88ZM32.4 10.88H37.8V16.32H32.4V10.88ZM43.2 10.88H48.6V16.32C45.6177 16.32 43.2 13.8623 43.2 10.88ZM48.6 10.88H54V16.32H48.6V10.88ZM54 10.88C56.9823 10.88 59.4 13.3377 59.4 16.32H54V10.88ZM64.8 16.32C64.8 13.3377 67.2177 10.88 70.2 10.88V16.32H64.8ZM70.2 10.88H75.6V16.32H70.2V10.88ZM75.6 10.88H81V16.32H75.6V10.88ZM97.2 10.88H102.6V16.32H97.2V10.88ZM108 16.32C108 13.3377 110.418 10.88 113.4 10.88V16.32H108ZM113.4 10.88H118.8V16.32H113.4V10.88ZM118.8 10.88C121.782 10.88 124.2 13.3377 124.2 16.32H118.8V10.88ZM129.6 10.88H135V16.32H129.6V10.88ZM0 16.32H5.4V21.76H0V16.32ZM10.8 16.32H16.2V21.76H10.8V16.32ZM16.2 16.32H21.6V21.76H16.2V16.32ZM21.6 16.32H27V21.76H21.6V16.32ZM32.4 16.32H37.8V21.76H32.4V16.32ZM59.4 16.32H64.8V21.76H59.4V16.32ZM64.8 16.32H70.2V21.76H64.8V16.32ZM75.6 16.32H81V21.76H75.6V16.32ZM81 16.32H86.4V21.76H81V16.32ZM86.4 16.32H89.08C90.5822 16.32 91.8 17.5378 91.8 19.04C91.8 20.5422 90.5822 21.76 89.08 21.76H86.4V16.32ZM97.2 16.32H102.6V21.76H97.2V16.32ZM108 16.32H113.4V21.76H108V16.32ZM113.4 16.32H118.8V21.76H113.4V16.32ZM118.8 16.32H124.2V21.76H118.8V16.32ZM129.6 16.32H135V21.76H129.6V16.32ZM0 21.76H5.4V27.2H0V21.76ZM10.8 21.76H16.2V27.2C13.2177 27.2 10.8 24.7423 10.8 21.76ZM16.2 21.76H21.6V27.2H16.2V21.76ZM21.6 21.76H27C27 24.7423 24.5823 27.2 21.6 27.2V21.76ZM32.4 21.76H37.8V27.2H32.4V21.76ZM43.2 24.48C43.2 22.9778 44.4178 21.76 45.92 21.76H48.6V27.2H45.92C44.4178 27.2 43.2 25.9822 43.2 24.48ZM48.6 21.76H54V27.2H48.6V21.76ZM54 21.76H59.4V27.2H54V21.76ZM64.8 21.76H70.2V27.2H64.8V21.76ZM70.2 21.76H75.6V27.2H70.2V21.76ZM81 21.76H86.4C86.4 24.7423 83.9823 27.2 81 27.2V21.76ZM97.2 21.76H102.6V27.2H97.2V21.76ZM108 21.76H113.4V27.2C110.418 27.2 108 24.7423 108 21.76ZM113.4 21.76H118.8V27.2H113.4V21.76ZM118.8 21.76H124.2C124.2 24.7423 121.782 27.2 118.8 27.2V21.76ZM129.6 21.76H135V27.2H129.6V21.76ZM0 27.2H5.4V32.64H0V27.2ZM32.4 27.2H37.8V32.64H32.4V27.2ZM59.4 27.2H64.8V32.64H59.4V27.2ZM64.8 27.2H70.2V32.64H64.8V27.2ZM70.2 27.2H75.6V32.64H70.2V27.2ZM75.6 27.2H81V32.64H75.6V27.2ZM97.2 27.2H102.6V32.64H97.2V27.2ZM129.6 27.2H135V32.64H129.6V27.2ZM0 32.64H5.4V38.08C2.41766 38.08 0 35.6223 0 32.64ZM5.4 32.64H10.8V38.08H5.4V32.64ZM10.8 32.64H16.2V38.08H10.8V32.64ZM16.2 32.64H21.6V38.08H16.2V32.64ZM21.6 32.64H27V38.08H21.6V32.64ZM27 32.64H32.4V38.08H27V32.64ZM32.4 32.64H37.8C37.8 35.6223 35.3823 38.08 32.4 38.08V32.64ZM43.2 35.35C43.2 33.8588 44.4088 32.64 45.9 32.64C47.3912 32.64 48.6 33.8488 48.6 35.34V38.08H45.92C44.4178 38.08 43.2 36.8522 43.2 35.35ZM54 38.08C54 35.0977 56.4177 32.64 59.4 32.64V38.08H54ZM64.8 32.64H70.2C70.2 35.6223 67.7823 38.08 64.8 38.08V32.64ZM75.6 32.64H81V38.08H75.6V32.64ZM86.4 35.34C86.4 33.8488 87.6088 32.64 89.1 32.64C90.5912 32.64 91.8 33.8488 91.8 35.34V38.08H86.4V35.34ZM97.2 32.64H102.6V38.08C99.6177 38.08 97.2 35.6223 97.2 32.64ZM102.6 32.64H108V38.08H102.6V32.64ZM108 32.64H113.4V38.08H108V32.64ZM113.4 32.64H118.8V38.08H113.4V32.64ZM118.8 32.64H124.2V38.08H118.8V32.64ZM124.2 32.64H129.6V38.08H124.2V32.64ZM129.6 32.64H135C135 35.6223 132.582 38.08 129.6 38.08V32.64ZM48.6 38.08H54C54 41.0623 51.5823 43.52 48.6 43.52V38.08ZM59.4 38.08H64.8V43.52H59.4V38.08ZM75.6 38.08H81V43.52H75.6V38.08ZM81 38.08H86.4V43.52H81V38.08ZM86.4 38.08H91.8V43.52H86.4V38.08ZM0 46.22C0 44.7288 1.20883 43.52 2.7 43.52C4.19117 43.52 5.4 44.7288 5.4 46.22V48.96H0V46.22ZM16.2 48.96C16.2 45.9777 18.6177 43.52 21.6 43.52V48.96H16.2ZM21.6 43.52H27V48.96H21.6V43.52ZM27 43.52H32.4V48.96H27V43.52ZM32.4 43.52H37.8V48.96H32.4V43.52ZM37.8 43.52H43.2V48.96H37.8V43.52ZM43.2 43.52H48.6V48.96H43.2V43.52ZM59.4 43.52H64.8V48.96H59.4V43.52ZM64.8 43.52H70.2V48.96H64.8V43.52ZM70.2 43.52H75.6V48.96H70.2V43.52ZM75.6 43.52H81V48.96H75.6V43.52ZM81 43.52H86.4V48.96H81V43.52ZM91.8 43.52C94.7823 43.52 97.2 45.9777 97.2 48.96H91.8V43.52ZM108 46.22C108 44.7288 109.209 43.52 110.7 43.52C112.191 43.52 113.4 44.7288 113.4 46.22V48.96H108V46.22ZM118.8 48.96C118.8 45.9777 121.218 43.52 124.2 43.52V48.96H118.8ZM124.2 43.52H129.6V48.96H124.2V43.52ZM129.6 43.52H132.28C133.782 43.52 135 44.7378 135 46.24C135 47.7422 133.782 48.96 132.28 48.96H129.6V43.52ZM0 48.96H5.4V54.4H0V48.96ZM5.4 48.96H10.8V54.4H5.4V48.96ZM10.8 48.96H16.2V54.4H10.8V48.96ZM16.2 48.96H21.6V54.4H16.2V48.96ZM21.6 48.96H27C27 51.9423 24.5823 54.4 21.6 54.4V48.96ZM37.8 48.96H43.2V54.4H37.8V48.96ZM48.6 48.96H54V54.4H48.6V48.96ZM54 48.96H59.4V54.4H54V48.96ZM59.4 48.96H64.8C64.8 51.9423 62.3823 54.4 59.4 54.4V48.96ZM75.6 48.96H81V54.4H75.6V48.96ZM81 48.96H86.4V54.4H81V48.96ZM86.4 48.96H91.8V54.4H86.4V48.96ZM91.8 48.96H97.2V54.4H91.8V48.96ZM108 48.96H113.4V54.4H108V48.96ZM113.4 48.96H118.8V54.4H113.4V48.96ZM118.8 48.96H124.2V54.4H118.8V48.96ZM124.2 48.96H129.6V54.4H124.2V48.96ZM0 54.4H5.4V59.84C2.41766 59.84 0 57.3823 0 54.4ZM16.2 54.4H21.6V59.84H16.2V54.4ZM32.4 57.12C32.4 55.6178 33.6178 54.4 35.12 54.4H37.8V59.84H35.12C33.6178 59.84 32.4 58.6222 32.4 57.12ZM37.8 54.4H43.2V59.84H37.8V54.4ZM43.2 54.4H48.6V59.84H43.2V54.4ZM48.6 54.4H54V59.84H48.6V54.4ZM54 54.4H59.4C59.4 57.3823 56.9823 59.84 54 59.84V54.4ZM75.6 54.4H81V59.84H75.6V54.4ZM81 54.4H86.4V59.84H81V54.4ZM97.2 54.4H99.88C101.382 54.4 102.6 55.6278 102.6 57.13C102.6 58.6212 101.391 59.84 99.9 59.84C98.4088 59.84 97.2 58.6312 97.2 57.14V54.4ZM108 54.4H113.4V59.84H108V54.4ZM113.4 54.4H118.8V59.84H113.4V54.4ZM124.2 54.4H129.6V59.84H124.2V54.4ZM129.6 54.4H132.28C133.782 54.4 135 55.6178 135 57.12C135 58.6222 133.782 59.84 132.28 59.84H129.6V54.4ZM5.4 59.84H10.8V65.28H5.4V59.84ZM10.8 59.84H16.2V65.28H10.8V59.84ZM16.2 59.84H21.6V65.28H16.2V59.84ZM21.6 59.84C24.5823 59.84 27 62.2977 27 65.28H21.6V59.84ZM37.8 59.84H43.2V65.28H37.8V59.84ZM43.2 59.84H48.6C48.6 62.8223 46.1823 65.28 43.2 65.28V59.84ZM75.6 59.84H81V65.28H75.6V59.84ZM81 59.84H86.4V65.28H81V59.84ZM108 59.84H113.4V62.58C113.4 64.0712 112.191 65.28 110.7 65.28C109.209 65.28 108 64.0712 108 62.58V59.84ZM118.8 59.84H124.2V65.28C121.218 65.28 118.8 62.8223 118.8 59.84ZM5.4 65.28H10.8C10.8 68.2623 8.38234 70.72 5.4 70.72V65.28ZM16.2 65.28H21.6V70.72C18.6177 70.72 16.2 68.2623 16.2 65.28ZM21.6 65.28H27V70.72H21.6V65.28ZM27 65.28H32.4V70.72H27V65.28ZM32.4 65.28H37.8C37.8 68.2623 35.3823 70.72 32.4 70.72V65.28ZM70.2 70.72C70.2 67.7377 72.6177 65.28 75.6 65.28V70.72H70.2ZM75.6 65.28H81V70.72H75.6V65.28ZM81 65.28H86.4V70.72H81V65.28ZM91.8 70.72C91.8 67.7377 94.2177 65.28 97.2 65.28V70.72H91.8ZM97.2 65.28C100.182 65.28 102.6 67.7377 102.6 70.72H97.2V65.28ZM124.2 65.28H129.6V70.72H124.2V65.28ZM129.6 65.28H132.28C133.782 65.28 135 66.4978 135 68C135 69.5022 133.782 70.72 132.28 70.72H129.6V65.28ZM0 76.16C0 73.1777 2.41766 70.72 5.4 70.72V76.16H0ZM21.6 70.72H27V76.16H21.6V70.72ZM27 70.72H32.4V76.16H27V70.72ZM43.2 76.16C43.2 73.1777 45.6177 70.72 48.6 70.72V76.16H43.2ZM48.6 70.72H54V76.16H48.6V70.72ZM54 70.72H56.68C58.1822 70.72 59.4 71.9378 59.4 73.44C59.4 74.9422 58.1822 76.16 56.68 76.16H54V70.72ZM64.8 73.45C64.8 71.9478 66.0178 70.72 67.52 70.72H70.2V73.46C70.2 74.9512 68.9912 76.16 67.5 76.16C66.0088 76.16 64.8 74.9412 64.8 73.45ZM81 70.72H86.4V76.16H81V70.72ZM91.8 70.72H97.2V76.16H91.8V70.72ZM102.6 70.72H108V76.16H102.6V70.72ZM108 70.72H113.4V76.16H108V70.72ZM113.4 70.72C116.382 70.72 118.8 73.1777 118.8 76.16H113.4V70.72ZM124.2 70.72H129.6V76.16H124.2V70.72ZM0 76.16H5.4V81.6H0V76.16ZM5.4 76.16H10.8V81.6H5.4V76.16ZM10.8 76.16H16.2V81.6H10.8V76.16ZM16.2 76.16H21.6V81.6H16.2V76.16ZM32.4 76.16C35.3823 76.16 37.8 78.6177 37.8 81.6C34.8177 81.6 32.4 79.1423 32.4 76.16ZM43.2 76.16H48.6V81.6H43.2V76.16ZM75.6 81.6C75.6 78.6177 78.0177 76.16 81 76.16V81.6H75.6ZM81 76.16H86.4C86.4 79.1423 83.9823 81.6 81 81.6V76.16ZM91.8 76.16H97.2V81.6C94.2177 81.6 91.8 79.1423 91.8 76.16ZM97.2 76.16H102.6C102.6 79.1423 100.182 81.6 97.2 81.6V76.16ZM118.8 76.16H124.2V81.6H118.8V76.16ZM129.6 76.16H132.28C133.782 76.16 135 77.3878 135 78.89C135 80.3812 133.791 81.6 132.3 81.6C130.809 81.6 129.6 80.3912 129.6 78.9V76.16ZM0 81.6H5.4V87.04H0V81.6ZM10.8 81.6H16.2V87.04H10.8V81.6ZM16.2 81.6H21.6V87.04H16.2V81.6ZM21.6 81.6H24.28C25.7822 81.6 27 82.8178 27 84.32C27 85.8222 25.7822 87.04 24.28 87.04H21.6V81.6ZM37.8 81.6H43.2V87.04H37.8V81.6ZM43.2 81.6H48.6V87.04H43.2V81.6ZM64.8 87.04C64.8 84.0577 67.2177 81.6 70.2 81.6V87.04H64.8ZM70.2 81.6H75.6V87.04H70.2V81.6ZM75.6 81.6H81V87.04H75.6V81.6ZM118.8 81.6H124.2V87.04H118.8V81.6ZM0 87.04H5.4V89.78C5.4 91.2712 4.19117 92.48 2.7 92.48C1.20883 92.48 0 91.2712 0 89.78V87.04ZM10.8 87.04H16.2V92.48C13.2177 92.48 10.8 90.0223 10.8 87.04ZM16.2 87.04H21.6C21.6 90.0223 19.1823 92.48 16.2 92.48V87.04ZM32.4 89.77C32.4 88.2678 33.6178 87.04 35.12 87.04H37.8V89.78C37.8 91.2712 36.5912 92.48 35.1 92.48C33.6088 92.48 32.4 91.2612 32.4 89.77ZM48.6 87.04H51.28C52.7822 87.04 54 88.2578 54 89.76C54 91.2622 52.7822 92.48 51.28 92.48H48.6V87.04ZM59.4 92.48C59.4 89.4977 61.8177 87.04 64.8 87.04V92.48H59.4ZM64.8 87.04H70.2C70.2 90.0223 67.7823 92.48 64.8 92.48V87.04ZM81 87.04H86.4V92.48H81V87.04ZM86.4 87.04H91.8V92.48H86.4V87.04ZM91.8 87.04H97.2V92.48H91.8V87.04ZM97.2 87.04H102.6V92.48H97.2V87.04ZM102.6 87.04H108V92.48H102.6V87.04ZM108 87.04C110.982 87.04 113.4 89.4977 113.4 92.48H108V87.04ZM118.8 87.04H124.2V92.48H118.8V87.04ZM124.2 87.04H129.6V92.48H124.2V87.04ZM129.6 87.04H132.28C133.782 87.04 135 88.2578 135 89.76C135 91.2622 133.782 92.48 132.28 92.48H129.6V87.04ZM43.2 97.92C43.2 94.9377 45.6177 92.48 48.6 92.48V97.92H43.2ZM59.4 92.48H64.8V97.92C61.8177 97.92 59.4 95.4623 59.4 92.48ZM81 92.48H86.4V97.92H81V92.48ZM86.4 92.48H91.8V97.92H86.4V92.48ZM108 92.48H113.4V97.92H108V92.48ZM113.4 92.48H118.8V97.92H113.4V92.48ZM118.8 92.48H124.2V97.92H118.8V92.48ZM0 103.36C0 100.378 2.41766 97.92 5.4 97.92V103.36H0ZM5.4 97.92H10.8V103.36H5.4V97.92ZM10.8 97.92H16.2V103.36H10.8V97.92ZM16.2 97.92H21.6V103.36H16.2V97.92ZM21.6 97.92H27V103.36H21.6V97.92ZM27 97.92H32.4V103.36H27V97.92ZM32.4 97.92C35.3823 97.92 37.8 100.378 37.8 103.36H32.4V97.92ZM43.2 97.92H48.6V103.36H43.2V97.92ZM64.8 97.92H70.2V103.36H64.8V97.92ZM70.2 97.92H75.6V103.36H70.2V97.92ZM75.6 97.92H81C81 100.902 78.5823 103.36 75.6 103.36V97.92ZM86.4 97.92H91.8V103.36H86.4V97.92ZM97.2 100.64C97.2 99.1488 98.4088 97.92 99.9 97.92C101.391 97.92 102.6 99.1488 102.6 100.64C102.6 102.131 101.391 103.36 99.9 103.36C98.4088 103.36 97.2 102.131 97.2 100.64ZM108 97.92H113.4V103.36H108V97.92ZM113.4 97.92H118.8C118.8 100.902 116.382 103.36 113.4 103.36V97.92ZM124.2 97.92H129.6V103.36C126.618 103.36 124.2 100.902 124.2 97.92ZM129.6 97.92C132.582 97.92 135 100.378 135 103.36H129.6V97.92ZM0 103.36H5.4V108.8H0V103.36ZM32.4 103.36H37.8V108.8H32.4V103.36ZM43.2 103.36H48.6V108.8H43.2V103.36ZM54 108.8C54 105.818 56.4177 103.36 59.4 103.36V108.8H54ZM59.4 103.36H64.8V108.8H59.4V103.36ZM70.2 103.36H75.6V108.8H70.2V103.36ZM86.4 103.36H91.8V108.8H86.4V103.36ZM108 103.36H113.4V108.8H108V103.36ZM129.6 103.36H135V108.8H129.6V103.36ZM0 108.8H5.4V114.24H0V108.8ZM10.8 114.24C10.8 111.258 13.2177 108.8 16.2 108.8V114.24H10.8ZM16.2 108.8H21.6V114.24H16.2V108.8ZM21.6 108.8C24.5823 108.8 27 111.258 27 114.24H21.6V108.8ZM32.4 108.8H37.8V114.24H32.4V108.8ZM43.2 108.8H48.6V114.24H43.2V108.8ZM48.6 108.8H54V114.24H48.6V108.8ZM54 108.8H59.4V114.24H54V108.8ZM59.4 108.8H64.8V114.24H59.4V108.8ZM70.2 108.8H75.6V114.24H70.2V108.8ZM81 111.52C81 110.018 82.2178 108.8 83.72 108.8H86.4V114.24H83.72C82.2178 114.24 81 113.022 81 111.52ZM86.4 108.8H91.8V114.24H86.4V108.8ZM91.8 108.8H97.2V114.24H91.8V108.8ZM97.2 108.8H102.6V114.24H97.2V108.8ZM102.6 108.8H108V114.24H102.6V108.8ZM108 108.8H113.4V114.24H108V108.8ZM129.6 108.8H135V114.24H129.6V108.8ZM0 114.24H5.4V119.68H0V114.24ZM10.8 114.24H16.2V119.68H10.8V114.24ZM16.2 114.24H21.6V119.68H16.2V114.24ZM21.6 114.24H27V119.68H21.6V114.24ZM32.4 114.24H37.8V119.68H32.4V114.24ZM43.2 114.24H48.6V119.68C45.6177 119.68 43.2 117.222 43.2 114.24ZM64.8 114.24H70.2V119.68H64.8V114.24ZM70.2 114.24H75.6V119.68H70.2V114.24ZM86.4 114.24H91.8V116.98C91.8 118.471 90.5912 119.68 89.1 119.68C87.6088 119.68 86.4 118.471 86.4 116.98V114.24ZM97.2 114.24H102.6V119.68C99.6177 119.68 97.2 117.222 97.2 114.24ZM102.6 114.24H108V119.68H102.6V114.24ZM113.4 114.24H118.8V119.68H113.4V114.24ZM118.8 114.24H124.2V119.68H118.8V114.24ZM124.2 114.24H129.6V119.68H124.2V114.24ZM129.6 114.24H135V119.68H129.6V114.24ZM0 119.68H5.4V125.12H0V119.68ZM10.8 119.68H16.2V125.12C13.2177 125.12 10.8 122.662 10.8 119.68ZM16.2 119.68H21.6V125.12H16.2V119.68ZM21.6 119.68H27C27 122.662 24.5823 125.12 21.6 125.12V119.68ZM32.4 119.68H37.8V125.12H32.4V119.68ZM48.6 119.68H54V125.12C51.0177 125.12 48.6 122.662 48.6 119.68ZM54 119.68H59.4V125.12H54V119.68ZM59.4 119.68H64.8V125.12H59.4V119.68ZM70.2 119.68H75.6V125.12H70.2V119.68ZM108 119.68H113.4V122.42C113.4 123.911 112.191 125.12 110.7 125.12C109.209 125.12 108 123.911 108 122.42V119.68ZM118.8 119.68H124.2V125.12H118.8V119.68ZM124.2 119.68H129.6V125.12H124.2V119.68ZM129.6 119.68H135V125.12H129.6V119.68ZM0 125.12H5.4V130.56H0V125.12ZM32.4 125.12H37.8V130.56H32.4V125.12ZM59.4 125.12H64.8V130.56H59.4V125.12ZM64.8 125.12H70.2V130.56H64.8V125.12ZM70.2 125.12H75.6V130.56H70.2V125.12ZM81 127.82C81 126.329 82.2088 125.12 83.7 125.12C85.1912 125.12 86.4 126.329 86.4 127.82V130.56H81V127.82ZM97.2 127.82C97.2 126.329 98.4088 125.12 99.9 125.12C101.391 125.12 102.6 126.329 102.6 127.82V130.56H97.2V127.82ZM118.8 125.12H124.2V130.56C121.218 130.56 118.8 128.102 118.8 125.12ZM124.2 125.12H129.6V130.56H124.2V125.12ZM129.6 125.12H135V130.56H129.6V125.12ZM0 130.56H5.4V136C2.41766 136 0 133.542 0 130.56ZM5.4 130.56H10.8V136H5.4V130.56ZM10.8 130.56H16.2V136H10.8V130.56ZM16.2 130.56H21.6V136H16.2V130.56ZM21.6 130.56H27V136H21.6V130.56ZM27 130.56H32.4V136H27V130.56ZM32.4 130.56H37.8C37.8 133.542 35.3823 136 32.4 136V130.56ZM43.2 133.28C43.2 131.778 44.4178 130.56 45.92 130.56H48.6V136H45.92C44.4178 136 43.2 134.782 43.2 133.28ZM48.6 130.56H54V136H48.6V130.56ZM54 130.56H59.4V136H54V130.56ZM59.4 130.56H64.8V136H59.4V130.56ZM64.8 130.56H70.2V136H64.8V130.56ZM70.2 130.56H75.6C75.6 133.542 73.1823 136 70.2 136V130.56ZM81 130.56H86.4V136C83.4177 136 81 133.542 81 130.56ZM86.4 130.56H89.08C90.5822 130.56 91.8 131.778 91.8 133.28C91.8 134.782 90.5822 136 89.08 136H86.4V130.56ZM97.2 130.56H102.6V136C99.6177 136 97.2 133.542 97.2 130.56ZM102.6 130.56H105.28C106.782 130.56 108 131.778 108 133.28C108 134.782 106.782 136 105.28 136H102.6V130.56ZM129.6 130.56H135V133.3C135 134.791 133.791 136 132.3 136C130.809 136 129.6 134.791 129.6 133.3V130.56Z" fill="url(#paint0_linear_211_13238)"/>
<defs>
<linearGradient id="paint0_linear_211_13238" x1="33.8158" y1="-17.0958" x2="104.311" y2="171.661" gradientUnits="userSpaceOnUse">
<stop stop-color="#23ADA4"/>
<stop offset="1" stop-color="#23ADA4"/>
</linearGradient>
</defs>
</svg>
