<svg width="35" height="24" viewBox="0 0 35 24" fill="none" xmlns="http://www.w3.org/2000/svg">
<rect x="0.5" y="0.5" width="34" height="23" rx="1.5" fill="white" stroke="#E2E8F0"/>
<path d="M27.8564 11.084L27.4385 12.8506C27.4005 12.9979 27.3767 13.1357 27.3672 13.2637C27.3577 13.3917 27.3739 13.5021 27.415 13.5947C27.4562 13.6874 27.5268 13.7594 27.6279 13.8105C27.7291 13.8618 27.8686 13.8877 28.0459 13.8877C28.1978 13.8877 28.345 13.8735 28.4873 13.8447C28.5631 13.8294 28.6392 13.8089 28.7158 13.7871L28.8262 13.3193H28.8252L29.625 9.91602H31L30.8193 10.6865C30.8203 10.687 30.8212 10.688 30.8223 10.6885L29.8711 14.7344C29.7787 15.1392 29.6566 15.4893 29.5059 15.7852C29.3549 16.0808 29.1671 16.3272 28.9424 16.5234C28.7175 16.7197 28.4479 16.8663 28.1338 16.9629C27.8197 17.0594 27.453 17.1074 27.0342 17.1074C26.81 17.1074 26.6069 17.0953 26.4238 17.0713L26.6943 15.9189C26.8329 15.9383 26.986 15.9492 27.1543 15.9492C27.5483 15.9492 27.8456 15.8601 28.0459 15.6826C28.246 15.5052 28.371 15.2774 28.4326 14.9971V14.9951C28.424 14.9973 28.4151 14.999 28.4062 15.001C28.1849 15.0521 27.9226 15.0781 27.6191 15.0781C27.1825 15.0781 26.8429 15.0119 26.6025 14.8809C26.3623 14.7498 26.1919 14.5707 26.0908 14.3438C25.9896 14.1168 25.9443 13.8558 25.957 13.5615C25.9696 13.2672 26.0149 12.9563 26.0908 12.6299L26.7266 9.91309H28.1309L27.8564 11.084ZM18.5713 9.91602C18.9189 9.91602 19.2193 9.96947 19.4707 10.0762C19.722 10.183 19.9284 10.3286 20.0898 10.5137C20.2512 10.699 20.3705 10.9161 20.4482 11.1641C20.5257 11.4122 20.5645 11.6775 20.5645 11.96C20.5644 12.4184 20.4898 12.838 20.3408 13.2178C20.1919 13.5975 19.9853 13.9252 19.7217 14.2012C19.4576 14.4776 19.1408 14.6929 18.7715 14.8467C18.4021 15.0004 18 15.0771 17.5654 15.0771C17.3545 15.0771 17.1434 15.0591 16.9326 15.0215L16.5127 16.7256H15.1348L16.7344 9.91602C16.9671 9.91587 18.1984 9.91602 18.5713 9.91602ZM10.9424 15.0791H9.56641L10.7812 9.91309H12.1562L10.9424 15.0791ZM14.374 9.91406H15.9502L15.665 11.085H14.0986L13.6816 12.8516C13.6437 12.9989 13.6199 13.1367 13.6104 13.2646C13.6009 13.3926 13.616 13.5031 13.6572 13.5957C13.6983 13.6885 13.7698 13.7604 13.8711 13.8115C13.9722 13.8628 14.1118 13.8887 14.2891 13.8887C14.4409 13.8887 14.5882 13.8745 14.7305 13.8457C14.8235 13.8269 14.9205 13.8046 15.0166 13.7715L14.7295 14.9824C14.707 14.9879 14.6723 14.9967 14.6494 15.002C14.4278 15.0531 14.165 15.0791 13.8613 15.0791C13.4248 15.0791 13.086 15.0129 12.8457 14.8818C12.6053 14.7507 12.4341 14.5719 12.333 14.3447C12.2317 14.1177 12.1874 13.8568 12.2002 13.5625C12.2128 13.2682 12.2571 12.9573 12.333 12.6309L13.2637 8.65625L14.7354 8.42578L14.374 9.91406ZM6.9707 10.0918C7.09398 10.0357 7.21051 9.9952 7.33398 9.96387C7.45737 9.93267 7.59037 9.917 7.73242 9.91699C8.02878 9.91699 8.28476 9.9701 8.50098 10.0762C8.71698 10.1824 8.896 10.3258 9.03809 10.5068C9.18002 10.688 9.28551 10.9 9.35352 11.1436C9.42138 11.3871 9.45508 11.6497 9.45508 11.9307C9.45506 12.3615 9.37622 12.7693 9.21875 13.1533C9.06128 13.5372 8.84675 13.8712 8.5752 14.1553C8.30341 14.4394 7.98278 14.6647 7.6123 14.8301C7.24189 14.9955 6.84031 15.0781 6.4082 15.0781C6.35265 15.0781 6.25516 15.0763 6.11621 15.0732C5.9774 15.07 5.81847 15.0561 5.63965 15.0312C5.46054 15.0062 5.26992 14.9689 5.06934 14.9189C4.86866 14.8691 4.67894 14.8004 4.5 14.7129L6.10254 7.90234L7.53809 7.67773L6.9707 10.0918ZM25.2305 12.8232C25.1441 13.1788 25.1192 13.536 25.1562 13.8945C25.1934 14.2533 25.3296 14.803 25.4619 15.0781H24.1309C23.9683 14.8 23.9751 14.6695 23.9443 14.582C23.7717 14.7255 23.5806 14.844 23.3711 14.9375C23.1614 15.031 22.927 15.0781 22.668 15.0781C22.3596 15.0781 22.0958 15.0231 21.877 14.9141C21.6581 14.805 21.4795 14.6585 21.3408 14.4746C21.2021 14.2908 21.1015 14.0754 21.04 13.8291C20.9783 13.5827 20.9473 13.3188 20.9473 13.0381C20.9473 12.6078 21.0227 12.2026 21.1738 11.8223C21.3249 11.4418 21.5344 11.1091 21.8027 10.8252C22.071 10.5414 22.7187 9.91603 23.7812 9.91602H25.915L25.2305 12.8232ZM17.1836 13.8906C17.2892 13.9158 17.4199 13.9287 17.5752 13.9287C17.8173 13.9287 18.0375 13.883 18.2363 13.792C18.435 13.701 18.6044 13.5735 18.7441 13.4102C18.8838 13.247 18.9926 13.0505 19.0703 12.8213C19.1477 12.5922 19.1865 12.3396 19.1865 12.0635C19.1865 11.7937 19.1275 11.5643 19.0098 11.376C18.8917 11.1876 18.6844 11.0871 18.3926 11.0859C18.1886 11.0852 17.8496 11.085 17.8496 11.085L17.1836 13.8906ZM7.36719 11.085C7.28064 11.085 7.19071 11.0938 7.05176 11.125C6.91283 11.1563 6.79273 11.2215 6.68164 11.3213L6.07812 13.8906C6.25605 13.9221 6.31805 13.9258 6.36133 13.9258H6.52832C6.74434 13.9258 6.94825 13.8728 7.13965 13.7666C7.331 13.6605 7.49679 13.5178 7.63574 13.3398C7.77439 13.162 7.88363 12.9608 7.96387 12.7363C8.04405 12.5115 8.08496 12.2768 8.08496 12.0332C8.08493 11.7337 8.03518 11.4995 7.93652 11.3311C7.83772 11.1625 7.63236 11.085 7.36719 11.085ZM24.2539 11.085C23.6129 11.085 23.4902 11.0849 23.2275 11.2227C23.041 11.3204 22.8866 11.4681 22.751 11.6396C22.6153 11.8112 22.5086 12.009 22.4316 12.2334C22.3544 12.458 22.3164 12.6923 22.3164 12.9355C22.3164 13.2348 22.3661 13.472 22.4648 13.6465C22.5634 13.821 22.7456 13.9082 23.0107 13.9082C23.1524 13.9081 23.2805 13.8803 23.3945 13.8242C23.5085 13.7681 23.6303 13.6739 23.7598 13.543C23.7721 13.3873 23.7926 13.2232 23.8203 13.0518C23.848 12.8805 23.8832 12.7216 23.9141 12.5781L24.2539 11.085ZM12.2988 9.31543H10.9229L11.1338 8.41797H12.5098L12.2988 9.31543Z" fill="#002855"/>
</svg>
