<svg width="15" height="20" viewBox="0 0 15 20" fill="none" xmlns="http://www.w3.org/2000/svg">
<path d="M13.1391 0H1.84128C0.845616 0 0 0.803035 0 1.84128V18.547C0.00292993 19.8648 1.61252 20.4831 2.52759 19.558L6.834 15.2529C7.17911 14.8928 7.80127 14.8928 8.14637 15.2529L12.4528 19.558C13.3682 20.4834 14.9776 19.8642 14.9804 18.547V1.84128C14.9804 0.803035 14.1348 0 13.1391 0ZM13.8084 18.547C13.807 18.826 13.4601 18.9181 13.2807 18.7286C12.4198 17.8664 9.96472 15.412 8.97585 14.425C8.19794 13.6114 6.7836 13.6112 6.00604 14.4234C5.32294 15.1052 3.9858 16.442 2.93173 17.4957L1.70545 18.7215C1.52876 18.9089 1.1776 18.8464 1.17193 18.5576V1.84128C1.17193 1.46696 1.47536 1.17197 1.84128 1.17197H13.139C13.5044 1.17197 13.8084 1.46649 13.8084 1.84128V18.547Z" fill="white"/>
</svg>
