<svg width="250" height="250" viewBox="0 0 250 250" fill="none" xmlns="http://www.w3.org/2000/svg">
<g clip-path="url(#clip0_211_10953)">
<path d="M249.868 155.341L237.173 46.3369C235.94 35.7447 226.318 28.1314 215.727 29.3643L28.8622 51.126C23.8935 51.7046 19.3998 54.1435 16.2094 57.9941C14.9189 59.5512 15.1352 61.8598 16.6923 63.1503C18.2499 64.4408 20.558 64.2245 21.849 62.6669C23.831 60.2753 26.6225 58.7602 29.7094 58.4008L216.574 36.6397C219.761 36.2681 222.903 37.1602 225.421 39.1524C227.937 41.1441 229.527 43.9966 229.899 47.1846L242.593 156.189C243.359 162.77 238.629 168.747 232.048 169.514L226.807 170.124V166.153C226.807 164.13 225.168 162.491 223.145 162.491C221.123 162.491 219.483 164.13 219.483 166.153V201.427C219.483 208.052 214.093 213.442 207.468 213.442H19.3393C12.7143 213.442 7.32419 208.052 7.32419 201.427V91.6854C7.32419 85.0604 12.7143 79.6703 19.3393 79.6703H207.467C214.092 79.6703 219.483 85.0604 219.483 91.6854V150.475C219.483 152.498 221.122 154.137 223.145 154.137C225.167 154.137 226.807 152.498 226.807 150.475V91.6854C226.807 81.0218 218.131 72.3461 207.467 72.3461H19.3393C8.67575 72.3456 0 81.0213 0 91.6854V201.427C0 212.09 8.67575 220.766 19.3393 220.766H207.467C218.131 220.766 226.807 212.09 226.807 201.427V177.498L232.895 176.789C238.026 176.191 242.617 173.631 245.823 169.58C249.029 165.529 250.465 160.473 249.868 155.341Z" fill="#737373"/>
<path d="M27.1782 173.733H58.5327C60.5552 173.733 62.1948 172.094 62.1948 170.071C62.1948 168.049 60.5552 166.409 58.5327 166.409H27.1782C25.1558 166.409 23.5161 168.049 23.5161 170.071C23.5161 172.094 25.1558 173.733 27.1782 173.733Z" fill="#737373"/>
<path d="M27.1782 193.33H105.565C107.587 193.33 109.227 191.69 109.227 189.668C109.227 187.646 107.587 186.006 105.565 186.006H27.1782C25.1558 186.006 23.5161 187.646 23.5161 189.668C23.5161 191.69 25.1558 193.33 27.1782 193.33Z" fill="#737373"/>
<path d="M105.564 166.409H74.21C72.1875 166.409 70.5479 168.049 70.5479 170.071C70.5479 172.094 72.1875 173.733 74.21 173.733H105.564C107.587 173.733 109.227 172.094 109.227 170.071C109.227 168.049 107.587 166.409 105.564 166.409Z" fill="#737373"/>
<path d="M152.597 166.409H121.242C119.22 166.409 117.58 168.049 117.58 170.071C117.58 172.094 119.22 173.733 121.242 173.733H152.597C154.619 173.733 156.259 172.094 156.259 170.071C156.259 168.049 154.619 166.409 152.597 166.409Z" fill="#737373"/>
<path d="M164.612 170.071C164.612 172.094 166.251 173.733 168.274 173.733H199.629C201.651 173.733 203.291 172.094 203.291 170.071C203.291 168.049 201.651 166.409 199.629 166.409H168.274C166.251 166.409 164.612 168.049 164.612 170.071Z" fill="#737373"/>
<path d="M35.0166 154.138H58.5327C64.8745 154.138 70.0337 148.979 70.0337 142.637V126.959C70.0337 120.618 64.8745 115.459 58.5327 115.459H35.0166C28.6753 115.459 23.5161 120.618 23.5161 126.959V142.637C23.5161 148.979 28.6753 154.138 35.0166 154.138ZM30.8403 126.959C30.8403 124.657 32.7139 122.783 35.0166 122.783H58.5327C60.8355 122.783 62.7095 124.657 62.7095 126.959V142.637C62.7095 144.939 60.8359 146.813 58.5327 146.813H35.0166C32.7139 146.813 30.8403 144.94 30.8403 142.637V126.959Z" fill="#737373"/>
<path d="M42.8555 138.46H50.6943C52.7168 138.46 54.3564 136.82 54.3564 134.798C54.3564 132.775 52.7168 131.136 50.6943 131.136H42.8555C40.833 131.136 39.1934 132.775 39.1934 134.798C39.1934 136.82 40.833 138.46 42.8555 138.46Z" fill="#737373"/>
<path d="M185.991 141.995C186.515 142.256 187.072 142.38 187.62 142.38C188.965 142.38 190.261 141.635 190.902 140.348C193.922 134.278 195.452 127.795 195.452 121.08C195.452 114.364 193.921 107.881 190.902 101.812C190 100.001 187.802 99.2639 185.991 100.164C184.181 101.065 183.443 103.263 184.344 105.074C186.855 110.121 188.128 115.507 188.128 121.08C188.128 126.654 186.855 132.039 184.344 137.086C183.443 138.896 184.18 141.094 185.991 141.995Z" fill="#737373"/>
<path d="M171.931 134.916C172.456 135.178 173.014 135.302 173.564 135.302C174.907 135.302 176.202 134.559 176.843 133.275C178.788 129.379 179.774 125.276 179.774 121.08C179.774 116.884 178.788 112.781 176.843 108.885C175.939 107.075 173.74 106.34 171.93 107.244C170.121 108.147 169.386 110.347 170.29 112.157C171.723 115.028 172.45 118.03 172.45 121.08C172.45 124.13 171.723 127.132 170.29 130.003C169.387 131.813 170.122 134.013 171.931 134.916Z" fill="#737373"/>
<path d="M157.904 127.853C158.437 128.124 159.005 128.253 159.564 128.253C160.897 128.253 162.183 127.522 162.83 126.253C163.671 124.602 164.097 122.862 164.097 121.08C164.097 119.299 163.671 117.559 162.83 115.908C161.911 114.106 159.706 113.39 157.904 114.308C156.102 115.226 155.385 117.432 156.304 119.234C156.615 119.844 156.773 120.466 156.773 121.081C156.773 121.696 156.615 122.317 156.304 122.928C155.386 124.729 156.102 126.935 157.904 127.853Z" fill="#737373"/>
</g>
<defs>
<clipPath id="clip0_211_10953">
<rect width="250" height="250" fill="white"/>
</clipPath>
</defs>
</svg>
