<svg width="24" height="24" viewBox="0 0 24 24" fill="none" xmlns="http://www.w3.org/2000/svg">
<path d="M15.75 11.25H12.75V8.25C12.75 7.83582 12.4146 7.5 12 7.5C11.5854 7.5 11.25 7.83582 11.25 8.25V11.25H8.25C7.83545 11.25 7.5 11.5858 7.5 12C7.5 12.4142 7.83545 12.75 8.25 12.75H11.25V15.75C11.25 16.1642 11.5854 16.5 12 16.5C12.4146 16.5 12.75 16.1642 12.75 15.75V12.75H15.75C16.1646 12.75 16.5 12.4142 16.5 12C16.5 11.5858 16.1646 11.25 15.75 11.25Z" fill="url(#paint0_linear_1321_6126)"/>
<path d="M17.25 1.5H6.75C3.85547 1.5 1.5 3.8551 1.5 6.75V17.25C1.5 20.1449 3.85547 22.5 6.75 22.5H17.25C20.1445 22.5 22.5 20.1449 22.5 17.25V6.75C22.5 3.8551 20.1445 1.5 17.25 1.5ZM21 17.25C21 19.3176 19.3176 21 17.25 21H6.75C4.68237 21 3 19.3176 3 17.25V6.75C3 4.68237 4.68237 3 6.75 3H17.25C19.3176 3 21 4.68237 21 6.75V17.25Z" fill="url(#paint1_linear_1321_6126)"/>
<defs>
<linearGradient id="paint0_linear_1321_6126" x1="9.75439" y1="6.36866" x2="14.3935" y2="18.8823" gradientUnits="userSpaceOnUse">
<stop stop-color="#23ADA4"/>
<stop offset="1" stop-color="#23ADA4"/>
</linearGradient>
<linearGradient id="paint1_linear_1321_6126" x1="6.76024" y1="-1.1398" x2="17.5848" y2="28.0588" gradientUnits="userSpaceOnUse">
<stop stop-color="#23ADA4"/>
<stop offset="1" stop-color="#23ADA4"/>
</linearGradient>
</defs>
</svg>
