<svg width="32" height="32" viewBox="0 0 32 32" fill="none" xmlns="http://www.w3.org/2000/svg">
<path d="M22.6667 18.6666C23.4031 18.6666 24 18.0697 24 17.3333C24 16.5969 23.4031 16 22.6667 16C21.9303 16 21.3334 16.5969 21.3334 17.3333C21.3334 18.0697 21.9303 18.6666 22.6667 18.6666Z" fill="#999999"/>
<path d="M22.6667 24C23.4031 24 24 23.403 24 22.6666C24 21.9303 23.4031 21.3333 22.6667 21.3333C21.9303 21.3333 21.3334 21.9303 21.3334 22.6666C21.3334 23.403 21.9303 24 22.6667 24Z" fill="#999999"/>
<path d="M17.3334 17.3333C17.3334 18.0697 16.7364 18.6666 16 18.6666C15.2636 18.6666 14.6667 18.0697 14.6667 17.3333C14.6667 16.5969 15.2636 16 16 16C16.7364 16 17.3334 16.5969 17.3334 17.3333Z" fill="#999999"/>
<path d="M17.3334 22.6666C17.3334 23.403 16.7364 24 16 24C15.2636 24 14.6667 23.403 14.6667 22.6666C14.6667 21.9303 15.2636 21.3333 16 21.3333C16.7364 21.3333 17.3334 21.9303 17.3334 22.6666Z" fill="#999999"/>
<path d="M9.33335 18.6666C10.0697 18.6666 10.6667 18.0697 10.6667 17.3333C10.6667 16.5969 10.0697 16 9.33335 16C8.59697 16 8.00002 16.5969 8.00002 17.3333C8.00002 18.0697 8.59697 18.6666 9.33335 18.6666Z" fill="#999999"/>
<path d="M9.33335 24C10.0697 24 10.6667 23.403 10.6667 22.6666C10.6667 21.9303 10.0697 21.3333 9.33335 21.3333C8.59697 21.3333 8.00002 21.9303 8.00002 22.6666C8.00002 23.403 8.59697 24 9.33335 24Z" fill="#999999"/>
<path fill-rule="evenodd" clip-rule="evenodd" d="M9.33335 2.33331C9.88564 2.33331 10.3334 2.78103 10.3334 3.33331V4.35027C11.216 4.3333 12.1885 4.3333 13.258 4.33331H18.7419C19.8114 4.3333 20.784 4.3333 21.6667 4.35027V3.33331C21.6667 2.78103 22.1144 2.33331 22.6667 2.33331C23.219 2.33331 23.6667 2.78103 23.6667 3.33331V4.4361C24.0133 4.46252 24.3415 4.49574 24.6521 4.53749C26.2153 4.74766 27.4805 5.19049 28.4784 6.1883C29.4762 7.18612 29.919 8.45139 30.1292 10.0146C30.3334 11.5336 30.3334 13.4744 30.3334 15.9247V18.7419C30.3334 21.1922 30.3334 23.1331 30.1292 24.652C29.919 26.2152 29.4762 27.4805 28.4784 28.4783C27.4805 29.4761 26.2153 29.919 24.6521 30.1291C23.1331 30.3333 21.1923 30.3333 18.742 30.3333H13.2581C10.8078 30.3333 8.86693 30.3333 7.34799 30.1291C5.78476 29.919 4.5195 29.4761 3.52168 28.4783C2.52386 27.4805 2.08104 26.2152 1.87087 24.652C1.66665 23.1331 1.66667 21.1922 1.66669 18.7419V15.9248C1.66667 13.4744 1.66665 11.5336 1.87087 10.0146C2.08104 8.45139 2.52386 7.18612 3.52168 6.1883C4.5195 5.19049 5.78476 4.74766 7.34799 4.53749C7.65856 4.49574 7.98676 4.46252 8.33335 4.4361V3.33331C8.33335 2.78103 8.78107 2.33331 9.33335 2.33331ZM7.61449 6.51966C6.27303 6.70001 5.50017 7.03824 4.93589 7.60252C4.37161 8.1668 4.03339 8.93966 3.85303 10.2811C3.82249 10.5083 3.79695 10.7475 3.7756 11H28.2244C28.2031 10.7475 28.1776 10.5083 28.147 10.2811C27.9667 8.93966 27.6284 8.1668 27.0641 7.60252C26.4999 7.03824 25.727 6.70001 24.3856 6.51966C23.0153 6.33544 21.2091 6.33331 18.6667 6.33331H13.3334C10.7909 6.33331 8.98471 6.33544 7.61449 6.51966ZM3.66669 16C3.66669 14.8613 3.66711 13.8703 3.68413 13H28.3159C28.3329 13.8703 28.3334 14.8613 28.3334 16V18.6666C28.3334 21.2091 28.3312 23.0153 28.147 24.3855C27.9667 25.727 27.6284 26.4998 27.0641 27.0641C26.4999 27.6284 25.727 27.9666 24.3856 28.147C23.0153 28.3312 21.2091 28.3333 18.6667 28.3333H13.3334C10.7909 28.3333 8.9847 28.3312 7.61449 28.147C6.27303 27.9666 5.50017 27.6284 4.93589 27.0641C4.37161 26.4998 4.03339 25.727 3.85303 24.3855C3.66881 23.0153 3.66669 21.2091 3.66669 18.6666V16Z" fill="#999999"/>
</svg>
