<svg width="32" height="32" viewBox="0 0 32 32" fill="none" xmlns="http://www.w3.org/2000/svg">
<path fill-rule="evenodd" clip-rule="evenodd" d="M23.264 2.33331C22.066 2.33328 21.0671 2.33324 20.274 2.43987C19.437 2.55241 18.6812 2.79997 18.0739 3.40726C17.4666 4.01455 17.2191 4.77029 17.1065 5.60734C16.9999 6.40038 17 7.39932 17 8.59728V8.73598C17 9.93393 16.9999 10.9329 17.1065 11.726C17.2191 12.563 17.4666 13.3187 18.0739 13.926C18.6812 14.5333 19.437 14.7809 20.274 14.8934C21.0671 15.0001 22.066 15 23.264 15H23.4027C24.6006 15 25.5996 15.0001 26.3926 14.8934C27.2297 14.7809 27.9854 14.5333 28.5927 13.926C29.2 13.3187 29.4476 12.563 29.5601 11.726C29.6667 10.9329 29.6667 9.93395 29.6667 8.73597V8.59732C29.6667 7.39935 29.6667 6.40039 29.5601 5.60734C29.4476 4.77029 29.2 4.01455 28.5927 3.40726C27.9854 2.79997 27.2297 2.55241 26.3926 2.43987C25.5996 2.33324 24.6007 2.33328 23.4027 2.33331H23.264ZM19.4882 4.82147C19.6619 4.64772 19.9252 4.50475 20.5405 4.42203C21.1846 4.33544 22.048 4.33332 23.3333 4.33332C24.6187 4.33332 25.4821 4.33544 26.1261 4.42203C26.7414 4.50475 27.0048 4.64772 27.1785 4.82147C27.3523 4.99523 27.4952 5.25856 27.578 5.87384C27.6645 6.51789 27.6667 7.3813 27.6667 8.66665C27.6667 9.952 27.6645 10.8154 27.578 11.4595C27.4952 12.0747 27.3523 12.3381 27.1785 12.5118C27.0048 12.6856 26.7414 12.8285 26.1261 12.9113C25.4821 12.9979 24.6187 13 23.3333 13C22.048 13 21.1846 12.9979 20.5405 12.9113C19.9252 12.8285 19.6619 12.6856 19.4882 12.5118C19.3144 12.3381 19.1714 12.0747 19.0887 11.4595C19.0021 10.8154 19 9.952 19 8.66665C19 7.3813 19.0021 6.51789 19.0887 5.87384C19.1714 5.25856 19.3144 4.99523 19.4882 4.82147Z" fill="#999999"/>
<path fill-rule="evenodd" clip-rule="evenodd" d="M8.59734 17C7.39938 16.9999 6.40039 16.9999 5.60736 17.1065C4.7703 17.2191 4.01457 17.4666 3.40727 18.0739C2.79998 18.6812 2.55242 19.437 2.43988 20.274C2.33326 21.067 2.33329 22.066 2.33333 23.2639V23.4026C2.33329 24.6006 2.33326 25.5996 2.43988 26.3926C2.55242 27.2297 2.79998 27.9854 3.40727 28.5927C4.01457 29.2 4.7703 29.4476 5.60736 29.5601C6.4004 29.6667 7.39936 29.6667 8.59734 29.6666H8.73599C9.93397 29.6667 10.9329 29.6667 11.726 29.5601C12.563 29.4476 13.3188 29.2 13.9261 28.5927C14.5333 27.9854 14.7809 27.2297 14.8934 26.3926C15.0001 25.5996 15 24.6006 15 23.4027V23.264C15 22.066 15.0001 21.067 14.8934 20.274C14.7809 19.437 14.5333 18.6812 13.9261 18.0739C13.3188 17.4666 12.563 17.2191 11.726 17.1065C10.9329 16.9999 9.93399 16.9999 8.73603 17H8.59734ZM4.82149 19.4881C4.99524 19.3144 5.25857 19.1714 5.87386 19.0887C6.5179 19.0021 7.38132 19 8.66667 19C9.95201 19 10.8154 19.0021 11.4595 19.0887C12.0748 19.1714 12.3381 19.3144 12.5118 19.4881C12.6856 19.6619 12.8286 19.9252 12.9113 20.5405C12.9979 21.1846 13 22.048 13 23.3333C13 24.6187 12.9979 25.4821 12.9113 26.1261C12.8286 26.7414 12.6856 27.0047 12.5118 27.1785C12.3381 27.3523 12.0748 27.4952 11.4595 27.5779C10.8154 27.6645 9.95201 27.6667 8.66667 27.6667C7.38132 27.6667 6.5179 27.6645 5.87386 27.5779C5.25857 27.4952 4.99524 27.3523 4.82149 27.1785C4.64773 27.0047 4.50477 26.7414 4.42205 26.1261C4.33546 25.4821 4.33333 24.6187 4.33333 23.3333C4.33333 22.048 4.33546 21.1846 4.42205 20.5405C4.50477 19.9252 4.64773 19.6619 4.82149 19.4881Z" fill="#999999"/>
<path fill-rule="evenodd" clip-rule="evenodd" d="M2.33333 8.66665C2.33333 5.16885 5.16886 2.33332 8.66667 2.33332C12.1645 2.33332 15 5.16885 15 8.66665C15 12.1645 12.1645 15 8.66667 15C5.16886 15 2.33333 12.1645 2.33333 8.66665ZM8.66667 4.33332C6.27343 4.33332 4.33333 6.27342 4.33333 8.66665C4.33333 11.0599 6.27343 13 8.66667 13C11.0599 13 13 11.0599 13 8.66665C13 6.27342 11.0599 4.33332 8.66667 4.33332Z" fill="#999999"/>
<path fill-rule="evenodd" clip-rule="evenodd" d="M17 23.3333C17 19.8355 19.8355 17 23.3333 17C26.8311 17 29.6667 19.8355 29.6667 23.3333C29.6667 26.8311 26.8311 29.6666 23.3333 29.6666C19.8355 29.6666 17 26.8311 17 23.3333ZM23.3333 19C20.9401 19 19 20.9401 19 23.3333C19 25.7265 20.9401 27.6667 23.3333 27.6667C25.7266 27.6667 27.6667 25.7265 27.6667 23.3333C27.6667 20.9401 25.7266 19 23.3333 19Z" fill="#999999"/>
</svg>
