<svg width="24" height="24" viewBox="0 0 24 24" fill="none" xmlns="http://www.w3.org/2000/svg">
<path d="M18.0005 3.75H16.7505V3C16.7505 2.80109 16.6715 2.61032 16.5309 2.46967C16.3902 2.32902 16.1994 2.25 16.0005 2.25C15.8016 2.25 15.6108 2.32902 15.4702 2.46967C15.3295 2.61032 15.2505 2.80109 15.2505 3V3.75H8.75053V3C8.75053 2.80109 8.67151 2.61032 8.53086 2.46967C8.3902 2.32902 8.19944 2.25 8.00052 2.25C7.80161 2.25 7.61085 2.32902 7.47019 2.46967C7.32954 2.61032 7.25052 2.80109 7.25052 3V3.75H6.00053C5.49387 3.69128 4.98049 3.74788 4.49879 3.91557C4.01709 4.08326 3.57955 4.3577 3.21889 4.71836C2.85822 5.07902 2.58378 5.51657 2.41609 5.99826C2.2484 6.47996 2.1918 6.99334 2.25052 7.5V18C2.1918 18.5067 2.2484 19.02 2.41609 19.5017C2.58378 19.9834 2.85822 20.421 3.21889 20.7816C3.57955 21.1423 4.01709 21.4167 4.49879 21.5844C4.98049 21.7521 5.49387 21.8087 6.00053 21.75H18.0005C18.5072 21.8087 19.0206 21.7521 19.5023 21.5844C19.984 21.4167 20.4215 21.1423 20.7822 20.7816C21.1428 20.421 21.4173 19.9834 21.585 19.5017C21.7527 19.02 21.8093 18.5067 21.7505 18V7.5C21.8093 6.99334 21.7527 6.47996 21.585 5.99826C21.4173 5.51657 21.1428 5.07902 20.7822 4.71836C20.4215 4.3577 19.984 4.08326 19.5023 3.91557C19.0206 3.74788 18.5072 3.69128 18.0005 3.75ZM6.00053 5.25H7.25052V6C7.25052 6.19891 7.32954 6.38968 7.47019 6.53033C7.61085 6.67098 7.80161 6.75 8.00052 6.75C8.19944 6.75 8.3902 6.67098 8.53086 6.53033C8.67151 6.38968 8.75053 6.19891 8.75053 6V5.25H15.2505V6C15.2505 6.19891 15.3295 6.38968 15.4702 6.53033C15.6108 6.67098 15.8016 6.75 16.0005 6.75C16.1994 6.75 16.3902 6.67098 16.5309 6.53033C16.6715 6.38968 16.7505 6.19891 16.7505 6V5.25H18.0005C19.5775 5.25 20.2505 5.923 20.2505 7.5V8.25H3.75052V7.5C3.75052 5.923 4.42353 5.25 6.00053 5.25ZM18.0005 20.25H6.00053C4.42353 20.25 3.75052 19.577 3.75052 18V9.75H20.2505V18C20.2505 19.577 19.5775 20.25 18.0005 20.25ZM15.0305 12.8C15.1002 12.8697 15.1555 12.9524 15.1932 13.0434C15.231 13.1344 15.2504 13.232 15.2504 13.3305C15.2504 13.429 15.231 13.5266 15.1932 13.6176C15.1555 13.7086 15.1002 13.7913 15.0305 13.861L11.7005 17.2C11.631 17.2698 11.5484 17.3252 11.4575 17.3629C11.3665 17.4007 11.269 17.4202 11.1705 17.4202C11.072 17.4202 10.9745 17.4007 10.8836 17.3629C10.7926 17.3252 10.71 17.2698 10.6405 17.2L8.97053 15.53C8.83805 15.3878 8.76592 15.1998 8.76935 15.0055C8.77278 14.8112 8.85149 14.6258 8.9889 14.4884C9.12632 14.351 9.3117 14.2723 9.506 14.2688C9.7003 14.2654 9.88835 14.3375 10.0305 14.47L11.1675 15.606L13.9675 12.806C14.0367 12.7355 14.1192 12.6794 14.2102 12.6409C14.3012 12.6024 14.399 12.5823 14.4978 12.5817C14.5966 12.5812 14.6945 12.6002 14.786 12.6376C14.8774 12.6751 14.9605 12.7303 15.0305 12.8Z" fill="url(#paint0_linear_394_11366)"/>
<defs>
<linearGradient id="paint0_linear_394_11366" x1="7.12381" y1="-0.20407" x2="17.178" y2="26.9477" gradientUnits="userSpaceOnUse">
<stop stop-color="#23ADA4"/>
<stop offset="1" stop-color="#23ADA4"/>
</linearGradient>
</defs>
</svg>
