<svg width="50" height="50" viewBox="0 0 50 50" fill="none" xmlns="http://www.w3.org/2000/svg">
<rect x="0.5" y="0.5" width="49" height="49" rx="24.5" stroke="#656565"/>
<path d="M22.5137 26.3429C22.432 26.3429 20.7194 26.3434 19.9295 26.3427C19.5229 26.3424 19.3778 26.1963 19.3778 25.787C19.3773 24.7359 19.377 23.6847 19.3778 22.6335C19.3781 22.2295 19.5315 22.0753 19.9329 22.075C20.7228 22.0745 22.4261 22.0748 22.5137 22.0748C22.5137 22.0027 22.5134 20.4851 22.5137 19.7862C22.5142 18.753 22.6985 17.764 23.2235 16.8584C23.7609 15.9315 24.543 15.2966 25.5453 14.9294C26.1872 14.6941 26.8536 14.6003 27.5348 14.5998C28.3871 14.5992 29.2394 14.6 30.0919 14.6016C30.4582 14.6021 30.6207 14.7641 30.6215 15.133C30.6231 16.1218 30.6231 17.1106 30.6215 18.0991C30.621 18.4719 30.4653 18.6217 30.0906 18.6259C29.392 18.6334 28.6928 18.6287 27.995 18.6568C27.2901 18.6568 26.9194 19.001 26.9194 19.7306C26.9025 20.5023 26.9124 21.2747 26.9124 22.0745C26.9784 22.0745 28.9843 22.0742 29.9219 22.0745C30.3477 22.0745 30.4933 22.2209 30.4933 22.6491C30.4933 23.6946 30.4931 24.7403 30.4923 25.7857C30.492 26.2077 30.3553 26.3424 29.9268 26.3427C28.9892 26.3432 26.9911 26.3429 26.9038 26.3429V34.8046C26.9038 35.2557 26.7618 35.3995 26.3167 35.3995C25.2315 35.3995 24.146 35.3998 23.0607 35.3995C22.6673 35.3995 22.5139 35.2466 22.5139 34.8533C22.5137 32.0975 22.5137 26.4396 22.5137 26.3429Z" fill="#3D6AD6"/>
</svg>
