<svg width="24" height="24" viewBox="0 0 24 24" fill="none" xmlns="http://www.w3.org/2000/svg">
<path d="M12.0004 12.7501L11.4701 13.2804C11.6107 13.421 11.8015 13.5001 12.0004 13.5001C12.1993 13.5001 12.3901 13.421 12.5308 13.2804L12.0004 12.7501ZM20.0004 8V8.75C20.4146 8.75 20.7504 8.41421 20.7504 8H20.0004ZM4.00042 8H3.25042C3.25042 8.41421 3.58621 8.75 4.00042 8.75V8ZM11.8052 16.5555L9.95108 14.2378L8.77978 15.1748L10.6339 17.4925L11.8052 16.5555ZM9.75042 13.6658V13.5911H8.25042V13.6658H9.75042ZM11.1861 12.9964L11.4701 13.2804L12.5308 12.2197L12.2467 11.9357L11.1861 12.9964ZM12.5308 13.2804L12.8148 12.9964L11.7541 11.9357L11.4701 12.2197L12.5308 13.2804ZM14.2504 13.5911V13.6658H15.7504V13.5911H14.2504ZM14.0498 14.2378L12.1956 16.5555L13.3669 17.4925L15.2211 15.1748L14.0498 14.2378ZM14.2504 13.6658C14.2504 13.8737 14.1797 14.0754 14.0498 14.2378L15.2211 15.1748C15.5637 14.7465 15.7504 14.2143 15.7504 13.6658H14.2504ZM13.4094 12.7501C13.8739 12.7501 14.2504 13.1266 14.2504 13.5911H15.7504C15.7504 12.2982 14.7023 11.2501 13.4094 11.2501V12.7501ZM10.5914 12.7501C10.8145 12.7501 11.0284 12.8387 11.1861 12.9964L12.2467 11.9357C11.8077 11.4967 11.2123 11.2501 10.5914 11.2501V12.7501ZM9.75042 13.5911C9.75042 13.1266 10.1269 12.7501 10.5914 12.7501V11.2501C9.29852 11.2501 8.25042 12.2982 8.25042 13.5911H9.75042ZM9.95108 14.2378C9.82119 14.0754 9.75042 13.8737 9.75042 13.6658H8.25042C8.25042 14.2143 8.43711 14.7465 8.77978 15.1748L9.95108 14.2378ZM12.8148 12.9964C12.9725 12.8387 13.1864 12.7501 13.4094 12.7501V11.2501C12.7886 11.2501 12.1931 11.4967 11.7541 11.9357L12.8148 12.9964ZM10.6339 17.4925C11.3345 18.3682 12.6664 18.3682 13.3669 17.4925L12.1956 16.5555C12.0956 16.6806 11.9053 16.6806 11.8052 16.5555L10.6339 17.4925ZM19.2504 7V8H20.7504V7H19.2504ZM20.0004 7.25H4.00042V8.75H20.0004V7.25ZM4.75042 8V5H3.25042V8H4.75042ZM14.1979 4.75H17.0004V3.25H14.1979V4.75ZM7.00042 2.75H9.56959V1.25H7.00042V2.75ZM10.9526 3.2252L11.893 3.958L12.815 2.7748L11.8745 2.042L10.9526 3.2252ZM14.1979 3.25C13.6969 3.25 13.2102 3.08276 12.815 2.7748L11.893 3.958C12.5517 4.47127 13.3629 4.75 14.1979 4.75V3.25ZM20.7504 7C20.7504 4.92893 19.0715 3.25 17.0004 3.25V4.75C18.2431 4.75 19.2504 5.75736 19.2504 7H20.7504ZM9.56959 2.75C10.0706 2.75 10.5573 2.91724 10.9526 3.2252L11.8745 2.042C11.2158 1.52873 10.4047 1.25 9.56959 1.25V2.75ZM4.75042 5C4.75042 3.75736 5.75778 2.75 7.00042 2.75V1.25C4.92935 1.25 3.25042 2.92893 3.25042 5H4.75042ZM3.4744 8.75H20.5264V7.25H3.4744V8.75ZM21.7487 10.2619L19.9446 18.681L21.4113 18.9953L23.2154 10.5762L21.7487 10.2619ZM16.7668 21.25H7.23409V22.75H16.7668V21.25ZM4.05623 18.681L2.25214 10.2619L0.785437 10.5762L2.58952 18.9953L4.05623 18.681ZM7.23409 21.25C5.70159 21.25 4.37733 20.1794 4.05623 18.681L2.58952 18.9953C3.05883 21.1853 4.99428 22.75 7.23409 22.75V21.25ZM19.9446 18.681C19.6235 20.1794 18.2993 21.25 16.7668 21.25V22.75C19.0066 22.75 20.942 21.1853 21.4113 18.9953L19.9446 18.681ZM20.5264 8.75C21.3223 8.75 21.9154 9.48377 21.7487 10.2619L23.2154 10.5762C23.5822 8.8643 22.2772 7.25 20.5264 7.25V8.75ZM3.4744 7.25C1.72362 7.25 0.4186 8.8643 0.785437 10.5762L2.25214 10.2619C2.0854 9.48377 2.67859 8.75 3.4744 8.75V7.25Z" fill="url(#paint0_linear_1080_6277)"/>
<defs>
<linearGradient id="paint0_linear_1080_6277" x1="6.37288" y1="-1.45265" x2="17.0551" y2="28.7746" gradientUnits="userSpaceOnUse">
<stop stop-color="#23ADA4"/>
<stop offset="1" stop-color="#23ADA4"/>
</linearGradient>
</defs>
</svg>
