<svg width="20" height="20" viewBox="0 0 20 20" fill="none" xmlns="http://www.w3.org/2000/svg">
<path d="M1.25 10.6758V18.1758C1.25 18.8658 1.81125 19.4258 2.5 19.4258H8.75V10.6758H1.25Z" fill="#22D1D6"/>
<path d="M18.75 5.67516H14.795C15.0788 5.48141 15.3225 5.28891 15.4925 5.11641C16.5012 4.10266 16.5012 2.45266 15.4925 1.43891C14.5125 0.451407 12.805 0.453907 11.8263 1.43891C11.2838 1.98266 9.84625 4.19641 10.045 5.67516H9.955C10.1525 4.19641 8.715 1.98266 8.17375 1.43891C7.19375 0.453907 5.48625 0.453907 4.5075 1.43891C3.5 2.45266 3.5 4.10266 4.50625 5.11641C4.6775 5.28891 4.92125 5.48141 5.205 5.67516H1.25C0.56125 5.67516 0 6.23641 0 6.92516V8.80016C0 9.14516 0.28 9.42516 0.625 9.42516H8.75V6.92516H11.25V9.42516H19.375C19.72 9.42516 20 9.14516 20 8.80016V6.92516C20 6.23641 19.44 5.67516 18.75 5.67516ZM8.67625 5.63391C8.67625 5.63391 8.62375 5.67516 8.445 5.67516C7.58125 5.67516 5.9325 4.77766 5.39375 4.23516C4.87 3.70766 4.87 2.84766 5.39375 2.32016C5.6475 2.06516 5.98375 1.92516 6.34125 1.92516C6.6975 1.92516 7.03375 2.06516 7.2875 2.32016C8.13 3.16766 8.9675 5.33266 8.67625 5.63391ZM11.5538 5.67516C11.3763 5.67516 11.3237 5.63516 11.3237 5.63391C11.0325 5.33266 11.87 3.16766 12.7125 2.32016C13.2163 1.81141 14.0975 1.80891 14.6063 2.32016C15.1313 2.84766 15.1313 3.70766 14.6063 4.23516C14.0675 4.77766 12.4187 5.67516 11.5538 5.67516Z" fill="#22D1D6"/>
<path d="M11.25 10.6758V19.4258H17.5C18.19 19.4258 18.75 18.8658 18.75 18.1758V10.6758H11.25Z" fill="#22D1D6"/>
</svg>
