<svg width="35" height="24" viewBox="0 0 35 24" fill="none" xmlns="http://www.w3.org/2000/svg">
<rect x="0.5" y="0.5" width="34" height="23" rx="1.5" fill="white" stroke="#E2E8F0"/>
<path d="M27.4976 14.3184H27.5151L28.9741 10.6553H30.0005L26.8462 17.999H25.8735L27.0454 15.4307L24.9771 10.6553H26.0024L27.4976 14.3184ZM22.562 10.4883C23.2594 10.4883 23.81 10.6792 24.2144 11.0537C24.6188 11.4283 24.8188 11.9513 24.8188 12.6113V15.7578H23.9155V15.0498H23.8745C23.4819 15.6324 22.9663 15.9237 22.3159 15.9238C21.765 15.9238 21.2955 15.7577 20.9263 15.4248C20.5629 15.1156 20.358 14.6574 20.3696 14.1758C20.3696 13.6466 20.5688 13.2302 20.9614 12.915C21.3542 12.5999 21.8821 12.4453 22.5386 12.4453C23.101 12.4454 23.5581 12.5519 23.9214 12.7539V12.5342C23.9214 12.2071 23.7808 11.8977 23.5347 11.6836C23.2827 11.4578 22.9604 11.3331 22.6265 11.333C22.0989 11.333 21.6822 11.5588 21.3774 12.0107L20.5454 11.4814C20.9909 10.8215 21.6653 10.4883 22.562 10.4883ZM18.0894 8.2998C18.6931 8.28793 19.2796 8.52009 19.7075 8.94824C20.5631 9.75698 20.6158 11.119 19.813 11.9932L19.7075 12.1006C19.2679 12.5228 18.7282 12.7363 18.0894 12.7363H16.5298V15.7578H15.5864V8.2998H18.0894ZM22.6851 13.2178C22.3041 13.2178 21.982 13.3137 21.7241 13.498C21.472 13.6824 21.3423 13.9139 21.3423 14.1934C21.3423 14.4431 21.4603 14.6747 21.6538 14.8174C21.8648 14.9838 22.1225 15.0733 22.3862 15.0674C22.7849 15.0674 23.1664 14.9065 23.4478 14.6211C23.7581 14.3239 23.9164 13.9733 23.9165 13.5693C23.6234 13.3315 23.2127 13.2118 22.6851 13.2178ZM16.5298 11.8203H18.1128C18.4645 11.8322 18.8051 11.6902 19.0454 11.4346C19.5378 10.9173 19.5259 10.0845 19.0161 9.58496C18.7758 9.34709 18.4528 9.21582 18.1128 9.21582H16.5298V11.8203Z" fill="#3C4043"/>
<path d="M13.272 12.0831C13.272 11.7917 13.2486 11.5003 13.2017 11.2148H9.22168V12.8621H11.5018C11.408 13.3914 11.1032 13.8671 10.6578 14.1644V15.2349H12.0176C12.8148 14.4915 13.272 13.3914 13.272 12.0831Z" fill="#4285F4"/>
<path d="M9.22211 16.2696C10.3592 16.2696 11.3205 15.889 12.0181 15.2349L10.6582 14.1645C10.2772 14.4261 9.79068 14.5748 9.22211 14.5748C8.12013 14.5748 7.18815 13.8195 6.85404 12.8086H5.45312V13.9147C6.16824 15.3598 7.62776 16.2696 9.22211 16.2696Z" fill="#34A853"/>
<path d="M6.85401 12.8088C6.67814 12.2796 6.67814 11.7027 6.85401 11.1675V10.0674H5.45288C4.84904 11.2746 4.84904 12.7018 5.45288 13.909L6.85401 12.8088Z" fill="#FBBC04"/>
<path d="M9.22211 9.40114C9.82585 9.38925 10.4061 9.62117 10.8399 10.0434L12.0474 8.81836C11.2795 8.09285 10.2713 7.69442 9.22211 7.70631C7.62776 7.70631 6.16824 8.62211 5.45312 10.0672L6.85404 11.1733C7.18815 10.1564 8.12013 9.40114 9.22211 9.40114Z" fill="#EA4335"/>
</svg>
