<svg width="50" height="50" viewBox="0 0 50 50" fill="none" xmlns="http://www.w3.org/2000/svg">
<rect x="0.5" y="0.5" width="49" height="49" rx="24.5" stroke="#656565"/>
<g clip-path="url(#clip0_168_2667)">
<path d="M34.174 24.7106C34.174 23.9317 34.1121 23.3633 33.9782 22.7739H25.2725V26.2894H30.3825C30.2796 27.163 29.7232 28.4787 28.4869 29.3628L28.4695 29.4805L31.2221 31.659L31.4128 31.6784C33.1643 30.0259 34.174 27.5945 34.174 24.7106Z" fill="#4285F4"/>
<path d="M25.2724 33.9729C27.7759 33.9729 29.8776 33.1308 31.4128 31.6783L28.4868 29.3627C27.7038 29.9205 26.6529 30.31 25.2724 30.31C22.8204 30.31 20.7392 28.6575 19.9974 26.3735L19.8886 26.383L17.0264 28.6459L16.989 28.7522C18.5138 31.8467 21.6458 33.9729 25.2724 33.9729Z" fill="#34A853"/>
<path d="M19.9974 26.3736C19.8017 25.7842 19.6884 25.1526 19.6884 24.5C19.6884 23.8474 19.8017 23.2159 19.9871 22.6265L19.9819 22.501L17.0839 20.2017L16.989 20.2477C16.3606 21.5319 16 22.9739 16 24.5C16 26.0262 16.3606 27.4682 16.989 28.7523L19.9974 26.3736Z" fill="#FBBC05"/>
<path d="M25.2724 18.6902C27.0135 18.6902 28.188 19.4585 28.8577 20.1006L31.4746 17.4903C29.8674 15.9641 27.7759 15.0273 25.2724 15.0273C21.6458 15.0273 18.5138 17.1535 16.989 20.2479L19.9871 22.6267C20.7392 20.3427 22.8204 18.6902 25.2724 18.6902Z" fill="#EB4335"/>
</g>
<defs>
<clipPath id="clip0_168_2667">
<rect x="16" y="15" width="18.1739" height="19" rx="9.08696" fill="white"/>
</clipPath>
</defs>
</svg>
