<svg width="25" height="25" viewBox="0 0 25 25" fill="none" xmlns="http://www.w3.org/2000/svg">
<path d="M22.9168 12.5002C22.9168 12.2239 22.8071 11.9589 22.6117 11.7636C22.4164 11.5682 22.1514 11.4585 21.8752 11.4585C21.5989 11.4585 21.3339 11.5682 21.1386 11.7636C20.9432 11.9589 20.8335 12.2239 20.8335 12.5002H22.9168ZM12.5002 4.16683C12.7764 4.16683 13.0414 4.05708 13.2367 3.86173C13.4321 3.66638 13.5418 3.40143 13.5418 3.12516C13.5418 2.8489 13.4321 2.58394 13.2367 2.38859C13.0414 2.19324 12.7764 2.0835 12.5002 2.0835V4.16683ZM20.3127 20.8335H4.68766V22.9168H20.3127V20.8335ZM4.16683 20.3127V4.68766H2.0835V20.3127H4.16683ZM20.8335 12.5002V20.3127H22.9168V12.5002H20.8335ZM4.68766 4.16683H12.5002V2.0835H4.68766V4.16683ZM4.68766 20.8335C4.54953 20.8335 4.41705 20.7786 4.31938 20.681C4.2217 20.5833 4.16683 20.4508 4.16683 20.3127H2.0835C2.0835 21.0033 2.35786 21.6657 2.84624 22.1541C3.33461 22.6425 3.99699 22.9168 4.68766 22.9168V20.8335ZM20.3127 22.9168C21.0033 22.9168 21.6657 22.6425 22.1541 22.1541C22.6425 21.6657 22.9168 21.0033 22.9168 20.3127H20.8335C20.8335 20.4508 20.7786 20.5833 20.681 20.681C20.5833 20.7786 20.4508 20.8335 20.3127 20.8335V22.9168ZM4.16683 4.68766C4.16683 4.54953 4.2217 4.41705 4.31938 4.31938C4.41705 4.2217 4.54953 4.16683 4.68766 4.16683V2.0835C3.99699 2.0835 3.33461 2.35786 2.84624 2.84624C2.35786 3.33461 2.0835 3.99699 2.0835 4.68766H4.16683Z" fill="white" fill-opacity="0.4"/>
<path d="M3.125 18.2292L8.69427 13.124C8.88199 12.9519 9.12622 12.8546 9.38081 12.8504C9.6354 12.8461 9.88272 12.9353 10.076 13.101L16.6667 18.75M14.5833 16.1458L17.0693 13.6599C17.2466 13.4825 17.482 13.375 17.7322 13.3572C17.9824 13.3394 18.2306 13.4125 18.4312 13.563L21.875 16.1458M15.625 6.25H21.875M18.75 3.125V9.375" stroke="white" stroke-opacity="0.4" stroke-width="2" stroke-linecap="round" stroke-linejoin="round"/>
</svg>
