<svg width="22" height="20" viewBox="0 0 22 20" fill="none" xmlns="http://www.w3.org/2000/svg">
<path fill-rule="evenodd" clip-rule="evenodd" d="M10.7561 2.89632C8.28094 2.89632 6.27444 4.74887 6.27444 7.0341C6.27444 7.05367 6.27459 7.0732 6.27488 7.09271C6.56749 7.05408 6.8666 7.0341 7.17077 7.0341C8.5039 7.0341 9.73992 7.41797 10.7562 8.07253C11.7725 7.4181 13.0084 7.03431 14.3414 7.03431C14.6455 7.03431 14.9447 7.05429 15.2373 7.09291C15.2376 7.07334 15.2377 7.05374 15.2377 7.0341C15.2377 4.74887 13.2312 2.89632 10.7561 2.89632ZM17.0029 7.5798C17.0211 7.40016 17.0304 7.21813 17.0304 7.0341C17.0304 3.83478 14.2213 1.24121 10.7561 1.24121C7.29088 1.24121 4.48179 3.83478 4.48179 7.0341C4.48179 7.21806 4.49108 7.40002 4.50924 7.5796C2.37469 8.5041 0.896484 10.5062 0.896484 12.827C0.896484 16.0263 3.70558 18.6199 7.17077 18.6199C8.50376 18.6199 9.73966 18.2361 10.7559 17.5817C11.7722 18.2362 13.0082 18.6201 14.3414 18.6201C17.8066 18.6201 20.6157 16.0265 20.6157 12.8272C20.6157 10.5064 19.1374 8.5043 17.0029 7.5798ZM14.852 8.71598C14.6844 8.69843 14.514 8.68942 14.3414 8.68942C13.525 8.68942 12.7597 8.89094 12.1004 9.24304C12.4583 9.66203 12.7548 10.1277 12.9775 10.6286C13.8023 10.1932 14.4628 9.52267 14.852 8.71598ZM13.4176 12.2815C14.8364 11.667 15.9652 10.5764 16.5627 9.23264C17.913 9.94548 18.823 11.2882 18.823 12.8272C18.823 15.1124 16.8165 16.965 14.3414 16.965C13.5249 16.965 12.7595 16.7634 12.1002 16.4112C12.9425 15.4251 13.4451 14.1803 13.4451 12.827C13.4451 12.643 13.4358 12.4611 13.4176 12.2815ZM11.2668 11.1453C11.129 10.8597 10.9572 10.5911 10.7562 10.344C10.5551 10.5911 10.3833 10.8597 10.2455 11.1453C10.413 11.1629 10.5834 11.1719 10.7561 11.1719C10.9288 11.1719 11.0992 11.1629 11.2668 11.1453ZM9.86019 12.7684C10.1528 12.807 10.4519 12.827 10.7561 12.827C11.0602 12.827 11.3594 12.807 11.652 12.7684C11.6523 12.7879 11.6524 12.8074 11.6524 12.827C11.6524 13.7587 11.3189 14.6185 10.756 15.3102C10.1932 14.6186 9.85975 13.7588 9.85975 12.8272C9.85975 12.8076 9.8599 12.788 9.86019 12.7684ZM8.53474 10.6287C8.75747 10.1277 9.05405 9.66198 9.41194 9.24296C8.75267 8.89078 7.98722 8.68921 7.17077 8.68921C6.99807 8.68921 6.82766 8.69823 6.66005 8.71578C7.04922 9.52258 7.70981 10.1932 8.53474 10.6287ZM4.94936 9.23247C5.54685 10.5763 6.67571 11.667 8.09457 12.2815C8.07639 12.4611 8.06709 12.6432 8.06709 12.8272C8.06709 14.1803 8.5696 15.4251 9.4117 16.4111C8.75249 16.7632 7.98712 16.9648 7.17077 16.9648C4.69563 16.9648 2.68914 15.1122 2.68914 12.827C2.68914 11.288 3.5991 9.94532 4.94936 9.23247Z" fill="white"/>
</svg>
