<svg width="22" height="20" viewBox="0 0 22 20" fill="none" xmlns="http://www.w3.org/2000/svg">
<path d="M6.27409 12.8272C7.46353 12.8272 8.37428 13.0291 9.76619 13.5742L10.2787 13.781L10.8385 14.0178L11.6619 14.3731L12.136 14.5702C12.2112 14.6008 12.2847 14.6303 12.3566 14.6587L12.7687 14.8162C13.7549 15.1785 14.4286 15.3098 15.2374 15.3098C16.0873 15.3098 17.0322 15.1004 17.9856 14.7483C18.3256 14.6228 18.6416 14.4881 18.9239 14.3541L19.1647 14.2357L19.2578 14.1864C19.6823 13.9513 20.2329 14.0784 20.4876 14.4703C20.7423 14.8622 20.6046 15.3705 20.1801 15.6057L19.9372 15.7336L19.6353 15.8789C19.3604 16.0059 19.0287 16.1457 18.6514 16.2851C17.504 16.7088 16.3482 16.9649 15.2374 16.9649C14.0479 16.9649 13.1372 16.763 11.7453 16.2179L11.2328 16.011L10.6729 15.7743L9.84956 15.419L9.37546 15.2219C9.3002 15.1913 9.22672 15.1618 9.15489 15.1334L8.74271 14.9759C7.75656 14.6136 7.08283 14.4823 6.27409 14.4823C5.42418 14.4823 4.47923 14.6916 3.52585 15.0437C3.18585 15.1693 2.86988 15.304 2.58753 15.438L2.34674 15.5564L2.25361 15.6057C1.82913 15.8408 1.27855 15.7137 1.02386 15.3218C0.769175 14.9299 0.906819 14.4216 1.3313 14.1864L1.57428 14.0585L1.87612 13.9132C2.15099 13.7862 2.4827 13.6464 2.86008 13.507C4.00747 13.0833 5.16329 12.8272 6.27409 12.8272Z" fill="white"/>
<path d="M6.27409 7.86182C7.46353 7.86182 8.37428 8.06377 9.76619 8.60884L10.2787 8.8157L10.8385 9.05243L11.6619 9.40775L12.136 9.60488C12.2112 9.63547 12.2847 9.66494 12.3566 9.69332L12.7687 9.85082C13.7549 10.2132 14.4286 10.3445 15.2374 10.3445C16.0873 10.3445 17.0322 10.1351 17.9856 9.78301C18.3256 9.65744 18.6416 9.5228 18.9239 9.38873L19.1647 9.27035L19.2578 9.22108C19.6823 8.98594 20.2329 9.11302 20.4876 9.50493C20.7423 9.89685 20.6046 10.4052 20.1801 10.6403L19.9372 10.7683L19.6353 10.9136C19.3604 11.0406 19.0287 11.1804 18.6514 11.3197C17.504 11.7435 16.3482 11.9996 15.2374 11.9996C14.0479 11.9996 13.1372 11.7976 11.7453 11.2526L11.2328 11.0457L10.6729 10.809L9.84956 10.4537L9.37546 10.2565C9.3002 10.2259 9.22672 10.1965 9.15489 10.1681L8.74271 10.0106C7.75656 9.64824 7.08283 9.51693 6.27409 9.51693C5.42418 9.51693 4.47923 9.72632 3.52585 10.0784C3.18585 10.204 2.86988 10.3386 2.58753 10.4727L2.34674 10.5911L2.25361 10.6403C1.82913 10.8755 1.27855 10.7484 1.02386 10.3565C0.769175 9.96457 0.906819 9.45623 1.3313 9.22108L1.57428 9.09316L1.87612 8.94782C2.15099 8.82085 2.4827 8.68105 2.86008 8.54167C4.00747 8.11793 5.16329 7.86182 6.27409 7.86182Z" fill="white"/>
<path d="M6.27409 2.89648C7.46353 2.89648 8.37428 3.09843 9.76619 3.64351L10.2787 3.85036L10.8385 4.0871L11.6619 4.44242L12.136 4.63955C12.2112 4.67013 12.2847 4.6996 12.3566 4.72798L12.7687 4.88549C13.7549 5.24784 14.4286 5.37915 15.2374 5.37915C16.0873 5.37915 17.0322 5.16976 17.9856 4.81767C18.3256 4.69211 18.6416 4.55746 18.9239 4.4234L19.1647 4.30501L19.2578 4.25575C19.6823 4.0206 20.2329 4.14769 20.4876 4.5396C20.7423 4.93151 20.6046 5.43985 20.1801 5.675L19.9372 5.80292L19.6353 5.94826C19.3604 6.07523 19.0287 6.21504 18.6514 6.35441C17.504 6.77815 16.3482 7.03426 15.2374 7.03426C14.0479 7.03426 13.1372 6.83231 11.7453 6.28724L11.2328 6.08038L10.6729 5.84365L9.84956 5.48833L9.37546 5.2912C9.3002 5.26061 9.22672 5.23115 9.15489 5.20276L8.74271 5.04526C7.75656 4.6829 7.08283 4.5516 6.27409 4.5516C5.42418 4.5516 4.47923 4.76098 3.52585 5.11307C3.18585 5.23864 2.86988 5.37328 2.58753 5.50735L2.34674 5.62573L2.25361 5.675C1.82913 5.91014 1.27855 5.78306 1.02386 5.39115C0.769175 4.99923 0.906819 4.4909 1.3313 4.25575L1.57428 4.12783L1.87612 3.98248C2.15099 3.85552 2.4827 3.71571 2.86008 3.57634C4.00747 3.1526 5.16329 2.89648 6.27409 2.89648Z" fill="white"/>
</svg>
