<svg width="22" height="20" viewBox="0 0 22 20" fill="none" xmlns="http://www.w3.org/2000/svg">
<path fill-rule="evenodd" clip-rule="evenodd" d="M6.72251 4.55164C6.72251 2.49493 8.52835 0.827637 10.756 0.827637C12.9836 0.827637 14.7894 2.49493 14.7894 4.55164V9.93075C14.7894 11.9875 12.9836 13.6547 10.756 13.6547C8.52835 13.6547 6.72251 11.9875 6.72251 9.93075V4.55164ZM10.756 2.48275C9.51841 2.48275 8.51516 3.40902 8.51516 4.55164V9.93075C8.51516 11.0734 9.51841 11.9996 10.756 11.9996C11.9936 11.9996 12.9968 11.0734 12.9968 9.93075V4.55164C12.9968 3.40902 11.9936 2.48275 10.756 2.48275ZM4.03353 8.68941C4.52856 8.68941 4.92986 9.05992 4.92986 9.51697C4.92986 12.4878 7.53829 14.8961 10.756 14.8961C13.9737 14.8961 16.5821 12.4878 16.5821 9.51697C16.5821 9.05992 16.9834 8.68941 17.4784 8.68941C17.9735 8.68941 18.3748 9.05992 18.3748 9.51697C18.3748 13.1219 15.4377 16.0934 11.6523 16.503V18.2063C11.6523 18.6634 11.251 19.0339 10.756 19.0339C10.261 19.0339 9.85965 18.6634 9.85965 18.2063V16.503C6.07431 16.0934 3.13721 13.1219 3.13721 9.51697C3.13721 9.05992 3.53851 8.68941 4.03353 8.68941Z" fill="white"/>
</svg>
