<svg width="22" height="20" viewBox="0 0 22 20" fill="none" xmlns="http://www.w3.org/2000/svg">
<path fill-rule="evenodd" clip-rule="evenodd" d="M7.2654 2.11273C7.41723 1.83237 7.72759 1.65527 8.06709 1.65527H13.4451C13.7846 1.65527 14.0949 1.83237 14.2468 2.11273L15.3435 4.13794H18.3748C19.6124 4.13794 20.6157 5.06421 20.6157 6.20683V16.1375C20.6157 17.2801 19.6124 18.2064 18.3748 18.2064H3.1373C1.89973 18.2064 0.896484 17.2801 0.896484 16.1375V6.20683C0.896484 5.06421 1.89973 4.13794 3.1373 4.13794H6.16865L7.2654 2.11273ZM8.17289 4.13794H13.3393L12.8911 3.31038H8.62106L8.17289 4.13794ZM3.1373 5.79305C2.88979 5.79305 2.68914 5.97831 2.68914 6.20683V16.1375C2.68914 16.366 2.88979 16.5513 3.1373 16.5513H18.3748C18.6224 16.5513 18.823 16.366 18.823 16.1375V6.20683C18.823 5.97831 18.6224 5.79305 18.3748 5.79305H3.1373ZM6.27444 11.1722C6.27444 8.88692 8.28093 7.03438 10.7561 7.03438C13.2312 7.03438 15.2377 8.88692 15.2377 11.1722C15.2377 13.4574 13.2312 15.3099 10.7561 15.3099C8.28093 15.3099 6.27444 13.4574 6.27444 11.1722ZM10.7561 8.6895C9.27098 8.6895 8.06709 9.80101 8.06709 11.1722C8.06709 12.5433 9.27098 13.6548 10.7561 13.6548C12.2412 13.6548 13.4451 12.5433 13.4451 11.1722C13.4451 9.80101 12.2412 8.6895 10.7561 8.6895Z" fill="white"/>
</svg>
