<svg width="21" height="20" viewBox="0 0 21 20" fill="none" xmlns="http://www.w3.org/2000/svg">
<path fill-rule="evenodd" clip-rule="evenodd" d="M6.48472 6.1195C7.46672 5.19281 8.79859 4.6722 10.1873 4.6722C11.5761 4.6722 12.908 5.19281 13.89 6.1195C14.872 7.04619 15.4236 8.30305 15.4236 9.61358C15.4236 10.9241 14.872 12.181 13.89 13.1077C12.908 14.0344 11.5761 14.555 10.1873 14.555C8.79859 14.555 7.46672 14.0344 6.48472 13.1077C5.50273 12.181 4.95105 10.9241 4.95105 9.61358C4.95105 8.30305 5.50273 7.04619 6.48472 6.1195ZM8.88653 12.5771C9.29894 12.7383 9.74096 12.8213 10.1873 12.8213C11.0889 12.8213 11.9535 12.4834 12.5909 11.8818C13.2284 11.2802 13.5865 10.4643 13.5865 9.61358C13.5865 8.76284 13.2284 7.94694 12.5909 7.34538C11.9535 6.74381 11.0889 6.40585 10.1873 6.40585C9.74096 6.40585 9.29894 6.48882 8.88653 6.65003C8.47413 6.81123 8.09941 7.04751 7.78376 7.34538C7.46812 7.64324 7.21774 7.99686 7.04691 8.38604C6.87609 8.77522 6.78817 9.19234 6.78817 9.61358C6.78817 10.0348 6.87609 10.452 7.04691 10.8411C7.21774 11.2303 7.46812 11.5839 7.78376 11.8818C8.09941 12.1797 8.47413 12.4159 8.88653 12.5771Z" fill="white"/>
<path d="M16.5845 5.40841C16.8166 5.18936 16.947 4.89226 16.947 4.58248C16.947 4.27269 16.8166 3.97559 16.5845 3.75654C16.3523 3.53749 16.0375 3.41443 15.7092 3.41443C15.3809 3.41443 15.0661 3.53749 14.834 3.75654C14.6019 3.97559 14.4715 4.27269 14.4715 4.58248C14.4715 4.89226 14.6019 5.18936 14.834 5.40841C15.0661 5.62746 15.3809 5.75053 15.7092 5.75053C16.0375 5.75053 16.3523 5.62746 16.5845 5.40841Z" fill="white"/>
<path fill-rule="evenodd" clip-rule="evenodd" d="M5.98744 0.0576814C7.07409 0.0108954 7.42046 0 10.1873 0C12.9549 0 13.3006 0.0115362 14.3866 0.0576814C15.4712 0.104468 16.2128 0.267899 16.8607 0.504392C17.5402 0.745923 18.1558 1.12429 18.6646 1.61316C19.1828 2.0934 19.5838 2.67454 19.8395 3.31604C20.0915 3.92747 20.264 4.6267 20.3136 5.65022C20.3631 6.67567 20.3747 7.00253 20.3747 9.61358C20.3747 12.2246 20.3631 12.5515 20.3136 13.5769C20.264 14.6005 20.0915 15.2997 19.8402 15.9111C19.5842 16.5523 19.1833 17.1332 18.6653 17.6134C18.1559 18.103 17.5399 18.4811 16.8607 18.7221C16.2128 18.9599 15.4719 19.1227 14.3872 19.1695C13.3006 19.2163 12.9542 19.2272 10.1873 19.2272C7.42046 19.2272 7.07409 19.2163 5.98744 19.1695C4.90283 19.1227 4.16187 18.9599 3.51395 18.7228C2.83447 18.4812 2.21891 18.1029 1.71012 17.614C1.19124 17.1333 0.790538 16.552 0.535175 15.9111C0.283208 15.2997 0.110702 14.6005 0.061124 13.5769C0.0115457 12.5515 0 12.2253 0 9.61358C0 7.00189 0.0122247 6.67567 0.061124 5.65086C0.110702 4.62734 0.283887 3.92747 0.534496 3.31604C0.790442 2.67482 1.19139 2.09392 1.70944 1.6138C2.2188 1.12415 2.8348 0.746014 3.51395 0.505033C4.16187 0.267258 4.90283 0.104468 5.98744 0.0576814ZM14.3044 1.78813C13.23 1.74198 12.9074 1.73237 10.1873 1.73237C7.46732 1.73237 7.14472 1.74198 6.0703 1.78813C5.07737 1.83107 4.53812 1.98745 4.17885 2.11947C3.73632 2.27328 3.33598 2.51879 3.0073 2.83793C2.65143 3.1744 2.43002 3.49486 2.24597 3.94349C2.10538 4.28253 1.94035 4.79141 1.89485 5.72841C1.84595 6.74233 1.83576 7.04676 1.83576 9.61358C1.83576 12.1804 1.84595 12.4848 1.89485 13.4988C1.94035 14.4358 2.10606 14.9446 2.24597 15.2837C2.40905 15.7012 2.6692 16.079 3.0073 16.3892C3.33602 16.7083 3.73635 16.9538 4.17885 17.1077C4.53812 17.2404 5.07737 17.3961 6.0703 17.439C7.14472 17.4852 7.46664 17.4948 10.1873 17.4948C12.908 17.4948 13.23 17.4852 14.3044 17.439C15.2973 17.3961 15.8366 17.2397 16.1958 17.1077C16.6384 16.9539 17.0387 16.7084 17.3674 16.3892C17.7055 16.079 17.9657 15.7013 18.1287 15.2837C18.2693 14.9446 18.4343 14.4358 18.4798 13.4988C18.5287 12.4848 18.5389 12.1804 18.5389 9.61358C18.5389 7.04676 18.5287 6.74233 18.4798 5.72841C18.4343 4.79141 18.2686 4.28253 18.1287 3.94349C17.9447 3.49486 17.7239 3.1744 17.3674 2.83793C17.0108 2.50209 16.6713 2.29316 16.1958 2.11947C15.8366 1.98681 15.2973 1.83107 14.3044 1.78813Z" fill="white"/>
</svg>
