<svg width="22" height="20" viewBox="0 0 22 20" fill="none" xmlns="http://www.w3.org/2000/svg">
<path fill-rule="evenodd" clip-rule="evenodd" d="M0.896484 9.93075C0.896484 4.90324 5.31077 0.827637 10.7561 0.827637C16.2014 0.827637 20.6157 4.90324 20.6157 9.93075C20.6157 10.1502 20.5212 10.3607 20.3531 10.5159L11.3899 18.7915C11.0398 19.1147 10.4723 19.1147 10.1223 18.7915L1.15901 10.5159C0.990918 10.3607 0.896484 10.1502 0.896484 9.93075ZM2.92667 8.12939C2.95519 8.11384 2.98355 8.09862 3.01174 8.08374C3.53653 7.80687 4.09615 7.59855 4.64476 7.59855C5.19337 7.59855 5.75299 7.80687 6.27777 8.08374C6.64665 8.27836 7.04297 8.53109 7.46518 8.83617C8.48406 8.05238 9.58292 7.59855 10.7561 7.59855C11.9292 7.59855 13.0281 8.05238 14.047 8.83617C14.4692 8.53109 14.8655 8.27836 15.2344 8.08374C15.7592 7.80687 16.3188 7.59855 16.8674 7.59855C17.416 7.59855 17.9756 7.80687 18.5004 8.08374C18.5286 8.09862 18.557 8.11384 18.5855 8.1294C17.713 4.88629 14.5386 2.48275 10.7561 2.48275C6.97359 2.48275 3.79914 4.88629 2.92667 8.12939ZM18.3806 9.9964C18.0931 9.79745 17.8369 9.63995 17.611 9.52078C17.1851 9.2961 16.9525 9.25366 16.8674 9.25366C16.7822 9.25366 16.5496 9.2961 16.1238 9.52078C15.7563 9.71466 15.3084 10.01 14.7764 10.4203L12.9792 14.9834L18.3806 9.9964ZM10.7561 15.7847L12.9703 10.1628C12.1491 9.51144 11.4131 9.25366 10.7561 9.25366C10.099 9.25366 9.36303 9.51144 8.54183 10.1628L10.7561 15.7847ZM6.73576 10.4203C6.20379 10.01 5.75585 9.71466 5.38837 9.52078C4.9625 9.2961 4.72992 9.25366 4.64476 9.25366C4.5596 9.25366 4.32701 9.2961 3.90115 9.52078C3.67528 9.63995 3.41901 9.79745 3.13152 9.9964L8.53298 14.9834L6.73576 10.4203Z" fill="white"/>
</svg>
