<svg width="22" height="20" viewBox="0 0 22 20" fill="none" xmlns="http://www.w3.org/2000/svg">
<path fill-rule="evenodd" clip-rule="evenodd" d="M18.9295 1.00533C19.145 1.16225 19.2708 1.40174 19.2708 1.6552V5.00027C19.2711 5.01202 19.2711 5.02374 19.2708 5.03542V14.234C19.2708 15.5138 18.1472 16.5512 16.7611 16.5512H15.0133C13.652 16.5512 12.5484 15.5323 12.5484 14.2754C12.5484 13.0185 13.652 11.9996 15.0133 11.9996H17.4782V6.06351L8.06676 8.1208V15.8892C8.06676 17.1689 6.94312 18.2063 5.55705 18.2063H4.25738C2.89605 18.2063 1.79248 17.1874 1.79248 15.9305C1.79248 14.6737 2.89605 13.6548 4.25738 13.6548H6.27411V7.48315C6.27384 7.47142 6.27384 7.45971 6.27411 7.44804V4.13787C6.27411 3.75522 6.55825 3.42246 6.96126 3.33316L18.1653 0.850495C18.4323 0.791344 18.7139 0.8484 18.9295 1.00533ZM8.06676 6.41993L17.4782 4.36264V2.70487L8.06676 4.79031V6.41993ZM6.27411 15.3099H4.25738C3.88611 15.3099 3.58513 15.5877 3.58513 15.9305C3.58513 16.2733 3.88611 16.5512 4.25738 16.5512H5.55705C5.95306 16.5512 6.27411 16.2548 6.27411 15.8892V15.3099ZM17.4782 13.6548H15.0133C14.642 13.6548 14.341 13.9326 14.341 14.2754C14.341 14.6182 14.642 14.8961 15.0133 14.8961H16.7611C17.1571 14.8961 17.4782 14.5997 17.4782 14.234V13.6548Z" fill="white"/>
</svg>
