<svg width="22" height="20" viewBox="0 0 22 20" fill="none" xmlns="http://www.w3.org/2000/svg">
<path fill-rule="evenodd" clip-rule="evenodd" d="M10.7561 0.827637C5.31077 0.827637 0.896484 4.90324 0.896484 9.93075C0.896484 14.9583 5.31077 19.0339 10.7561 19.0339C16.2014 19.0339 20.6157 14.9583 20.6157 9.93075C20.6157 4.90324 16.2014 0.827637 10.7561 0.827637ZM13.6282 12.6778C14.8499 11.6185 16.563 10.797 18.776 10.7394C18.3719 14.1949 15.4081 16.942 11.6708 17.3314C11.7898 15.1813 12.4824 13.6713 13.6282 12.6778ZM9.8761 17.3349C9.99736 14.859 10.7973 12.8619 12.401 11.4714C13.921 10.1534 16.0609 9.14303 18.7714 9.08373C18.3479 5.62934 15.365 2.89119 11.6156 2.52453C11.4409 5.00265 10.6734 7.00872 9.20417 8.43417C7.71032 9.88342 5.50258 10.6089 2.73619 10.7399C3.14175 14.2058 6.12263 16.959 9.8761 17.3349ZM9.81824 2.53254C9.64644 4.70383 8.97434 6.25626 7.90556 7.29318C6.85221 8.31508 5.18056 8.95308 2.74091 9.08227C3.16214 5.65265 6.10621 2.92934 9.81824 2.53254Z" fill="white"/>
</svg>
