<svg width="22" height="20" viewBox="0 0 22 20" fill="none" xmlns="http://www.w3.org/2000/svg">
<path fill-rule="evenodd" clip-rule="evenodd" d="M20.5935 1.47322C20.7022 1.91912 20.3988 2.36193 19.9158 2.46225L15.2374 3.43413V9.10288H19.719C20.2141 9.10288 20.6154 9.47339 20.6154 9.93044C20.6154 12.3775 19.8145 14.6617 18.1375 16.3428C16.4495 18.035 13.9555 19.0336 10.7558 19.0336C7.55605 19.0336 5.06207 18.035 3.37403 16.3428C1.6971 14.6617 0.89619 12.3775 0.89619 9.93044C0.89619 9.47339 1.29749 9.10288 1.79252 9.10288H2.68884V6.04093L1.98927 6.18625C1.50632 6.28658 1.02672 6.00644 0.918052 5.56054C0.809387 5.11464 1.11281 4.67184 1.59576 4.57151L2.68884 4.34444V4.13755C2.68884 3.6805 3.09014 3.30999 3.58517 3.30999C4.02017 3.30999 4.38279 3.59609 4.46434 3.9756L6.27415 3.59964V3.30999C6.27415 2.85295 6.67545 2.48244 7.17047 2.48244C7.63558 2.48244 8.01795 2.80952 8.06247 3.22814L9.85945 2.85484V2.48244C9.85945 2.02539 10.2608 1.65488 10.7558 1.65488C11.2508 1.65488 11.6521 2.02539 11.6521 2.48244L13.4448 2.11004V1.65488C13.4448 1.19784 13.8461 0.827328 14.3411 0.827328C14.8361 0.827328 15.2374 1.19784 15.2374 1.65488V1.73764L19.5223 0.847512C20.0052 0.747185 20.4848 1.02733 20.5935 1.47322ZM13.4448 3.80653L11.6521 4.17893V9.10288H13.4448V3.80653ZM2.72502 10.758C2.88291 12.5346 3.55514 14.0812 4.69265 15.2215C5.99236 16.5244 7.98002 17.3784 10.7558 17.3784C13.5315 17.3784 15.5192 16.5244 16.8189 15.2215C17.9564 14.0812 18.6287 12.5346 18.7865 10.758H2.72502ZM4.4815 9.10288H6.27415V5.29613L4.4815 5.66853V9.10288ZM8.0668 4.92373V9.10288H9.85945V4.55133L8.0668 4.92373Z" fill="white"/>
</svg>
