<svg width="22" height="20" viewBox="0 0 22 20" fill="none" xmlns="http://www.w3.org/2000/svg">
<path fill-rule="evenodd" clip-rule="evenodd" d="M12.9968 4.13766C12.9968 2.53799 14.4013 1.24121 16.1339 1.24121C17.8665 1.24121 19.271 2.53799 19.271 4.13766C19.271 5.73731 17.8665 7.0341 16.1339 7.0341C14.4013 7.0341 12.9968 5.73731 12.9968 4.13766ZM16.1339 2.89632C15.3914 2.89632 14.7894 3.45209 14.7894 4.13766C14.7894 4.82321 15.3914 5.37899 16.1339 5.37899C16.8764 5.37899 17.4784 4.82321 17.4784 4.13766C17.4784 3.45209 16.8764 2.89632 16.1339 2.89632ZM8.67141 5.00993C8.89406 4.93876 9.13812 4.95138 9.35076 5.04509L14.2792 7.21684C14.5626 7.34173 14.7545 7.59446 14.7851 7.88302C14.8158 8.17159 14.6806 8.4539 14.4288 8.62718L10.5256 11.3136L14.3859 13.6599C14.5925 13.7854 14.7337 13.9842 14.7761 14.2092C14.8186 14.4341 14.7584 14.6653 14.6099 14.8479L11.4765 18.7021C11.1793 19.0676 10.6175 19.1415 10.2216 18.8671C9.82568 18.5927 9.74565 18.074 10.0428 17.7085L12.6039 14.5583L8.47184 12.0469C8.22771 11.8985 8.07727 11.6496 8.06874 11.3798C8.06021 11.1101 8.19465 10.8535 8.42898 10.6922L12.1665 8.11983L8.91047 6.68503L5.67126 7.72056C5.20348 7.87011 4.69297 7.64122 4.531 7.20933C4.36903 6.77744 4.61694 6.3061 5.08472 6.15655L8.67141 5.00993ZM20.3723 6.66016C20.7113 6.99325 20.6936 7.51697 20.3329 7.82994L17.6447 10.162C17.3627 10.4066 16.9426 10.4566 16.6027 10.2859L15.4008 9.68244C14.966 9.46408 14.8051 8.96158 15.0416 8.56007C15.2781 8.15855 15.8224 8.01008 16.2573 8.22843L16.8896 8.54592L19.1054 6.62374C19.4661 6.31077 20.0334 6.32708 20.3723 6.66016ZM8.09311 12.3935C8.48739 12.6699 8.56436 13.189 8.26504 13.5531L6.93413 15.1717C6.85975 15.2621 6.766 15.3375 6.65871 15.393L2.23292 17.685C1.80118 17.9086 1.25486 17.7667 1.01269 17.3681C0.770518 16.9695 0.924199 16.4651 1.35595 16.2415L5.61908 14.0337L6.83722 12.5523C7.13655 12.1882 7.69883 12.1172 8.09311 12.3935Z" fill="#C1CAD5"/>
</svg>
