<svg width="22" height="20" viewBox="0 0 22 20" fill="none" xmlns="http://www.w3.org/2000/svg">
<path d="M7.17077 9.93075C7.6658 9.93075 8.06709 10.3013 8.06709 10.7583V11.5859H8.96342C9.45845 11.5859 9.85975 11.9564 9.85975 12.4134C9.85975 12.8705 9.45845 13.241 8.96342 13.241H8.06709V14.0685C8.06709 14.5256 7.6658 14.8961 7.17077 14.8961C6.67574 14.8961 6.27444 14.5256 6.27444 14.0685V13.241H5.37812C4.88309 13.241 4.48179 12.8705 4.48179 12.4134C4.48179 11.9564 4.88309 11.5859 5.37812 11.5859H6.27444V10.7583C6.27444 10.3013 6.67574 9.93075 7.17077 9.93075Z" fill="white"/>
<path fill-rule="evenodd" clip-rule="evenodd" d="M14.3414 9.93075C12.8563 9.93075 11.6524 11.0423 11.6524 12.4134C11.6524 13.7846 12.8563 14.8961 14.3414 14.8961C15.8265 14.8961 17.0304 13.7846 17.0304 12.4134C17.0304 11.0423 15.8265 9.93075 14.3414 9.93075ZM13.4451 12.4134C13.4451 11.9564 13.8464 11.5859 14.3414 11.5859C14.8364 11.5859 15.2377 11.9564 15.2377 12.4134C15.2377 12.8705 14.8364 13.241 14.3414 13.241C13.8464 13.241 13.4451 12.8705 13.4451 12.4134Z" fill="white"/>
<path fill-rule="evenodd" clip-rule="evenodd" d="M14.3414 0.827637C14.8364 0.827637 15.2377 1.19815 15.2377 1.65519V4.01964C15.2377 4.47668 14.8364 4.84719 14.3414 4.84719H11.6524V6.62053H14.3414C17.8066 6.62053 20.6157 9.21409 20.6157 12.4134C20.6157 15.6127 17.8066 18.2063 14.3414 18.2063H7.17077C3.70558 18.2063 0.896484 15.6127 0.896484 12.4134C0.896484 9.21409 3.70558 6.62053 7.17077 6.62053H9.85975V4.01964C9.85975 3.56259 10.261 3.19208 10.7561 3.19208H13.4451V1.65519C13.4451 1.19815 13.8464 0.827637 14.3414 0.827637ZM7.17077 8.27564C4.69563 8.27564 2.68914 10.1282 2.68914 12.4134C2.68914 14.6986 4.69563 16.5512 7.17077 16.5512H14.3414C16.8165 16.5512 18.823 14.6986 18.823 12.4134C18.823 10.1282 16.8165 8.27564 14.3414 8.27564H7.17077Z" fill="white"/>
</svg>
