<svg width="22" height="20" viewBox="0 0 22 20" fill="none" xmlns="http://www.w3.org/2000/svg">
<path fill-rule="evenodd" clip-rule="evenodd" d="M0.896484 9.93075C0.896484 4.90324 5.31077 0.827637 10.7561 0.827637C16.2014 0.827637 20.6157 4.90324 20.6157 9.93075C20.6157 10.8368 20.0509 11.4258 19.3854 11.7818C18.7707 12.1106 17.9893 12.291 17.2973 12.4293C17.0766 12.4734 16.863 12.5137 16.6557 12.5527C16.1597 12.6462 15.7 12.7328 15.2668 12.8491C14.6455 13.016 14.2893 13.1953 14.116 13.376L13.4451 12.8272L14.116 13.376C13.8597 13.643 13.6954 14.0241 13.5883 14.5443C13.5119 14.9153 13.4762 15.2803 13.4374 15.6759C13.4196 15.8588 13.401 16.0483 13.3775 16.2479C13.3116 16.808 13.2019 17.495 12.8338 18.0427C12.6363 18.3367 12.3614 18.5975 11.9868 18.7785C11.6173 18.9571 11.2011 19.0339 10.7561 19.0339C5.31077 19.0339 0.896484 14.9583 0.896484 9.93075ZM10.7561 2.48275C6.30083 2.48275 2.68914 5.81733 2.68914 9.93075C2.68914 14.0442 6.30083 17.3787 10.7561 17.3787C10.9789 17.3787 11.0962 17.3408 11.1555 17.3122C11.2098 17.2859 11.259 17.2468 11.3105 17.1702C11.4405 16.9768 11.5282 16.6399 11.5954 16.0691C11.6115 15.932 11.6265 15.779 11.6425 15.6163C11.6847 15.1868 11.7336 14.6894 11.8272 14.2351C11.9609 13.5862 12.2093 12.8671 12.7741 12.2784C13.3014 11.729 14.0797 11.4442 14.7662 11.2599C15.2746 11.1233 15.8474 11.0154 16.3709 10.9167C16.5617 10.8808 16.7458 10.8461 16.918 10.8117C17.6194 10.6715 18.1439 10.5331 18.4867 10.3497C18.7786 10.1935 18.823 10.0768 18.823 9.93075C18.823 5.81733 15.2113 2.48275 10.7561 2.48275ZM10.3079 5.79297C10.3079 4.65034 11.3111 3.72408 12.5487 3.72408C13.7863 3.72408 14.7895 4.65034 14.7895 5.79297C14.7895 6.93561 13.7863 7.86186 12.5487 7.86186C11.3111 7.86186 10.3079 6.93561 10.3079 5.79297ZM12.5487 5.37919C12.3012 5.37919 12.1006 5.56443 12.1006 5.79297C12.1006 6.02151 12.3012 6.20675 12.5487 6.20675C12.7963 6.20675 12.9969 6.02151 12.9969 5.79297C12.9969 5.56443 12.7963 5.37919 12.5487 5.37919ZM4.92995 7.44808C4.92995 6.30545 5.93318 5.37919 7.17077 5.37919C8.40836 5.37919 9.41158 6.30545 9.41158 7.44808C9.41158 8.59072 8.40836 9.51697 7.17077 9.51697C5.93318 9.51697 4.92995 8.59072 4.92995 7.44808ZM7.17077 7.0343C6.92323 7.0343 6.72261 7.21954 6.72261 7.44808C6.72261 7.67662 6.92323 7.86186 7.17077 7.86186C7.4183 7.86186 7.61893 7.67662 7.61893 7.44808C7.61893 7.21954 7.4183 7.0343 7.17077 7.0343ZM5.37812 12.8272C5.37812 11.6846 6.38134 10.7583 7.61893 10.7583C8.85652 10.7583 9.85975 11.6846 9.85975 12.8272C9.85975 13.9698 8.85652 14.8961 7.61893 14.8961C6.38134 14.8961 5.37812 13.9698 5.37812 12.8272ZM7.61893 12.4134C7.3714 12.4134 7.17077 12.5987 7.17077 12.8272C7.17077 13.0557 7.3714 13.241 7.61893 13.241C7.86647 13.241 8.06709 13.0557 8.06709 12.8272C8.06709 12.5987 7.86647 12.4134 7.61893 12.4134Z" fill="white"/>
</svg>
