<svg width="21" height="21" viewBox="0 0 21 21" fill="none" xmlns="http://www.w3.org/2000/svg">
<path d="M20.3747 1.47802V18.6231C20.3747 19.0151 20.2169 19.391 19.9359 19.6682C19.6549 19.9454 19.2739 20.1011 18.8766 20.1011H1.49814C1.10081 20.1011 0.71975 19.9454 0.438795 19.6682C0.157839 19.391 0 19.0151 0 18.6231L0 1.47802C0 1.08603 0.157839 0.710086 0.438795 0.432903C0.71975 0.15572 1.10081 0 1.49814 0L18.8766 0C19.2739 0 19.6549 0.15572 19.9359 0.432903C20.2169 0.710086 20.3747 1.08603 20.3747 1.47802V1.47802ZM5.99256 7.68572H2.99628V17.1451H5.99256V7.68572ZM6.26222 4.43407C6.2638 4.21047 6.22072 3.98875 6.13545 3.78158C6.05017 3.5744 5.92436 3.38583 5.76522 3.22662C5.60607 3.06741 5.41669 2.94069 5.2079 2.85369C4.99911 2.76669 4.77499 2.72111 4.54835 2.71956H4.49442C4.03351 2.71956 3.59149 2.9002 3.26558 3.22173C2.93967 3.54326 2.75658 3.97936 2.75658 4.43407C2.75658 4.88879 2.93967 5.32488 3.26558 5.64641C3.59149 5.96794 4.03351 6.14858 4.49442 6.14858V6.14858C4.72108 6.15408 4.94661 6.11547 5.15814 6.03494C5.36967 5.95442 5.56304 5.83357 5.72721 5.67929C5.89138 5.52501 6.02313 5.34033 6.11493 5.1358C6.20673 4.93127 6.25678 4.7109 6.26222 4.48728V4.43407ZM17.3784 11.3985C17.3784 8.5548 15.5447 7.44924 13.723 7.44924C13.1265 7.41977 12.5326 7.54511 12.0005 7.81275C11.4685 8.08039 11.0169 8.48098 10.6907 8.97456H10.6068V7.68572H7.79032V17.1451H10.7866V12.1139C10.7433 11.5986 10.9078 11.0873 11.2444 10.691C11.581 10.2947 12.0626 10.0454 12.5844 9.99735H12.6982C13.651 9.99735 14.3582 10.5886 14.3582 12.0784V17.1451H17.3544L17.3784 11.3985Z" fill="white"/>
</svg>
