<svg width="32" height="32" viewBox="0 0 32 32" fill="none" xmlns="http://www.w3.org/2000/svg">
<path fill-rule="evenodd" clip-rule="evenodd" d="M4.33331 13.5244C4.33331 6.99238 9.54 1.66669 16 1.66669C22.46 1.66669 27.6666 6.99238 27.6666 13.5244C27.6666 16.6779 26.7679 20.0639 25.1792 22.9892C23.5925 25.9108 21.2742 28.4496 18.374 29.8052C16.8674 30.5094 15.1326 30.5094 13.626 29.8052C10.7258 28.4496 8.40747 25.9108 6.82072 22.9892C5.23202 20.0639 4.33331 16.6779 4.33331 13.5244ZM16 3.66669C10.6779 3.66669 6.33331 8.06333 6.33331 13.5244C6.33331 16.3205 7.13682 19.3806 8.57825 22.0347C10.0216 24.6924 12.0613 26.8662 14.4728 27.9934C15.4427 28.4467 16.5572 28.4467 17.5271 27.9934C19.9386 26.8662 21.9783 24.6924 23.4217 22.0347C24.8631 19.3806 25.6666 16.3205 25.6666 13.5244C25.6666 8.06333 21.3221 3.66669 16 3.66669ZM16 10.3334C14.3431 10.3334 13 11.6765 13 13.3334C13 14.9902 14.3431 16.3334 16 16.3334C17.6568 16.3334 19 14.9902 19 13.3334C19 11.6765 17.6568 10.3334 16 10.3334ZM11 13.3334C11 10.5719 13.2386 8.33335 16 8.33335C18.7614 8.33335 21 10.5719 21 13.3334C21 16.0948 18.7614 18.3334 16 18.3334C13.2386 18.3334 11 16.0948 11 13.3334Z" fill="#999999"/>
</svg>
