<svg width="14" height="14" viewBox="0 0 14 14" fill="none" xmlns="http://www.w3.org/2000/svg">
<g clip-path="url(#clip0_203_659)">
<path d="M7.02685 1.09388C6.87564 1.09279 6.75232 1.21447 6.75123 1.3654C6.75013 1.51634 6.87154 1.63966 7.02275 1.64076C7.17369 1.64185 7.29701 1.52044 7.2981 1.3695C7.2992 1.21857 7.17779 1.09525 7.02685 1.09388Z" fill="white"/>
<path d="M7.01439 2.73449C5.95862 2.72699 5.09398 3.57872 5.08599 4.63417C5.07804 5.68956 5.93023 6.55461 6.98568 6.56256C6.99057 6.56259 6.99544 6.56262 7.00033 6.56262C8.04905 6.56262 8.90614 5.71343 8.91407 4.66288C8.92203 3.60755 8.06986 2.74244 7.01439 2.73449ZM7.00028 6.01577C6.99683 6.01577 6.99322 6.01574 6.98978 6.01571C6.23588 6.01003 5.62715 5.39211 5.63284 4.63827C5.6385 3.88782 6.25067 3.28128 6.99979 3.28128C7.00323 3.28128 7.00684 3.28131 7.01029 3.28133C7.76418 3.28702 8.37291 3.90494 8.36722 4.65878C8.36153 5.40923 7.74939 6.01577 7.00028 6.01577Z" fill="white"/>
<path d="M8.193 1.30126C8.05076 1.25078 7.89438 1.32529 7.84391 1.46764C7.79346 1.61 7.86797 1.76627 8.01029 1.81674C9.21471 2.24361 10.0174 3.39071 10.0078 4.67113C10.0066 4.82213 10.1281 4.94547 10.2791 4.94662C10.2798 4.94662 10.2805 4.94662 10.2813 4.94662C10.4313 4.94662 10.5535 4.82554 10.5546 4.67524C10.566 3.16184 9.61693 1.80594 8.193 1.30126Z" fill="white"/>
<path d="M8.67784 10.2934C10.4966 7.95232 11.6332 6.73155 11.6485 4.68339C11.6678 2.10643 9.57644 0 6.99967 0C4.45298 0 2.37108 2.06249 2.35172 4.61367C2.33608 6.71736 3.49379 7.93646 5.32506 10.293C3.50328 10.5652 2.35172 11.2493 2.35172 12.086C2.35172 12.6464 2.86977 13.1494 3.81048 13.5021C4.6667 13.8232 5.79947 14 7.00011 14C8.20075 14 9.33352 13.8232 10.1897 13.5021C11.1304 13.1493 11.6485 12.6464 11.6485 12.0859C11.6485 11.2497 10.498 10.5658 8.67784 10.2934ZM2.89857 4.61779C2.91563 2.36661 4.75245 0.546876 6.99973 0.546876C9.27361 0.546876 11.1186 2.40593 11.1017 4.67932C11.0871 6.62439 9.88174 7.82306 7.95736 10.3317C7.61412 10.7789 7.2989 11.2017 7.00052 11.6154C6.70302 11.2015 6.39409 10.7862 6.0457 10.3315C4.04178 7.71787 2.88375 6.60979 2.89857 4.61779ZM7.00011 13.4532C4.65262 13.4532 2.89857 12.7314 2.89857 12.086C2.89857 11.6073 3.94715 11.0027 5.71022 10.7933C6.09995 11.3047 6.44164 11.7693 6.77677 12.2437C6.82795 12.3162 6.91113 12.3593 6.99986 12.3594C6.99995 12.3594 7.00003 12.3594 7.00011 12.3594C7.08876 12.3594 7.17191 12.3164 7.22318 12.2441C7.55513 11.7758 7.90617 11.2998 8.29257 10.7936C10.054 11.0032 11.1017 11.6077 11.1017 12.086C11.1016 12.7314 9.3476 13.4532 7.00011 13.4532Z" fill="white"/>
</g>
<defs>
<clipPath id="clip0_203_659">
<rect width="14" height="14" fill="white"/>
</clipPath>
</defs>
</svg>
