<svg width="23" height="23" viewBox="0 0 23 23" fill="none" xmlns="http://www.w3.org/2000/svg">
<path d="M14.3554 11.6937L15.6617 10.3874C15.7568 10.743 15.8125 11.1148 15.8125 11.5C15.8125 13.878 13.878 15.8125 11.5 15.8125C11.1147 15.8125 10.743 15.7568 10.3874 15.6618L11.6937 14.3555C13.122 14.2581 14.258 13.1221 14.3554 11.6937ZM22.9094 11.1509C22.821 10.9919 21.5672 8.79485 19.1162 6.93293L18.0703 7.97889C19.8574 9.29294 20.9898 10.8255 21.4356 11.5011C20.5837 12.7983 17.2419 17.25 11.5 17.25C10.6389 17.25 9.83825 17.1399 9.08482 16.9642L7.90373 18.1452C8.98959 18.4782 10.1831 18.6875 11.5 18.6875C19.0241 18.6875 22.7544 12.1282 22.9094 11.8492C23.0302 11.6319 23.0302 11.3682 22.9094 11.1509ZM19.9144 4.10195L4.10191 19.9145C3.96157 20.0548 3.77757 20.125 3.59375 20.125C3.40993 20.125 3.22593 20.0548 3.08559 19.9145C2.80474 19.6336 2.80474 19.1788 3.08559 18.8981L5.09738 16.8864C1.84503 14.9229 0.192445 12.0326 0.0905625 11.8492C-0.0301875 11.6319 -0.0301875 11.368 0.0905625 11.1507C0.245633 10.8719 3.97595 4.31254 11.5 4.31254C13.4455 4.31254 15.1306 4.75637 16.5711 5.41259L18.8981 3.08564C19.1789 2.80479 19.6337 2.80479 19.9144 3.08564C20.1951 3.36649 20.1953 3.82128 19.9144 4.10195ZM6.16921 15.8145L7.98891 13.9948C7.48632 13.2897 7.1875 12.4299 7.1875 11.5C7.1875 9.12206 9.12202 7.18754 11.5 7.18754C12.4299 7.18754 13.2897 7.48637 13.9948 7.98877L15.4662 6.51731C14.3037 6.05174 12.9826 5.75004 11.5 5.75004C5.75809 5.75004 2.41626 10.2018 1.56454 11.499C2.1054 12.3187 3.66005 14.3937 6.16921 15.8145ZM9.03235 12.9512L12.9512 9.0324C12.5237 8.77993 12.0315 8.62504 11.5 8.62504C9.9148 8.62504 8.625 9.91484 8.625 11.5C8.625 12.0316 8.77989 12.5237 9.03235 12.9512Z" fill="#535353"/>
</svg>
