<svg width="129" height="40" viewBox="0 0 129 40" fill="none" xmlns="http://www.w3.org/2000/svg">
<path d="M29.1791 40H9.89115C8.71984 40 7.57974 39.8187 6.50356 39.4396C11.88 38.2995 16.7124 35.3579 20.369 31.4143C20.4062 31.3727 20.4493 31.3311 20.4865 31.285C20.5697 31.4738 20.6604 31.6641 20.7555 31.8499C20.9978 32.3315 21.2668 32.8012 21.5552 33.259C21.9878 33.9532 22.4679 34.6117 22.9911 35.233C24.7154 37.2947 26.8454 38.9238 29.1791 40Z" fill="#053853"/>
<path d="M39.4103 39.4723L35.9172 39.9985C34.9807 39.9985 34.0264 39.896 33.0721 39.6908C29.5448 38.9744 26.4069 36.9543 24.1565 34.2609C23.4861 33.4656 22.8989 32.6095 22.398 31.7072V31.7027C22.2955 31.5244 22.2003 31.346 22.1097 31.1646C21.9209 30.7856 21.7425 30.3991 21.5864 30.0082C21.8183 29.7243 22.0413 29.4329 22.2613 29.1401C22.5154 29.4433 22.7771 29.7466 23.0416 30.0379C23.4014 30.4393 23.773 30.8302 24.155 31.2092C24.5147 31.5689 24.8819 31.9212 25.2579 32.2587C29.1301 35.7785 33.909 38.356 39.1383 39.4173C39.2289 39.4367 39.3196 39.4545 39.4118 39.4708L39.4103 39.4723Z" fill="#053853"/>
<path d="M20.7555 31.8484C20.9978 32.33 21.2668 32.7997 21.5552 33.2575C21.3427 33.6024 21.1152 33.9353 20.87 34.2624C18.8425 36.9751 15.8384 39.0368 12.427 39.7265C11.5783 39.9078 10.7295 40 9.89264 40C8.72133 40 7.58123 39.8187 6.50505 39.4396C5.53143 39.0992 4.60687 38.6028 3.76852 37.9309C-1.61684 33.5875 -0.775517 24.9944 3.42813 20.0862C7.54258 15.0085 14.6225 14.0275 19.4192 17.8729C19.7685 18.1494 20.1045 18.4571 20.424 18.7856C20.2234 19.1914 20.045 19.6046 19.8904 20.0208C18.56 23.5897 18.7726 27.5689 20.4894 31.2821C20.5727 31.4708 20.6634 31.6611 20.7585 31.8469L20.7555 31.8484Z" fill="url(#paint0_linear_928_2)"/>
<path d="M23.5827 26.9223C23.5411 27.9792 23.3553 29.0256 23.0401 30.0409C22.9227 30.4199 22.786 30.7945 22.6343 31.1661C22.6195 31.2003 22.6076 31.2345 22.5883 31.2687C22.5273 31.4158 22.4634 31.56 22.395 31.7042C22.2925 31.5258 22.1973 31.3475 22.1067 31.1661C21.9179 30.7871 21.7395 30.4006 21.5834 30.0097C20.3631 27.013 20.1356 23.6849 21.307 20.5515C21.3679 20.388 21.4318 20.2259 21.5047 20.0669C21.5388 20.113 21.5686 20.1576 21.6028 20.2036L21.6176 20.2259C21.6934 20.3359 21.7648 20.4415 21.8376 20.5515C22.8424 22.1241 23.388 23.7949 23.5396 25.4701C23.5857 25.9547 23.5961 26.4407 23.5812 26.9209L23.5827 26.9223Z" fill="url(#paint1_linear_928_2)"/>
<path d="M42.7934 37.6812C41.7633 38.5032 40.6217 39.0977 39.4103 39.4738C38.2925 39.8305 37.1212 40 35.9172 40C34.9807 40 34.0264 39.8974 33.0721 39.6923C29.5448 38.9758 26.4069 36.9558 24.1565 34.2624C23.4861 33.4671 22.8989 32.6109 22.398 31.7087V31.7042C22.2955 31.5258 22.2003 31.3475 22.1097 31.1661C21.9209 30.7871 21.7425 30.4006 21.5864 30.0097C20.3661 27.013 20.1386 23.6849 21.3099 20.5515C21.3709 20.388 21.4348 20.2259 21.5076 20.0669C21.8183 19.3207 22.2196 18.5849 22.7057 17.8729C22.7206 17.8506 22.7399 17.8239 22.7548 17.8016L22.7696 17.7748C27.8696 10.5938 37.7901 10.9922 43.1784 17.6425C47.8964 23.1527 48.8402 32.7997 42.7964 37.6797L42.7934 37.6812Z" fill="white"/>
<path d="M42.7934 37.6812C41.7633 38.5032 40.6217 39.0977 39.4103 39.4738C38.2925 39.8305 37.1212 40 35.9172 40C34.9807 40 34.0264 39.8974 33.0721 39.6923C29.5448 38.9758 26.4069 36.9558 24.1565 34.2624C23.4861 33.4671 22.8989 32.6109 22.398 31.7087V31.7042C22.2955 31.5258 22.2003 31.3475 22.1097 31.1661C21.9209 30.7871 21.7425 30.4006 21.5864 30.0097C20.3661 27.013 20.1386 23.6849 21.3099 20.5515C21.3709 20.388 21.4348 20.2259 21.5076 20.0669C21.8183 19.3207 22.2196 18.5849 22.7057 17.8729C22.7206 17.8506 22.7399 17.8239 22.7548 17.8016L22.7696 17.7748C27.8696 10.5938 37.7901 10.9922 43.1784 17.6425C47.8964 23.1527 48.8402 32.7997 42.7964 37.6797L42.7934 37.6812Z" fill="url(#paint2_linear_928_2)"/>
<path d="M29.9699 8.877C32.4213 8.877 34.4084 6.88981 34.4084 4.4385C34.4084 1.98718 32.4213 0 29.9699 0C27.5186 0 25.5314 1.98718 25.5314 4.4385C25.5314 6.88981 27.5186 8.877 29.9699 8.877Z" fill="url(#paint3_linear_928_2)"/>
<path d="M12.803 12.8948C15.2544 12.8948 17.2415 10.9076 17.2415 8.45632C17.2415 6.00501 15.2544 4.01782 12.803 4.01782C10.3517 4.01782 8.36455 6.00501 8.36455 8.45632C8.36455 10.9076 10.3517 12.8948 12.803 12.8948Z" fill="url(#paint4_linear_928_2)"/>
<path d="M64.5979 22.5804C66.065 21.5578 66.9063 20.4816 66.9063 18.8287C66.9063 16.3121 65.3337 14.0587 60.5592 14.0587H54.1899V32.4147H60.5592C65.5418 32.4147 67.7179 30.0007 67.7179 27.1438C67.7179 25.4388 67.275 24.0475 64.5994 22.5819L64.5979 22.5804ZM56.8105 16.4191H60.5578C62.8127 16.4191 64.097 17.3363 64.097 18.9089C64.097 20.929 62.8394 21.7123 60.5578 21.7123H56.8105V16.4191ZM60.5578 30.0527H56.8105V23.945H60.5578C62.8394 23.945 64.8848 24.9156 64.8848 27.2226C64.8848 29.1624 62.8127 30.0527 60.5578 30.0527Z" fill="url(#paint5_linear_928_2)"/>
<path d="M76.3452 19.0412C72.5979 19.0412 69.5284 22.1062 69.5284 25.858C69.5284 29.6098 72.5979 32.6748 76.3452 32.6748C80.0925 32.6748 83.1665 29.6053 83.1665 25.858C83.1665 22.1107 80.097 19.0412 76.3452 19.0412ZM76.3452 30.2608C73.8822 30.2608 72.204 28.3478 72.204 25.858C72.204 23.3682 73.8822 21.4507 76.3452 21.4507C78.8083 21.4507 80.4374 23.3905 80.4374 25.858C80.4374 28.3255 78.838 30.2608 76.3452 30.2608Z" fill="url(#paint6_linear_928_2)"/>
<path d="M91.5544 19.0145C87.5411 19.0145 85.2609 21.8179 85.2609 25.149V32.3864L87.7536 32.4132V25.91C87.7536 22.894 88.9859 21.2946 91.2928 21.2946C93.5998 21.2946 94.9911 22.9208 94.9911 25.8833V32.3864H97.6131V25.149C97.6131 19.3281 93.078 19.0145 91.5544 19.0145Z" fill="url(#paint7_linear_928_2)"/>
<path d="M110.725 12.7462V21.0063C110.725 21.0063 109.308 19.0398 106.242 19.0398H106.188C101.781 19.0665 99.712 22.1315 99.712 25.8833C99.712 29.8967 102.437 32.7001 106.529 32.7001C109.86 32.7001 113.346 30.7068 113.346 25.8833V12.7462H110.724H110.725ZM106.53 30.3411C104.063 30.3411 102.331 28.3478 102.331 25.8848C102.331 23.4218 104.063 21.4255 106.53 21.4255C108.998 21.4255 110.831 23.392 110.831 25.8848C110.831 28.3776 109.019 30.3411 106.53 30.3411Z" fill="url(#paint8_linear_928_2)"/>
<path d="M125.701 19.3282V25.8313C125.701 28.8473 124.492 30.4467 121.922 30.4467C120.244 30.4467 118.459 29.1624 118.459 25.8313V19.3549H115.837V26.5924C115.837 32.4133 120.376 32.7269 121.922 32.7269C123.363 32.7269 124.752 32.1769 125.567 31.3624V33.4092C125.567 35.9777 123.654 36.8428 121.502 36.8696H121.421C119.587 36.8696 117.78 35.3505 117.78 35.3505L115.994 37.1357C115.994 37.1357 118.093 39.2836 121.5 39.2836C126.355 39.2836 128.055 36.1383 128.109 33.3839C128.136 33.0955 128.189 26.7485 128.189 26.6206V19.3564L125.699 19.3297L125.701 19.3282Z" fill="url(#paint9_linear_928_2)"/>
<defs>
<linearGradient id="paint0_linear_928_2" x1="19.608" y1="7.68487" x2="2.1379" y2="51.8187" gradientUnits="userSpaceOnUse">
<stop stop-color="#00A28E"/>
<stop offset="1" stop-color="#147385"/>
</linearGradient>
<linearGradient id="paint1_linear_928_2" x1="25.2743" y1="17.5132" x2="18.0264" y2="35.8261" gradientUnits="userSpaceOnUse">
<stop stop-color="#00A28E"/>
<stop offset="1" stop-color="#147385"/>
</linearGradient>
<linearGradient id="paint2_linear_928_2" x1="27.1754" y1="9.06725" x2="41.7366" y2="46.9238" gradientUnits="userSpaceOnUse">
<stop stop-color="#1CD0C4"/>
<stop offset="1" stop-color="#3DB5B4"/>
</linearGradient>
<linearGradient id="paint3_linear_928_2" x1="31.1606" y1="7.53326" x2="45.7217" y2="45.3928" gradientUnits="userSpaceOnUse">
<stop stop-color="#1CD0C4"/>
<stop offset="1" stop-color="#3DB5B4"/>
</linearGradient>
<linearGradient id="paint4_linear_928_2" x1="13.9907" y1="5.45669" x2="-3.48236" y2="49.6009" gradientUnits="userSpaceOnUse">
<stop stop-color="#00A28E"/>
<stop offset="1" stop-color="#147385"/>
</linearGradient>
<linearGradient id="paint5_linear_928_2" x1="60.9517" y1="14.3649" x2="60.9517" y2="34.2891" gradientUnits="userSpaceOnUse">
<stop stop-color="#1CD0C4"/>
<stop offset="1" stop-color="#3DB5B4"/>
</linearGradient>
<linearGradient id="paint6_linear_928_2" x1="76.3467" y1="14.3664" x2="76.3467" y2="34.2891" gradientUnits="userSpaceOnUse">
<stop stop-color="#1CD0C4"/>
<stop offset="1" stop-color="#3DB5B4"/>
</linearGradient>
<linearGradient id="paint7_linear_928_2" x1="91.437" y1="14.3649" x2="91.437" y2="34.2891" gradientUnits="userSpaceOnUse">
<stop stop-color="#1CD0C4"/>
<stop offset="1" stop-color="#3DB5B4"/>
</linearGradient>
<linearGradient id="paint8_linear_928_2" x1="106.53" y1="14.3634" x2="106.53" y2="34.2891" gradientUnits="userSpaceOnUse">
<stop stop-color="#1CD0C4"/>
<stop offset="1" stop-color="#3DB5B4"/>
</linearGradient>
<linearGradient id="paint9_linear_928_2" x1="122.013" y1="14.365" x2="122.013" y2="34.2892" gradientUnits="userSpaceOnUse">
<stop stop-color="#1CD0C4"/>
<stop offset="1" stop-color="#3DB5B4"/>
</linearGradient>
</defs>
</svg>
