<svg width="42" height="42" viewBox="0 0 42 42" fill="none" xmlns="http://www.w3.org/2000/svg">
<path d="M23.0999 22.904V37.877C23.0996 38.2593 22.9956 38.6343 22.7989 38.962L21.6019 40.957C21.5399 41.0615 21.4518 41.148 21.3463 41.2081C21.2407 41.2682 21.1214 41.2998 20.9999 41.2998C20.8784 41.2998 20.7591 41.2682 20.6535 41.2081C20.548 41.148 20.4599 41.0615 20.3979 40.957L19.2009 38.962C19.0042 38.6343 18.9002 38.2593 18.8999 37.877V22.904H23.0999Z" fill="#95A5A5"/>
<path d="M32.1999 11.9C32.1967 14.4175 31.3444 16.8603 29.7809 18.8333C28.2173 20.8064 26.034 22.1943 23.5838 22.7727C21.1337 23.3511 18.5601 23.0861 16.2793 22.0205C13.9984 20.955 12.1437 19.1512 11.0151 16.9009C9.88642 14.6506 9.54985 12.0854 10.0598 9.62012C10.5697 7.15484 11.8963 4.93365 13.8251 3.31577C15.7538 1.69789 18.1719 0.777918 20.6883 0.704647C23.2047 0.631376 25.6723 1.40909 27.6919 2.912C29.0918 3.95514 30.2285 5.31111 31.0112 6.87167C31.7939 8.43223 32.201 10.1542 32.1999 11.9Z" fill="#C03A2B"/>
<path d="M28.0001 5.6C28.0001 8.75607 26.7464 11.7829 24.5147 14.0146C22.283 16.2463 19.2562 17.5 16.1001 17.5C14.2025 17.504 12.3319 17.0501 10.6471 16.177C9.7133 13.9114 9.54782 11.4023 10.176 9.03368C10.8042 6.66511 12.1915 4.56774 14.1253 3.06275C16.0591 1.55776 18.433 0.72813 20.8833 0.700903C23.3336 0.673675 25.7253 1.45035 27.6921 2.912C27.8982 3.7931 28.0016 4.69511 28.0001 5.6Z" fill="#E64C3C"/>
</svg>
