<svg width="24" height="22" viewBox="0 0 24 22" fill="none" xmlns="http://www.w3.org/2000/svg">
<path d="M20.6249 10.5417C20.6282 11.7515 20.3254 12.9451 19.7409 14.025C19.048 15.3191 17.9827 16.4076 16.6643 17.1685C15.346 17.9294 13.8267 18.3328 12.2766 18.3333C10.9803 18.3365 9.70158 18.0538 8.5445 17.5083L2.94629 19.25L4.81236 14.025C4.22792 12.9451 3.92505 11.7515 3.92843 10.5417C3.92903 9.09494 4.36118 7.67694 5.17646 6.4465C5.99174 5.21606 7.15797 4.22177 8.5445 3.575C9.70158 3.02952 10.9803 2.74684 12.2766 2.75H12.7677C14.8148 2.8554 16.7484 3.66186 18.1981 5.01495C19.6479 6.36804 20.5119 8.17268 20.6249 10.0833V10.5417Z" stroke="url(#paint0_linear_394_11390)" stroke-width="1.5" stroke-linecap="round" stroke-linejoin="round"/>
<defs>
<linearGradient id="paint0_linear_394_11390" x1="7.37456" y1="0.675838" x2="15.4382" y2="23.9806" gradientUnits="userSpaceOnUse">
<stop stop-color="#23ADA4"/>
<stop offset="1" stop-color="#23ADA4"/>
</linearGradient>
</defs>
</svg>
