<svg width="20" height="20" viewBox="0 0 20 20" fill="none" xmlns="http://www.w3.org/2000/svg">
<path fill-rule="evenodd" clip-rule="evenodd" d="M13.5413 5.00205C13.5413 4.14477 12.5617 3.6543 11.8746 4.1694L9.30426 6.09624C9.02809 6.30329 8.63634 6.24724 8.42926 5.97105C8.22224 5.69487 8.27829 5.30313 8.55451 5.09609L11.1248 3.16924C12.6351 2.037 14.7913 3.11376 14.7913 5.00205V10.8331C14.7913 11.1783 14.5115 11.4581 14.1663 11.4581C13.8212 11.4581 13.5413 11.1783 13.5413 10.8331V5.00205ZM2.89107 2.89118C3.13514 2.64709 3.53087 2.64709 3.77495 2.89118L17.1083 16.2245C17.3523 16.4686 17.3523 16.8643 17.1083 17.1084C16.8642 17.3525 16.4685 17.3525 16.2244 17.1084L14.7144 15.5984C14.3173 17.0989 12.4663 17.836 11.1248 16.8303L7.56914 14.1648C7.38887 14.0297 7.16963 13.9566 6.94432 13.9566H4.99967C3.73429 13.9566 2.70801 12.9312 2.70801 11.6657V8.33384C2.70801 7.06837 3.73429 6.04296 4.99967 6.04296H5.15897L2.89107 3.77506C2.64699 3.53098 2.64699 3.13525 2.89107 2.89118ZM6.40897 7.29296H4.99967C4.42411 7.29296 3.95801 7.75926 3.95801 8.33384V11.6657C3.95801 12.2403 4.42411 12.7066 4.99967 12.7066H6.94432C7.44 12.7066 7.92232 12.8673 8.31892 13.1647L11.8746 15.8302C12.5617 16.3453 13.5413 15.8548 13.5413 14.9975V14.4253L6.40897 7.29296Z" fill="white"/>
</svg>
