<svg width="18" height="18" viewBox="0 0 18 18" fill="none" xmlns="http://www.w3.org/2000/svg">
<path fill-rule="evenodd" clip-rule="evenodd" d="M9 2.0625C5.16852 2.0625 2.0625 5.16852 2.0625 9C2.0625 12.8315 5.16852 15.9375 9 15.9375C12.8315 15.9375 15.9375 12.8315 15.9375 9C15.9375 5.16852 12.8315 2.0625 9 2.0625ZM0.9375 9C0.9375 4.5472 4.5472 0.9375 9 0.9375C13.4528 0.9375 17.0625 4.5472 17.0625 9C17.0625 13.4528 13.4528 17.0625 9 17.0625C4.5472 17.0625 0.9375 13.4528 0.9375 9ZM9 3.9375C9.31066 3.9375 9.5625 4.18934 9.5625 4.5V4.73755C10.7853 4.9565 11.8125 5.87521 11.8125 7.125C11.8125 7.43566 11.5607 7.6875 11.25 7.6875C10.9393 7.6875 10.6875 7.43566 10.6875 7.125C10.6875 6.61616 10.2644 6.07754 9.5625 5.88561V8.48755C10.7853 8.7065 11.8125 9.62521 11.8125 10.875C11.8125 12.1248 10.7853 13.0435 9.5625 13.2624V13.5C9.5625 13.8107 9.31066 14.0625 9 14.0625C8.68934 14.0625 8.4375 13.8107 8.4375 13.5V13.2624C7.21468 13.0435 6.1875 12.1248 6.1875 10.875C6.1875 10.5643 6.43934 10.3125 6.75 10.3125C7.06066 10.3125 7.3125 10.5643 7.3125 10.875C7.3125 11.3838 7.73557 11.9225 8.4375 12.1144V9.51245C7.21468 9.2935 6.1875 8.37479 6.1875 7.125C6.1875 5.87521 7.21468 4.9565 8.4375 4.73755V4.5C8.4375 4.18934 8.68934 3.9375 9 3.9375ZM8.4375 5.88561C7.73557 6.07754 7.3125 6.61616 7.3125 7.125C7.3125 7.63384 7.73557 8.17246 8.4375 8.36439V5.88561ZM9.5625 9.63561V12.1144C10.2644 11.9225 10.6875 11.3838 10.6875 10.875C10.6875 10.3662 10.2644 9.82754 9.5625 9.63561Z" fill="url(#paint0_linear_209_6562)"/>
<defs>
<linearGradient id="paint0_linear_209_6562" x1="4.97661" y1="-1.08949" x2="13.2884" y2="21.3308" gradientUnits="userSpaceOnUse">
<stop stop-color="#23ADA4"/>
<stop offset="1" stop-color="#23ADA4"/>
</linearGradient>
</defs>
</svg>
