<svg width="24" height="24" viewBox="0 0 24 24" fill="none" xmlns="http://www.w3.org/2000/svg">
<g clip-path="url(#clip0_145_606)">
<path d="M4.66955 0.377687C4.1228 0.0243903 3.46608 -0.0823909 2.8501 0.0630153L13.675 10.888L17.1834 7.37959L4.66955 0.377687Z" fill="white"/>
<path d="M1.50651 0.942871C1.20459 1.34426 1.03082 1.83711 1.03082 2.35845V21.6409C1.03082 22.1622 1.20464 22.655 1.50651 23.0564L12.5632 11.9997L1.50651 0.942871Z" fill="white"/>
<path d="M21.7622 9.94148L18.6091 8.17725L14.7867 11.9996L18.6093 15.8222L21.7627 14.0578C22.5182 13.6345 22.9692 12.8652 22.9692 11.9996C22.9692 11.134 22.5182 10.3648 21.7622 9.94148Z" fill="white"/>
<path d="M13.675 13.1113L2.85071 23.9356C3.02818 23.9774 3.20879 23.9999 3.3894 23.9999C3.83574 23.9999 4.28054 23.8729 4.66955 23.6216L17.1835 16.6198L13.675 13.1113Z" fill="white"/>
</g>
<defs>
<clipPath id="clip0_145_606">
<rect width="24" height="24" fill="white"/>
</clipPath>
</defs>
</svg>
