<svg width="20" height="20" viewBox="0 0 20 20" fill="none" xmlns="http://www.w3.org/2000/svg">
<path fill-rule="evenodd" clip-rule="evenodd" d="M9.58332 2.29199C5.55625 2.29199 2.29166 5.55658 2.29166 9.58366C2.29166 13.6107 5.55625 16.8753 9.58332 16.8753C13.6104 16.8753 16.875 13.6107 16.875 9.58366C16.875 5.55658 13.6104 2.29199 9.58332 2.29199ZM1.04166 9.58366C1.04166 4.86623 4.86589 1.04199 9.58332 1.04199C14.3008 1.04199 18.125 4.86623 18.125 9.58366C18.125 11.7174 17.3426 13.6684 16.049 15.1655L18.7753 17.8917C19.0193 18.1358 19.0193 18.5315 18.7753 18.7756C18.5312 19.0197 18.1355 19.0197 17.8914 18.7756L15.1652 16.0494C13.6681 17.3429 11.7171 18.1253 9.58332 18.1253C4.86589 18.1253 1.04166 14.3011 1.04166 9.58366Z" fill="#454545"/>
</svg>
