<svg width="16" height="16" viewBox="0 0 16 16" fill="none" xmlns="http://www.w3.org/2000/svg">
<mask id="path-1-inside-1_551_14725" fill="white">
<path d="M5.03848 9.3559C4.94106 9.25805 4.78277 9.2577 4.68492 9.35513C4.58708 9.45254 4.58676 9.61085 4.68417 9.7087C4.86875 9.89345 5.05516 10.0764 5.24463 10.2562C5.38181 10.3863 5.522 10.5154 5.62578 10.6011C5.7367 10.6927 5.86697 10.791 6.01825 10.7285C6.14893 10.6744 6.20503 10.526 6.16067 10.3964C5.91796 9.68724 6.08075 8.87126 6.64683 8.30763C7.21293 7.74399 8.02961 7.58475 8.73765 7.83055C8.86808 7.87584 9.01054 7.8068 9.05581 7.67636C9.1011 7.54594 9.03206 7.40349 8.90162 7.35821C8.01985 7.0521 7.00077 7.24966 6.29406 7.9533C5.76827 8.4768 5.52186 9.1744 5.55461 9.86095C5.38037 9.69489 5.20851 9.52626 5.03848 9.3559Z"/>
</mask>
<path d="M5.03848 9.3559C4.94106 9.25805 4.78277 9.2577 4.68492 9.35513C4.58708 9.45254 4.58676 9.61085 4.68417 9.7087C4.86875 9.89345 5.05516 10.0764 5.24463 10.2562C5.38181 10.3863 5.522 10.5154 5.62578 10.6011C5.7367 10.6927 5.86697 10.791 6.01825 10.7285C6.14893 10.6744 6.20503 10.526 6.16067 10.3964C5.91796 9.68724 6.08075 8.87126 6.64683 8.30763C7.21293 7.74399 8.02961 7.58475 8.73765 7.83055C8.86808 7.87584 9.01054 7.8068 9.05581 7.67636C9.1011 7.54594 9.03206 7.40349 8.90162 7.35821C8.01985 7.0521 7.00077 7.24966 6.29406 7.9533C5.76827 8.4768 5.52186 9.1744 5.55461 9.86095C5.38037 9.69489 5.20851 9.52626 5.03848 9.3559Z" fill="url(#paint0_linear_551_14725)"/>
<path d="M5.03848 9.3559L4.32984 10.0615L4.33068 10.0623L5.03848 9.3559ZM4.68492 9.35513L5.39049 10.0638L5.39049 10.0638L4.68492 9.35513ZM4.68417 9.7087L3.97548 10.4142L3.97673 10.4155L4.68417 9.7087ZM5.24463 10.2562L4.55647 10.9817L4.55649 10.9817L5.24463 10.2562ZM5.62578 10.6011L6.26278 9.83022L6.26267 9.83013L5.62578 10.6011ZM6.01825 10.7285L6.40029 11.6526L6.40036 11.6526L6.01825 10.7285ZM6.16067 10.3964L7.1068 10.0726L7.10679 10.0725L6.16067 10.3964ZM6.64683 8.30763L5.94127 7.59898L5.94126 7.59899L6.64683 8.30763ZM8.73765 7.83055L9.06564 6.88587L9.0656 6.88586L8.73765 7.83055ZM9.05581 7.67636L8.11114 7.34835L8.1111 7.34845L9.05581 7.67636ZM8.90162 7.35821L8.57367 8.30291L8.57371 8.30292L8.90162 7.35821ZM6.29406 7.9533L5.5885 7.24466L5.5885 7.24466L6.29406 7.9533ZM5.55461 9.86095L4.86469 10.5848L6.67247 12.3078L6.55347 9.8133L5.55461 9.86095ZM5.03848 9.3559L5.74713 8.65034C5.26006 8.16114 4.46861 8.15935 3.97936 8.64648L4.68492 9.35513L5.39049 10.0638C5.09693 10.356 4.62206 10.355 4.32984 10.0615L5.03848 9.3559ZM4.68492 9.35513L3.97936 8.64648C3.49002 9.13369 3.48858 9.92514 3.97548 10.4142L4.68417 9.7087L5.39286 9.00318C5.68494 9.29657 5.68415 9.77138 5.39049 10.0638L4.68492 9.35513ZM4.68417 9.7087L3.97673 10.4155C4.16578 10.6047 4.35881 10.7942 4.55647 10.9817L5.24463 10.2562L5.9328 9.5306C5.75151 9.35865 5.57172 9.18221 5.39161 9.00193L4.68417 9.7087ZM5.24463 10.2562L4.55649 10.9817C4.69496 11.113 4.85654 11.2627 4.9889 11.3721L5.62578 10.6011L6.26267 9.83013C6.18746 9.768 6.06866 9.65945 5.93278 9.53058L5.24463 10.2562ZM5.62578 10.6011L4.98879 11.372C5.03919 11.4136 5.19868 11.5492 5.41054 11.6407C5.66129 11.749 6.01836 11.8105 6.40029 11.6526L6.01825 10.7285L5.6362 9.80433C5.73657 9.76284 5.84857 9.7433 5.96118 9.74922C6.06883 9.75488 6.15187 9.78233 6.20322 9.8045C6.25253 9.82579 6.28167 9.84613 6.28613 9.84925C6.29023 9.85212 6.28663 9.84993 6.26278 9.83022L5.62578 10.6011ZM6.01825 10.7285L6.40036 11.6526C7.07346 11.3743 7.30242 10.6442 7.1068 10.0726L6.16067 10.3964L5.21455 10.7202C5.10765 10.4078 5.22441 9.9746 5.63614 9.80436L6.01825 10.7285ZM6.16067 10.3964L7.10679 10.0725C6.98326 9.71162 7.06739 9.30005 7.35241 9.01627L6.64683 8.30763L5.94126 7.59899C5.0941 8.44248 4.85266 9.66285 5.21456 10.7202L6.16067 10.3964ZM6.64683 8.30763L7.3524 9.01627C7.63743 8.73248 8.04936 8.65015 8.40969 8.77524L8.73765 7.83055L9.0656 6.88586C8.00986 6.51935 6.78844 6.75549 5.94127 7.59898L6.64683 8.30763ZM8.73765 7.83055L8.40966 8.77523C9.06187 9.00168 9.77414 8.65648 10.0005 8.00427L9.05581 7.67636L8.1111 7.34845C8.24693 6.95712 8.6743 6.75 9.06564 6.88587L8.73765 7.83055ZM9.05581 7.67636L10.0005 8.00438C10.227 7.35212 9.8817 6.63987 9.22953 6.41351L8.90162 7.35821L8.57371 8.30292C8.18242 8.16711 7.97523 7.73975 8.11114 7.34835L9.05581 7.67636ZM8.90162 7.35821L9.22958 6.41352C8.00051 5.98684 6.57658 6.26087 5.5885 7.24466L6.29406 7.9533L6.99962 8.66195C7.42496 8.23846 8.03918 8.11736 8.57367 8.30291L8.90162 7.35821ZM6.29406 7.9533L5.5885 7.24466C4.8541 7.97586 4.51011 8.95189 4.55575 9.9086L5.55461 9.86095L6.55347 9.8133C6.53361 9.39691 6.68245 8.97775 6.99962 8.66195L6.29406 7.9533ZM5.55461 9.86095L6.24453 9.13707C6.07726 8.97764 5.91141 8.81494 5.74629 8.6495L5.03848 9.3559L4.33068 10.0623C4.50561 10.2376 4.68349 10.4121 4.86469 10.5848L5.55461 9.86095Z" fill="url(#paint1_linear_551_14725)" mask="url(#path-1-inside-1_551_14725)"/>
<mask id="path-3-inside-2_551_14725" fill="white">
<path d="M10.9687 10.111L10.9686 10.1109C10.7986 9.94056 10.6268 9.772 10.4526 9.60598C10.4854 10.2925 10.2389 10.9901 9.71315 11.5136C9.00644 12.2173 7.98735 12.4148 7.10558 12.1087C6.97514 12.0634 6.90612 11.921 6.95139 11.7906C6.99668 11.6601 7.13912 11.5911 7.26956 11.6364C7.97759 11.8822 8.79428 11.7229 9.36037 11.1593C9.92647 10.5957 10.0893 9.77969 9.84654 9.07059C9.80217 8.94096 9.85828 8.7925 9.98895 8.73846C10.1402 8.67592 10.2705 8.77419 10.3814 8.86584C10.3814 8.86584 11.0184 9.45302 11.323 9.75823C11.4205 9.85608 11.4201 10.0144 11.3223 10.1118C11.2244 10.2092 11.0661 10.2088 10.9687 10.111Z"/>
</mask>
<path d="M10.9687 10.111L10.9686 10.1109C10.7986 9.94056 10.6268 9.772 10.4526 9.60598C10.4854 10.2925 10.2389 10.9901 9.71315 11.5136C9.00644 12.2173 7.98735 12.4148 7.10558 12.1087C6.97514 12.0634 6.90612 11.921 6.95139 11.7906C6.99668 11.6601 7.13912 11.5911 7.26956 11.6364C7.97759 11.8822 8.79428 11.7229 9.36037 11.1593C9.92647 10.5957 10.0893 9.77969 9.84654 9.07059C9.80217 8.94096 9.85828 8.7925 9.98895 8.73846C10.1402 8.67592 10.2705 8.77419 10.3814 8.86584C10.3814 8.86584 11.0184 9.45302 11.323 9.75823C11.4205 9.85608 11.4201 10.0144 11.3223 10.1118C11.2244 10.2092 11.0661 10.2088 10.9687 10.111Z" fill="url(#paint2_linear_551_14725)"/>
<path d="M10.9687 10.111L10.229 10.7839L10.2442 10.8006L10.2601 10.8166L10.9687 10.111ZM10.9686 10.1109L11.7083 9.43794L11.6927 9.42082L11.6763 9.40444L10.9686 10.1109ZM10.4526 9.60598L11.1425 8.88209L9.33469 7.15912L9.45373 9.65365L10.4526 9.60598ZM9.71315 11.5136L10.4187 12.2223L10.4187 12.2223L9.71315 11.5136ZM7.10558 12.1087L7.43353 11.164L7.43349 11.164L7.10558 12.1087ZM6.95139 11.7906L6.00671 11.4626L6.00669 11.4626L6.95139 11.7906ZM7.26956 11.6364L6.94156 12.5811L6.9416 12.5811L7.26956 11.6364ZM9.36037 11.1593L8.6548 10.4507L8.6548 10.4507L9.36037 11.1593ZM9.84654 9.07059L10.7927 8.74676L10.7926 8.74674L9.84654 9.07059ZM9.98895 8.73846L9.60694 7.8143L9.60681 7.81435L9.98895 8.73846ZM10.3814 8.86584L11.0592 8.13058L11.0393 8.11221L11.0184 8.09494L10.3814 8.86584ZM11.323 9.75823L12.0317 9.05267L12.0308 9.05181L11.323 9.75823ZM11.3223 10.1118L10.6168 9.40312L10.6167 9.40321L11.3223 10.1118ZM10.9687 10.111L11.7084 9.43808L11.7083 9.43794L10.9686 10.1109L10.2289 10.7838L10.229 10.7839L10.9687 10.111ZM10.9686 10.1109L11.6763 9.40444C11.5015 9.22923 11.3237 9.05474 11.1425 8.88209L10.4526 9.60598L9.76268 10.3299C9.9299 10.4892 10.0957 10.6519 10.2608 10.8173L10.9686 10.1109ZM10.4526 9.60598L9.45373 9.65365C9.4736 10.07 9.32476 10.4892 9.00758 10.805L9.71315 11.5136L10.4187 12.2223C11.1531 11.4911 11.4971 10.5151 11.4515 9.55832L10.4526 9.60598ZM9.71315 11.5136L9.00759 10.805C8.58226 11.2285 7.96802 11.3496 7.43353 11.164L7.10558 12.1087L6.77763 13.0534C8.00669 13.4801 9.43063 13.2061 10.4187 12.2223L9.71315 11.5136ZM7.10558 12.1087L7.43349 11.164C7.82486 11.2999 8.03192 11.7272 7.89609 12.1185L6.95139 11.7906L6.00669 11.4626C5.78032 12.1148 6.12542 12.827 6.77767 13.0534L7.10558 12.1087ZM6.95139 11.7906L7.89607 12.1186C7.76026 12.5097 7.33297 12.717 6.94156 12.5811L7.26956 11.6364L7.59755 10.6917C6.94526 10.4652 6.2331 10.8105 6.00671 11.4626L6.95139 11.7906ZM7.26956 11.6364L6.9416 12.5811C7.99734 12.9476 9.21877 12.7114 10.0659 11.8679L9.36037 11.1593L8.6548 10.4507C8.36979 10.7344 7.95785 10.8168 7.59751 10.6917L7.26956 11.6364ZM9.36037 11.1593L10.0659 11.868C10.9131 11.0245 11.1546 9.80408 10.7927 8.74676L9.84654 9.07059L8.90043 9.39443C9.02395 9.75531 8.93983 10.1669 8.6548 10.4507L9.36037 11.1593ZM9.84654 9.07059L10.7926 8.74674C10.8996 9.05915 10.7828 9.49232 10.3711 9.66256L9.98895 8.73846L9.60681 7.81435C8.93378 8.09267 8.70475 8.82277 8.90043 9.39445L9.84654 9.07059ZM9.98895 8.73846L10.371 9.66261C10.2706 9.7041 10.1586 9.72363 10.046 9.71771C9.93838 9.71206 9.85534 9.6846 9.80399 9.66244C9.75467 9.64115 9.72554 9.6208 9.72109 9.61769C9.717 9.61483 9.7206 9.61702 9.74448 9.63675L10.3814 8.86584L11.0184 8.09494C10.968 8.05333 10.8085 7.91768 10.5967 7.82623C10.3459 7.71798 9.98885 7.65643 9.60694 7.8143L9.98895 8.73846ZM10.3814 8.86584C9.70365 9.60111 9.70364 9.6011 9.70364 9.6011C9.70364 9.6011 9.70364 9.6011 9.70365 9.60111C9.70366 9.60112 9.70368 9.60113 9.70371 9.60116C9.70376 9.60121 9.70386 9.6013 9.70399 9.60143C9.70426 9.60167 9.70468 9.60206 9.70524 9.60258C9.70637 9.60362 9.7081 9.60521 9.71038 9.60732C9.71494 9.61153 9.72175 9.61782 9.73056 9.62597C9.74819 9.64226 9.77383 9.66599 9.8056 9.69546C9.86917 9.75444 9.95702 9.83618 10.0541 9.9272C10.2518 10.1125 10.4761 10.3252 10.6152 10.4647L11.323 9.75823L12.0308 9.05181C11.8654 8.88603 11.6188 8.65257 11.4218 8.46797C11.3216 8.37404 11.2312 8.28991 11.1658 8.22926C11.1331 8.19891 11.1066 8.17438 11.0882 8.15738C11.079 8.14887 11.0719 8.14225 11.0669 8.13771C11.0645 8.13544 11.0626 8.1337 11.0613 8.1325C11.0606 8.1319 11.0601 8.13144 11.0598 8.13112C11.0596 8.13096 11.0595 8.13083 11.0594 8.13074C11.0593 8.1307 11.0593 8.13066 11.0593 8.13063C11.0593 8.13062 11.0592 8.13061 11.0592 8.1306C11.0592 8.13059 11.0592 8.13058 10.3814 8.86584ZM11.323 9.75823L10.6144 10.4638C10.3223 10.1704 10.323 9.69552 10.6168 9.40312L11.3223 10.1118L12.0278 10.8205C12.5172 10.3333 12.5186 9.54176 12.0317 9.05267L11.323 9.75823ZM11.3223 10.1118L10.6167 9.40321C10.9105 9.11066 11.3853 9.11216 11.6773 9.4054L10.9687 10.111L10.2601 10.8166C10.7469 11.3055 11.5384 11.3078 12.0279 10.8204L11.3223 10.1118Z" fill="url(#paint3_linear_551_14725)" mask="url(#path-3-inside-2_551_14725)"/>
<path d="M11 2.2002C11.1657 2.2002 11.2998 2.33431 11.2998 2.5V3.2002H11.5C12.7702 3.2002 13.7998 4.22975 13.7998 5.5V11.5C13.7998 12.7702 12.7702 13.7998 11.5 13.7998H4.5C3.22975 13.7998 2.2002 12.7702 2.2002 11.5V5.5C2.2002 4.22975 3.22975 3.2002 4.5 3.2002H4.7002V2.5C4.7002 2.33431 4.83431 2.2002 5 2.2002C5.16569 2.2002 5.2998 2.33431 5.2998 2.5V3.2002H10.7002V2.5C10.7002 2.33431 10.8343 2.2002 11 2.2002ZM2.7998 11.5C2.7998 12.4389 3.56111 13.2002 4.5 13.2002H11.5C12.4389 13.2002 13.2002 12.4389 13.2002 11.5V6.2998H2.7998V11.5ZM4.5 3.7998C3.56111 3.7998 2.7998 4.56111 2.7998 5.5V5.7002H13.2002V5.5C13.2002 4.56111 12.4389 3.7998 11.5 3.7998H11.2998V4.625C11.2998 4.79069 11.1657 4.9248 11 4.9248C10.8343 4.9248 10.7002 4.79069 10.7002 4.625V3.7998H5.2998V4.625C5.2998 4.79069 5.16569 4.9248 5 4.9248C4.83431 4.9248 4.7002 4.79069 4.7002 4.625V3.7998H4.5Z" fill="url(#paint4_linear_551_14725)" stroke="url(#paint5_linear_551_14725)" stroke-width="0.1"/>
<defs>
<linearGradient id="paint0_linear_551_14725" x1="5.7281" y1="6.77508" x2="7.23634" y2="11.9142" gradientUnits="userSpaceOnUse">
<stop stop-color="#23ADA4"/>
<stop offset="1" stop-color="#23ADA4"/>
</linearGradient>
<linearGradient id="paint1_linear_551_14725" x1="5.7281" y1="6.77508" x2="7.23634" y2="11.9142" gradientUnits="userSpaceOnUse">
<stop stop-color="#23ADA4"/>
<stop offset="1" stop-color="#23ADA4"/>
</linearGradient>
<linearGradient id="paint2_linear_551_14725" x1="8.05427" y1="8.27508" x2="9.56251" y2="13.4142" gradientUnits="userSpaceOnUse">
<stop stop-color="#23ADA4"/>
<stop offset="1" stop-color="#23ADA4"/>
</linearGradient>
<linearGradient id="paint3_linear_551_14725" x1="8.05427" y1="8.27508" x2="9.56251" y2="13.4142" gradientUnits="userSpaceOnUse">
<stop stop-color="#23ADA4"/>
<stop offset="1" stop-color="#23ADA4"/>
</linearGradient>
<linearGradient id="paint4_linear_551_14725" x1="5.13061" y1="0.804396" x2="11.0584" y2="16.7941" gradientUnits="userSpaceOnUse">
<stop stop-color="#23ADA4"/>
<stop offset="1" stop-color="#23ADA4"/>
</linearGradient>
<linearGradient id="paint5_linear_551_14725" x1="5.13061" y1="0.804396" x2="11.0584" y2="16.7941" gradientUnits="userSpaceOnUse">
<stop stop-color="#23ADA4"/>
<stop offset="1" stop-color="#23ADA4"/>
</linearGradient>
</defs>
</svg>
