<svg width="53" height="48" viewBox="0 0 53 48" fill="none" xmlns="http://www.w3.org/2000/svg">
<rect width="52.76" height="48" rx="12.54" fill="url(#paint0_linear_551_14100)"/>
<path d="M31.3799 32.3333C30.6854 32.3333 30.0952 32.0903 29.609 31.6042C29.1229 31.1181 28.8799 30.5278 28.8799 29.8333C28.8799 29.75 28.9007 29.5556 28.9424 29.25L23.0882 25.8333C22.866 26.0417 22.609 26.2049 22.3174 26.3229C22.0257 26.441 21.7132 26.5 21.3799 26.5C20.6854 26.5 20.0952 26.2569 19.609 25.7708C19.1229 25.2847 18.8799 24.6944 18.8799 24C18.8799 23.3056 19.1229 22.7153 19.609 22.2292C20.0952 21.7431 20.6854 21.5 21.3799 21.5C21.7132 21.5 22.0257 21.559 22.3174 21.6771C22.609 21.7951 22.866 21.9583 23.0882 22.1667L28.9424 18.75C28.9146 18.6528 28.8972 18.559 28.8903 18.4687C28.8834 18.3785 28.8799 18.2778 28.8799 18.1667C28.8799 17.4722 29.1229 16.8819 29.609 16.3958C30.0952 15.9097 30.6854 15.6667 31.3799 15.6667C32.0743 15.6667 32.6646 15.9097 33.1507 16.3958C33.6368 16.8819 33.8799 17.4722 33.8799 18.1667C33.8799 18.8611 33.6368 19.4514 33.1507 19.9375C32.6646 20.4236 32.0743 20.6667 31.3799 20.6667C31.0465 20.6667 30.734 20.6076 30.4424 20.4896C30.1507 20.3715 29.8938 20.2083 29.6715 20L23.8174 23.4167C23.8452 23.5139 23.8625 23.6076 23.8695 23.6979C23.8764 23.7882 23.8799 23.8889 23.8799 24C23.8799 24.1111 23.8764 24.2118 23.8695 24.3021C23.8625 24.3924 23.8452 24.4861 23.8174 24.5833L29.6715 28C29.8938 27.7917 30.1507 27.6285 30.4424 27.5104C30.734 27.3924 31.0465 27.3333 31.3799 27.3333C32.0743 27.3333 32.6646 27.5764 33.1507 28.0625C33.6368 28.5486 33.8799 29.1389 33.8799 29.8333C33.8799 30.5278 33.6368 31.1181 33.1507 31.6042C32.6646 32.0903 32.0743 32.3333 31.3799 32.3333Z" fill="white"/>
<defs>
<linearGradient id="paint0_linear_551_14100" x1="13.2157" y1="-6.03383" x2="36.204" y2="62.1248" gradientUnits="userSpaceOnUse">
<stop stop-color="#23ADA4"/>
<stop offset="1" stop-color="#23ADA4"/>
</linearGradient>
</defs>
</svg>
