<svg width="53" height="45" viewBox="0 0 53 45" fill="none" xmlns="http://www.w3.org/2000/svg">
<path d="M32.8265 44.9997H11.1275C9.80982 44.9997 8.52721 44.7956 7.31651 44.3692C13.365 43.0866 18.8015 39.7773 22.9152 35.3408C22.957 35.294 23.0055 35.2472 23.0473 35.1953C23.1409 35.4077 23.2429 35.6217 23.35 35.8308C23.6225 36.3726 23.9252 36.901 24.2496 37.416C24.7362 38.197 25.2764 38.9378 25.865 39.6368C27.8048 41.9562 30.2011 43.789 32.8265 44.9997Z" fill="#053853"/>
<path d="M44.3366 44.406L40.4068 44.9979C39.3533 44.9979 38.2797 44.8826 37.2061 44.6518C33.2379 43.8458 29.7078 41.5732 27.176 38.5431C26.4219 37.6484 25.7613 36.6852 25.1978 35.6702V35.6652C25.0824 35.4645 24.9754 35.2638 24.8734 35.0598C24.661 34.6334 24.4603 34.1986 24.2847 33.7588C24.5456 33.4394 24.7964 33.1117 25.0439 32.7822C25.3299 33.1234 25.6242 33.4645 25.9219 33.7923C26.3265 34.2438 26.7446 34.6836 27.1744 35.11C27.5791 35.5147 27.9921 35.911 28.4152 36.2906C32.7714 40.2505 38.1476 43.1501 44.0306 44.3441C44.1326 44.3658 44.2346 44.3859 44.3382 44.4043L44.3366 44.406Z" fill="#053853"/>
<path d="M23.35 35.8296C23.6225 36.3715 23.9252 36.8999 24.2496 37.4149C24.0105 37.8029 23.7546 38.1775 23.4787 38.5454C21.1978 41.5972 17.8182 43.9166 13.9804 44.6925C13.0255 44.8965 12.0707 45.0002 11.1292 45.0002C9.81149 45.0002 8.52888 44.7962 7.31818 44.3698C6.22286 43.9868 5.18273 43.4283 4.23958 42.6725C-1.81894 37.7862 -0.872456 28.1189 3.85664 22.5972C8.4854 16.8848 16.4503 15.7812 21.8466 20.1072C22.2396 20.4183 22.6175 20.7644 22.977 21.134C22.7513 21.5905 22.5506 22.0554 22.3767 22.5236C20.8801 26.5387 21.1192 31.0153 23.0506 35.1925C23.1443 35.4049 23.2463 35.6189 23.3533 35.828L23.35 35.8296Z" fill="url(#paint0_linear_1073_3813)"/>
<path d="M26.5306 30.2876C26.4837 31.4765 26.2747 32.6538 25.9202 33.7959C25.7881 34.2224 25.6342 34.6438 25.4637 35.0618C25.4469 35.1003 25.4336 35.1387 25.4118 35.1772C25.3433 35.3428 25.2714 35.505 25.1944 35.6672C25.079 35.4665 24.972 35.2658 24.87 35.0618C24.6576 34.6354 24.457 34.2006 24.2814 33.7608C22.9085 30.3896 22.6526 26.6454 23.9704 23.1203C24.0389 22.9364 24.1108 22.7541 24.1928 22.5752C24.2312 22.627 24.2647 22.6772 24.3031 22.729L24.3199 22.7541C24.4051 22.8779 24.4854 22.9966 24.5673 23.1203C25.6978 24.8896 26.3115 26.7692 26.4821 28.6538C26.5339 29.1989 26.5456 29.7458 26.5289 30.2859L26.5306 30.2876Z" fill="url(#paint1_linear_1073_3813)"/>
<path d="M48.1426 42.3916C46.9837 43.3163 45.6994 43.9852 44.3366 44.4083C43.079 44.8097 41.7613 45.0003 40.4068 45.0003C39.3533 45.0003 38.2797 44.8849 37.2061 44.6541C33.2379 43.8481 29.7078 41.5755 27.176 38.5454C26.4219 37.6508 25.7613 36.6876 25.1978 35.6725V35.6675C25.0824 35.4668 24.9754 35.2662 24.8734 35.0622C24.661 34.6357 24.4603 34.201 24.2847 33.7612C22.9118 30.3899 22.656 26.6458 23.9737 23.1207C24.0423 22.9367 24.1142 22.7545 24.1961 22.5755C24.5456 21.7361 24.9971 20.9083 25.5439 20.1073C25.5607 20.0822 25.5824 20.0521 25.5991 20.027L25.6158 19.9969C31.3533 11.9183 42.5138 12.3665 48.5757 19.8481C53.8834 26.0471 54.9453 36.9 48.1459 42.3899L48.1426 42.3916Z" fill="white"/>
<path d="M48.1426 42.3916C46.9837 43.3163 45.6994 43.9852 44.3366 44.4083C43.079 44.8097 41.7613 45.0003 40.4068 45.0003C39.3533 45.0003 38.2797 44.8849 37.2061 44.6541C33.2379 43.8481 29.7078 41.5755 27.176 38.5454C26.4219 37.6508 25.7613 36.6876 25.1978 35.6725V35.6675C25.0824 35.4668 24.9754 35.2662 24.8734 35.0622C24.661 34.6357 24.4603 34.201 24.2847 33.7612C22.9118 30.3899 22.656 26.6458 23.9737 23.1207C24.0423 22.9367 24.1142 22.7545 24.1961 22.5755C24.5456 21.7361 24.9971 20.9083 25.5439 20.1073C25.5607 20.0822 25.5824 20.0521 25.5991 20.027L25.6158 19.9969C31.3533 11.9183 42.5138 12.3665 48.5757 19.8481C53.8834 26.0471 54.9453 36.9 48.1459 42.3899L48.1426 42.3916Z" fill="url(#paint2_linear_1073_3813)"/>
<path d="M33.7162 9.98662C36.4739 9.98662 38.7095 7.75104 38.7095 4.99331C38.7095 2.23558 36.4739 0 33.7162 0C30.9584 0 28.7229 2.23558 28.7229 4.99331C28.7229 7.75104 30.9584 9.98662 33.7162 9.98662Z" fill="url(#paint3_linear_1073_3813)"/>
<path d="M14.4035 14.5071C17.1612 14.5071 19.3968 12.2715 19.3968 9.51382C19.3968 6.75609 17.1612 4.52051 14.4035 4.52051C11.6457 4.52051 9.41015 6.75609 9.41015 9.51382C9.41015 12.2715 11.6457 14.5071 14.4035 14.5071Z" fill="url(#paint4_linear_1073_3813)"/>
<defs>
<linearGradient id="paint0_linear_1073_3813" x1="22.059" y1="8.6457" x2="2.40514" y2="58.2962" gradientUnits="userSpaceOnUse">
<stop stop-color="#00A28E"/>
<stop offset="1" stop-color="#147385"/>
</linearGradient>
<linearGradient id="paint1_linear_1073_3813" x1="28.4336" y1="19.7023" x2="20.2797" y2="40.3043" gradientUnits="userSpaceOnUse">
<stop stop-color="#00A28E"/>
<stop offset="1" stop-color="#147385"/>
</linearGradient>
<linearGradient id="paint2_linear_1073_3813" x1="30.5724" y1="10.201" x2="46.9536" y2="52.7896" gradientUnits="userSpaceOnUse">
<stop stop-color="#1CD0C4"/>
<stop offset="1" stop-color="#3DB5B4"/>
</linearGradient>
<linearGradient id="paint3_linear_1073_3813" x1="35.0556" y1="8.47492" x2="51.4369" y2="51.0669" gradientUnits="userSpaceOnUse">
<stop stop-color="#1CD0C4"/>
<stop offset="1" stop-color="#3DB5B4"/>
</linearGradient>
<linearGradient id="paint4_linear_1073_3813" x1="15.7396" y1="6.13924" x2="-3.91761" y2="55.8014" gradientUnits="userSpaceOnUse">
<stop stop-color="#00A28E"/>
<stop offset="1" stop-color="#147385"/>
</linearGradient>
</defs>
</svg>
