<svg width="24" height="24" viewBox="0 0 24 24" fill="none" xmlns="http://www.w3.org/2000/svg">
<path fill-rule="evenodd" clip-rule="evenodd" d="M15.602 2.4004C15.3822 2.18063 15.1057 2.1903 14.954 2.21041C14.8107 2.22943 14.639 2.2783 14.4754 2.32485L14.3494 2.36066L14.2469 2.29603C14.1084 2.2085 13.9595 2.11447 13.827 2.05691C13.6777 1.99199 13.4256 1.91813 13.1607 2.05735C12.9008 2.19391 12.8153 2.43838 12.78 2.59395C12.7478 2.7355 12.734 2.91252 12.7209 3.08086L12.711 3.20836L12.7102 3.21899L12.5986 3.31084C12.4653 3.42051 12.327 3.53432 12.2289 3.64157C12.1249 3.75519 11.9647 3.96867 12.0054 4.26591C12.0475 4.5733 12.2701 4.73269 12.4092 4.80983C12.5351 4.87968 12.7009 4.94085 12.8554 4.99786L12.9643 5.03807L13.0045 5.14693C13.0615 5.30143 13.1227 5.46723 13.1925 5.59319C13.2697 5.73229 13.4291 5.95489 13.7365 5.99698C14.0337 6.03768 14.2472 5.87745 14.3608 5.77352C14.4681 5.67541 14.5819 5.53708 14.6915 5.40378L14.7834 5.29221L14.794 5.29137L14.9215 5.28143C15.0899 5.26835 15.2669 5.2546 15.4084 5.22241C15.564 5.18704 15.8085 5.10153 15.945 4.8417C16.0842 4.57681 16.0104 4.32469 15.9455 4.17533C15.8879 4.04291 15.7939 3.89404 15.7064 3.75548L15.6417 3.65302L15.6775 3.52701C15.7241 3.36341 15.7729 3.19167 15.792 3.04833C15.8121 2.89665 15.8217 2.62016 15.602 2.4004ZM14.7025 3.29992L14.6245 3.32207L14.6039 3.32811C14.5285 3.35051 14.3714 3.3972 14.2077 3.37478C14.0401 3.35184 13.9014 3.2618 13.8371 3.2201L13.82 3.20905L13.719 3.14533L13.708 3.2862L13.7065 3.30772C13.7011 3.38701 13.6904 3.54698 13.614 3.69229C13.5387 3.83569 13.4144 3.9358 13.3516 3.98644L13.3343 4.00042L13.2435 4.07516L13.321 4.10379L13.3401 4.11063C13.4118 4.13601 13.57 4.19203 13.6902 4.31222C13.8103 4.43241 13.8664 4.59061 13.8917 4.66226L13.8986 4.68135L13.9272 4.75883L14.002 4.66805L14.0159 4.6508C14.0666 4.58795 14.1667 4.46369 14.3101 4.38833C14.4554 4.31195 14.6154 4.30123 14.6947 4.29592L14.7162 4.29441L14.857 4.2834L14.7933 4.18242L14.7823 4.16525C14.7406 4.101 14.6505 3.96227 14.6276 3.79471C14.6052 3.63095 14.6519 3.47385 14.6743 3.39845L14.6803 3.37786L14.7025 3.29992Z" fill="#999999"/>
<path d="M10.4356 3.17037C10.6517 2.81696 10.5403 2.35533 10.1869 2.13928C9.83351 1.92323 9.37187 2.03458 9.15583 2.38799C8.63762 3.23566 8.7675 4.32796 9.47002 5.03048L9.5679 5.12836C9.76556 5.32603 9.83845 5.61641 9.75757 5.88399C9.63772 6.28049 9.86198 6.69907 10.2585 6.81892C10.655 6.93877 11.0736 6.71451 11.1934 6.31801C11.4343 5.52114 11.2172 4.65636 10.6286 4.0677L10.5307 3.96982C10.3181 3.75728 10.2788 3.42682 10.4356 3.17037Z" fill="#999999"/>
<path d="M7.68677 3.94078C7.4773 3.73131 7.13769 3.73131 6.92822 3.94078C6.71875 4.15025 6.71875 4.48986 6.92822 4.69933C7.13769 4.9088 7.4773 4.9088 7.68677 4.69933C7.89624 4.48986 7.89624 4.15025 7.68677 3.94078Z" fill="#999999"/>
<path d="M18.278 5.60412C18.3593 5.19795 18.0959 4.80283 17.6897 4.7216C17.2835 4.64036 16.8884 4.90377 16.8072 5.30994L16.6632 6.02988C16.5706 6.49286 16.237 6.87073 15.7891 7.02004C14.8305 7.33957 14.1166 8.14824 13.9185 9.13905L13.7745 9.85899C13.6932 10.2652 13.9567 10.6603 14.3628 10.7415C14.769 10.8227 15.1641 10.5593 15.2454 10.1532L15.3893 9.43323C15.4819 8.97024 15.8155 8.59237 16.2634 8.44307C17.222 8.12354 17.9359 7.31487 18.1341 6.32405L18.278 5.60412Z" fill="#999999"/>
<path fill-rule="evenodd" clip-rule="evenodd" d="M22.5241 8.84225C22.7799 9.39616 22.6073 10.025 22.1401 10.4921C21.8693 10.763 21.5063 10.8857 21.183 10.9432C20.8523 11.002 20.5027 11.0032 20.1965 10.9836C19.8872 10.9638 19.6036 10.9215 19.3986 10.8847C19.2956 10.8662 19.2111 10.8488 19.1515 10.8358L19.1051 10.8255L19.0813 10.82L19.0616 10.8154L19.0558 10.814L19.0539 10.8135C19.0538 10.8135 19.0528 10.8132 19.1729 10.3279L19.0528 10.8132C18.8727 10.7687 18.7321 10.6278 18.6875 10.4478L18.6869 10.445L18.6855 10.4392L18.6808 10.4195C18.6769 10.4028 18.6715 10.3791 18.665 10.3493C18.652 10.2897 18.6347 10.2052 18.6161 10.1022C18.5793 9.89715 18.537 9.61358 18.5173 9.30433C18.4976 8.99809 18.4988 8.64853 18.5576 8.31782C18.6151 7.99456 18.7378 7.63155 19.0087 7.36067C19.4758 6.89353 20.1046 6.72087 20.6586 6.97672C21.0787 7.1708 21.352 7.56358 21.4549 8.04587C21.9372 8.1488 22.33 8.42208 22.5241 8.84225ZM19.5966 9.90419C19.7746 9.93559 20.01 9.96958 20.2604 9.98561C20.5237 10.0025 20.7857 9.99818 21.0079 9.95866C21.2375 9.91782 21.3688 9.84929 21.433 9.78503C21.6758 9.54228 21.6572 9.3503 21.6163 9.26158C21.5717 9.1652 21.4121 8.99876 21.0023 8.99986C20.8692 9.00021 20.7415 8.94751 20.6474 8.85341C20.5533 8.75932 20.5006 8.63159 20.501 8.49852C20.502 8.08872 20.3356 7.92907 20.2392 7.88455C20.1505 7.84358 19.9585 7.82502 19.7158 8.06777C19.6515 8.13203 19.583 8.26329 19.5422 8.49292C19.5026 8.71511 19.4983 8.97707 19.5152 9.24045C19.5312 9.49081 19.5652 9.72617 19.5966 9.90419Z" fill="#999999"/>
<path d="M20.3314 13.7297C20.6268 13.4678 21.0474 13.4013 21.4091 13.5595L21.7006 13.6869C22.0801 13.8529 22.5223 13.6797 22.6883 13.3002C22.8542 12.9207 22.6811 12.4785 22.3015 12.3126L22.0101 12.1851C21.1126 11.7927 20.069 11.9575 19.3362 12.6074C19.01 12.8966 18.5353 12.9447 18.1578 12.7267L17.9449 12.6038C17.5862 12.3967 17.1275 12.5196 16.9204 12.8783C16.7133 13.2371 16.8362 13.6958 17.195 13.9029L17.4078 14.0257C18.3445 14.5665 19.5221 14.4473 20.3314 13.7297Z" fill="#999999"/>
<path d="M19.0588 15.3134C19.2683 15.1039 19.6079 15.1039 19.8174 15.3134C20.0269 15.5228 20.0269 15.8624 19.8174 16.0719C19.6079 16.2814 19.2683 16.2814 19.0588 16.0719C18.8494 15.8624 18.8494 15.5228 19.0588 15.3134Z" fill="#999999"/>
<path d="M12.9163 7.1571C12.7068 6.94763 12.3672 6.94763 12.1577 7.1571C11.9482 7.36657 11.9482 7.70619 12.1577 7.91566C12.3672 8.12512 12.7068 8.12512 12.9163 7.91566C13.1257 7.70619 13.1257 7.36657 12.9163 7.1571Z" fill="#999999"/>
<path d="M17.1577 10.1571C17.3672 9.94763 17.7068 9.94763 17.9163 10.1571C18.1257 10.3666 18.1257 10.7062 17.9163 10.9157C17.7068 11.1251 17.3672 11.1251 17.1577 10.9157C16.9482 10.7062 16.9482 10.3666 17.1577 10.1571Z" fill="#999999"/>
<path fill-rule="evenodd" clip-rule="evenodd" d="M9.63944 6.88495C10.2258 7.31966 10.9004 7.99428 11.719 8.81297L15.1867 12.2806C16.0054 13.0993 16.68 13.7739 17.1147 14.3602C17.5638 14.966 17.8803 15.6392 17.6973 16.4145C17.5143 17.1898 16.9301 17.6504 16.2575 17.9914C15.6065 18.3214 14.7014 18.6231 13.6031 18.9891L8.41277 20.7192C7.08289 21.1626 6.00371 21.5223 5.1669 21.6712C4.32249 21.8214 3.46564 21.8062 2.82953 21.1701C2.19343 20.534 2.17827 19.6772 2.32849 18.8328C2.47736 17.9959 2.83712 16.9167 3.28047 15.5867L5.01051 10.3966C5.3766 9.29825 5.67825 8.39319 6.00827 7.74215C6.34924 7.06953 6.80985 6.48538 7.58515 6.30236C8.36045 6.11933 9.03367 6.43582 9.63944 6.88495ZM8.74608 8.0899C8.7286 8.07693 8.71148 8.06444 8.69471 8.0524C8.68319 8.11466 8.67096 8.18159 8.65812 8.25283C8.57313 8.72445 8.46177 9.38395 8.35648 10.1343C8.14385 11.6497 7.96402 13.4816 8.05608 14.8854C8.11181 15.7353 8.29382 16.8348 8.46757 17.7418C8.55362 18.191 8.63609 18.5852 8.69702 18.8669C8.71004 18.9271 8.72206 18.9821 8.73292 19.0314L11.3676 18.1531C11.2983 17.9476 11.2153 17.683 11.1325 17.3749C10.9335 16.635 10.7276 15.6175 10.7276 14.5554C10.7276 13.4401 10.9326 12.4228 11.1335 11.6907C11.2344 11.3227 11.3357 11.0219 11.4128 10.8107C11.4307 10.7615 11.4474 10.7171 11.4625 10.6778L10.7027 9.91798C9.8285 9.0438 9.23219 8.4503 8.74608 8.0899ZM6.4137 10.9305C6.62266 10.3036 6.79648 9.78391 6.95481 9.35352C6.92686 9.53706 6.89875 9.7284 6.87103 9.92591C6.6559 11.4591 6.45664 13.4181 6.55929 14.9835C6.6214 15.9308 6.81848 17.1058 6.99436 18.024C7.08312 18.4874 7.16809 18.8935 7.23091 19.184C7.25995 19.3183 7.28431 19.428 7.30217 19.5075C6.26135 19.8512 5.49458 20.0893 4.90418 20.1944C4.18341 20.3226 3.98397 20.2032 3.89019 20.1095C3.79641 20.0157 3.67708 19.8162 3.8053 19.0955C3.93255 18.3801 4.25523 17.4059 4.7242 15.999L6.4137 10.9305ZM13.0692 17.586L12.7906 17.6788C12.7297 17.4982 12.6554 17.2619 12.581 16.9852C12.5271 16.785 12.4739 16.5662 12.4257 16.3342C12.3128 15.7904 12.2276 15.174 12.2276 14.5554C12.2276 13.6153 12.4018 12.7371 12.58 12.0876C12.6018 12.008 12.6236 11.9322 12.6451 11.8604L14.0817 13.297C14.9559 14.1711 15.5494 14.7675 15.9098 15.2536C16.2636 15.7308 16.2683 15.9389 16.2374 16.0699C16.2065 16.2008 16.1092 16.3849 15.5793 16.6535C15.0395 16.9271 14.242 17.195 13.0692 17.586Z" fill="#999999"/>
</svg>
