<svg width="16" height="16" viewBox="0 0 16 16" fill="none" xmlns="http://www.w3.org/2000/svg">
<path fill-rule="evenodd" clip-rule="evenodd" d="M6.16667 1.33337C6.16667 1.05723 6.39052 0.833374 6.66667 0.833374H9.33333C9.60948 0.833374 9.83333 1.05723 9.83333 1.33337C9.83333 1.60952 9.60948 1.83337 9.33333 1.83337H6.66667C6.39052 1.83337 6.16667 1.60952 6.16667 1.33337ZM8 3.16671C4.96243 3.16671 2.5 5.62914 2.5 8.66671C2.5 11.7043 4.96243 14.1667 8 14.1667C11.0376 14.1667 13.5 11.7043 13.5 8.66671C13.5 5.62914 11.0376 3.16671 8 3.16671ZM1.5 8.66671C1.5 5.07686 4.41015 2.16671 8 2.16671C11.5899 2.16671 14.5 5.07686 14.5 8.66671C14.5 12.2566 11.5899 15.1667 8 15.1667C4.41015 15.1667 1.5 12.2566 1.5 8.66671ZM8 5.50004C8.27614 5.50004 8.5 5.7239 8.5 6.00004V8.66671C8.5 8.94285 8.27614 9.16671 8 9.16671C7.72386 9.16671 7.5 8.94285 7.5 8.66671V6.00004C7.5 5.7239 7.72386 5.50004 8 5.50004Z" fill="white"/>
</svg>
