<svg width="148" height="148" viewBox="0 0 148 148" fill="none" xmlns="http://www.w3.org/2000/svg">
<g filter="url(#filter0_d_209_6911)">
<path d="M68.4375 21.8437C71.3125 19.3854 76.0208 19.3854 78.9375 21.8437L85.5208 27.5104C86.7708 28.5937 89.1042 29.4688 90.7708 29.4688H97.8542C102.271 29.4688 105.896 33.0937 105.896 37.5104V44.5937C105.896 46.2187 106.771 48.5937 107.854 49.8437L113.521 56.4271C115.979 59.3021 115.979 64.0104 113.521 66.9271L107.854 73.5104C106.771 74.7604 105.896 77.0938 105.896 78.7604V85.8438C105.896 90.2604 102.271 93.8854 97.8542 93.8854H90.7708C89.1458 93.8854 86.7708 94.7604 85.5208 95.8437L78.9375 101.51C76.0625 103.969 71.3542 103.969 68.4375 101.51L61.8542 95.8437C60.6042 94.7604 58.2708 93.8854 56.6042 93.8854H49.3958C44.9792 93.8854 41.3542 90.2604 41.3542 85.8438V78.7188C41.3542 77.0938 40.4792 74.7604 39.4375 73.5104L33.8125 66.8854C31.3958 64.0104 31.3958 59.3438 33.8125 56.4688L39.4375 49.8437C40.4792 48.5937 41.3542 46.2604 41.3542 44.6354V37.4687C41.3542 33.0521 44.9792 29.4271 49.3958 29.4271H56.6042C58.2292 29.4271 60.6042 28.5521 61.8542 27.4687L68.4375 21.8437Z" fill="url(#paint0_linear_209_6911)"/>
<path d="M68.6042 74.844C67.7708 74.844 66.9792 74.5107 66.3958 73.9274L56.3125 63.844C55.1042 62.6357 55.1042 60.6357 56.3125 59.4274C57.5208 58.219 59.5208 58.219 60.7292 59.4274L68.6042 67.3024L86.5208 49.3857C87.7292 48.1774 89.7292 48.1774 90.9375 49.3857C92.1458 50.594 92.1458 52.594 90.9375 53.8024L70.8125 73.9274C70.2292 74.5107 69.4375 74.844 68.6042 74.844Z" fill="white"/>
</g>
<defs>
<filter id="filter0_d_209_6911" x="0" y="0" width="147.364" height="147.354" filterUnits="userSpaceOnUse" color-interpolation-filters="sRGB">
<feFlood flood-opacity="0" result="BackgroundImageFix"/>
<feColorMatrix in="SourceAlpha" type="matrix" values="0 0 0 0 0 0 0 0 0 0 0 0 0 0 0 0 0 0 127 0" result="hardAlpha"/>
<feOffset dy="12"/>
<feGaussianBlur stdDeviation="16"/>
<feComposite in2="hardAlpha" operator="out"/>
<feColorMatrix type="matrix" values="0 0 0 0 0.251908 0 0 0 0 0.0276215 0 0 0 0 0.330712 0 0 0 0.15 0"/>
<feBlend mode="normal" in2="BackgroundImageFix" result="effect1_dropShadow_209_6911"/>
<feBlend mode="normal" in="SourceGraphic" in2="effect1_dropShadow_209_6911" result="shape"/>
</filter>
<linearGradient id="paint0_linear_209_6911" x1="52.8818" y1="9.52199" x2="95.8432" y2="125.422" gradientUnits="userSpaceOnUse">
<stop stop-color="#23ADA4"/>
<stop offset="1" stop-color="#23ADA4"/>
</linearGradient>
</defs>
</svg>
