<svg width="24" height="24" viewBox="0 0 24 24" fill="none" xmlns="http://www.w3.org/2000/svg">
<g clip-path="url(#clip0_1080_6279)">
<path d="M20.082 1.29102C20.7406 1.29107 21.3938 1.45326 21.9707 1.76172C22.1906 1.87934 22.2728 2.15315 22.1553 2.37305C22.0377 2.59284 21.7647 2.67592 21.5449 2.55859C21.099 2.3201 20.5927 2.19341 20.082 2.19336H10.8027C9.08524 2.19336 7.68764 3.59109 7.6875 5.30859V9.94043C7.6875 11.658 9.0851 13.0557 10.8027 13.0557H15.4658C15.5959 13.0558 15.72 13.1121 15.8057 13.21L18.0371 15.7607C18.2513 16.0051 18.5392 16.0134 18.7412 15.9375C18.9431 15.8615 19.1543 15.6655 19.1543 15.3408V13.5068C19.1545 13.2577 19.3562 13.0557 19.6055 13.0557H20.082C21.7995 13.0555 23.1973 11.6579 23.1973 9.94043V5.30859C23.1972 4.67743 23.0036 4.06025 22.6484 3.54395L22.4863 3.3291C22.3277 3.1368 22.3548 2.85213 22.5469 2.69336C22.7392 2.53482 23.0238 2.56187 23.1826 2.75391C23.774 3.4706 24.0995 4.37791 24.0996 5.30859V9.94043C24.0996 12.1561 22.2977 13.9588 20.082 13.959H20.0566V15.3408C20.0566 15.9882 19.6646 16.5544 19.0586 16.7822C18.8793 16.8496 18.6945 16.8828 18.5117 16.8828C18.1319 16.8828 17.7627 16.7413 17.4756 16.4766L17.3574 16.3555L17.1943 16.168C16.9925 18.1961 15.2778 19.7852 13.1973 19.7852H10.9053C10.656 19.7851 10.4541 19.5833 10.4541 19.334C10.4541 19.0847 10.656 18.8829 10.9053 18.8828H13.1973C14.9147 18.8828 16.3123 17.485 16.3125 15.7676V15.1602L15.2607 13.959H10.8027C8.58699 13.959 6.78418 12.1562 6.78418 9.94043V8.02051H3.91797C2.20048 8.02068 0.802734 9.41822 0.802734 11.1357V15.7676C0.802945 17.4849 2.20061 18.8826 3.91797 18.8828H4.39453C4.64392 18.8828 4.8457 19.0846 4.8457 19.334V21.167C4.8457 21.4919 5.05689 21.6877 5.25879 21.7637C5.46077 21.8396 5.74868 21.8315 5.96289 21.5869L8.19434 19.0361C8.27998 18.9383 8.40408 18.8829 8.53418 18.8828H9.5C9.74938 18.8828 9.95215 19.0846 9.95215 19.334C9.95211 19.5833 9.74936 19.7852 9.5 19.7852H8.73926L6.64258 22.1816C6.34271 22.5242 5.92245 22.71 5.48828 22.71C5.30558 22.7099 5.12068 22.6768 4.94141 22.6094C4.33527 22.3815 3.94336 21.8146 3.94336 21.167V19.7852H3.91797C1.70245 19.785 -0.0993985 17.9831 -0.0996094 15.7676V11.1357C-0.0996094 8.92006 1.70232 7.11736 3.91797 7.11719H6.78418V5.30859C6.78435 3.09295 8.58705 1.29102 10.8027 1.29102H20.082Z" fill="url(#paint0_linear_1080_6279)" stroke="url(#paint1_linear_1080_6279)" stroke-width="0.2"/>
<path d="M6.56152 15.0996V15.1217C6.56152 15.3158 6.71892 15.4733 6.91308 15.4733C7.10723 15.4733 7.26464 15.3158 7.26464 15.1217V15.0996C7.26464 14.9055 7.10723 14.748 6.91308 14.748C6.71892 14.748 6.56152 14.9055 6.56152 15.0996Z" fill="url(#paint2_linear_1080_6279)"/>
<path d="M8.25638 15.0996V15.1217C8.25638 15.3158 8.41378 15.4733 8.60794 15.4733C8.8021 15.4733 8.9595 15.3158 8.9595 15.1217V15.0996C8.9595 14.9055 8.8021 14.748 8.60794 14.748C8.41378 14.748 8.25638 14.9055 8.25638 15.0996Z" fill="url(#paint3_linear_1080_6279)"/>
<path d="M10.5545 15.0996C10.5545 14.9055 10.3971 14.748 10.203 14.748C10.0088 14.748 9.85139 14.9055 9.85139 15.0996V15.1217C9.85139 15.3158 10.0088 15.4733 10.203 15.4733C10.3971 15.4733 10.5545 15.3158 10.5545 15.1217V15.0996Z" fill="url(#paint4_linear_1080_6279)"/>
<path d="M19.8452 6.67337C19.9227 6.38429 19.883 6.08232 19.7333 5.8231L19.184 4.87163C19.0343 4.61241 18.7927 4.42702 18.5036 4.34954C18.2144 4.27205 17.9125 4.3118 17.6533 4.46148L17.3588 4.63149C17.2784 4.58063 17.196 4.53291 17.1119 4.48862V4.14882C17.1119 3.53096 16.6092 3.02832 15.9914 3.02832H14.8927C14.2748 3.02832 13.7721 3.53101 13.7721 4.14882V4.48862C13.6881 4.53291 13.6056 4.58059 13.5252 4.63149L13.2307 4.46148C12.6956 4.15257 12.009 4.33651 11.7 4.87163L11.1507 5.8231C11.0011 6.08232 10.9613 6.38429 11.0388 6.67337C11.1163 6.96244 11.3017 7.20409 11.5609 7.35376L11.8555 7.52387C11.8537 7.57149 11.8527 7.61902 11.8527 7.66637C11.8527 7.71366 11.8537 7.76124 11.8555 7.80882L11.5609 7.97893C11.0258 8.28788 10.8418 8.97451 11.1507 9.50959L11.7 10.4611C12.009 10.9961 12.6956 11.1801 13.2307 10.8712L13.5252 10.7012C13.6057 10.7521 13.6881 10.7998 13.7722 10.8441V11.1838C13.7722 11.8017 14.2748 12.3044 14.8927 12.3044H15.9914C16.6092 12.3044 17.1119 11.8017 17.1119 11.1838V10.8441C17.196 10.7998 17.2784 10.7521 17.3588 10.7012L17.6533 10.8712C18.1884 11.1801 18.875 10.9961 19.184 10.4611L19.7333 9.50959C19.883 9.25037 19.9227 8.9484 19.8452 8.65932C19.7678 8.37024 19.5824 8.1286 19.3231 7.97893L19.0284 7.80882C19.0303 7.76124 19.0312 7.71371 19.0312 7.66637C19.0312 7.61902 19.0303 7.57149 19.0284 7.52391L19.3231 7.35376C19.5824 7.20409 19.7677 6.96244 19.8452 6.67337ZM19.1661 6.4914C19.1372 6.59907 19.0681 6.68907 18.9716 6.74485L18.4865 7.02493C18.3664 7.09426 18.2983 7.22766 18.3126 7.36557C18.3229 7.46513 18.3281 7.56634 18.3281 7.66637C18.3281 7.7664 18.3229 7.86765 18.3126 7.96716C18.2983 8.10507 18.3664 8.23848 18.4865 8.3078L18.9716 8.58784C19.0681 8.64357 19.1372 8.73362 19.1661 8.84129C19.1949 8.94896 19.1801 9.06146 19.1243 9.15802L18.575 10.1095C18.4599 10.3088 18.2041 10.3773 18.0048 10.2623L17.5196 9.98209C17.3993 9.91266 17.2494 9.92054 17.137 10.0022C16.9744 10.1204 16.7994 10.2217 16.617 10.3031C16.4902 10.3597 16.4087 10.4854 16.4087 10.6242V11.1838C16.4087 11.4139 16.2214 11.6012 15.9913 11.6012H14.8927C14.6625 11.6012 14.4752 11.4139 14.4752 11.1838V10.6242C14.4752 10.4855 14.3937 10.3597 14.267 10.3031C14.0844 10.2217 13.9095 10.1204 13.7468 10.0022C13.6855 9.95757 13.6129 9.93498 13.5401 9.93498C13.4796 9.93498 13.4189 9.95059 13.3643 9.98209L12.8791 10.2623C12.6797 10.3773 12.424 10.3088 12.3089 10.1095L11.7596 9.15802C11.6445 8.95871 11.7131 8.70291 11.9124 8.58784L12.3975 8.3078C12.5175 8.23848 12.5857 8.10507 12.5714 7.96716C12.561 7.86751 12.5558 7.76626 12.5558 7.66637C12.5558 7.56648 12.561 7.46523 12.5714 7.36552C12.5857 7.22762 12.5175 7.09421 12.3975 7.02488L11.9124 6.74485C11.8158 6.68912 11.7468 6.59912 11.7179 6.4914C11.689 6.38368 11.7038 6.27123 11.7596 6.17466L12.3089 5.2232C12.424 5.02388 12.6798 4.95526 12.8791 5.07043L13.3643 5.3506C13.4846 5.42007 13.6346 5.41215 13.7469 5.33049C13.9094 5.21232 14.0844 5.11102 14.267 5.02955C14.3936 4.97298 14.4752 4.84726 14.4752 4.70851V4.14887C14.4752 3.91871 14.6625 3.73149 14.8926 3.73149H15.9913C16.2214 3.73149 16.4087 3.91876 16.4087 4.14887V4.70846C16.4087 4.84716 16.4902 4.97293 16.6169 5.02951C16.7995 5.11098 16.9744 5.21227 17.137 5.33045C17.2494 5.41215 17.3993 5.42007 17.5196 5.35055L18.0048 5.07038C18.1014 5.01465 18.2138 4.99984 18.3216 5.02866C18.4292 5.05754 18.5192 5.12659 18.575 5.22315L19.1243 6.17462C19.1801 6.27123 19.1949 6.38368 19.1661 6.4914Z" fill="url(#paint5_linear_1080_6279)"/>
<path d="M15.442 5.50781C14.252 5.50781 13.2838 6.47597 13.2838 7.66598C13.2838 8.856 14.252 9.82416 15.442 9.82416C16.632 9.82416 17.6002 8.856 17.6002 7.66598C17.6002 6.47597 16.632 5.50781 15.442 5.50781ZM15.442 9.12103C14.6397 9.12103 13.9869 8.4683 13.9869 7.66598C13.9869 6.86367 14.6397 6.21094 15.442 6.21094C16.2443 6.21094 16.897 6.86367 16.897 7.66598C16.897 8.4683 16.2443 9.12103 15.442 9.12103Z" fill="url(#paint6_linear_1080_6279)"/>
</g>
<defs>
<linearGradient id="paint0_linear_1080_6279" x1="6.0117" y1="-1.27669" x2="15.9437" y2="29.0256" gradientUnits="userSpaceOnUse">
<stop stop-color="#23ADA4"/>
<stop offset="1" stop-color="#23ADA4"/>
</linearGradient>
<linearGradient id="paint1_linear_1080_6279" x1="6.0117" y1="-1.27669" x2="15.9437" y2="29.0256" gradientUnits="userSpaceOnUse">
<stop stop-color="#23ADA4"/>
<stop offset="1" stop-color="#23ADA4"/>
</linearGradient>
<linearGradient id="paint2_linear_1080_6279" x1="6.73764" y1="14.6569" x2="7.12024" y2="15.6575" gradientUnits="userSpaceOnUse">
<stop stop-color="#23ADA4"/>
<stop offset="1" stop-color="#23ADA4"/>
</linearGradient>
<linearGradient id="paint3_linear_1080_6279" x1="8.4325" y1="14.6569" x2="8.8151" y2="15.6575" gradientUnits="userSpaceOnUse">
<stop stop-color="#23ADA4"/>
<stop offset="1" stop-color="#23ADA4"/>
</linearGradient>
<linearGradient id="paint4_linear_1080_6279" x1="10.0275" y1="14.6569" x2="10.4101" y2="15.6575" gradientUnits="userSpaceOnUse">
<stop stop-color="#23ADA4"/>
<stop offset="1" stop-color="#23ADA4"/>
</linearGradient>
<linearGradient id="paint5_linear_1080_6279" x1="13.2254" y1="1.86228" x2="18.1641" y2="14.6206" gradientUnits="userSpaceOnUse">
<stop stop-color="#23ADA4"/>
<stop offset="1" stop-color="#23ADA4"/>
</linearGradient>
<linearGradient id="paint6_linear_1080_6279" x1="14.365" y1="4.96523" x2="16.5899" y2="10.9667" gradientUnits="userSpaceOnUse">
<stop stop-color="#23ADA4"/>
<stop offset="1" stop-color="#23ADA4"/>
</linearGradient>
<clipPath id="clip0_1080_6279">
<rect width="24" height="24" fill="white"/>
</clipPath>
</defs>
</svg>
