<svg width="18" height="18" viewBox="0 0 18 18" fill="none" xmlns="http://www.w3.org/2000/svg">
<path d="M10.5 8.25C10.5 7.83579 10.8358 7.5 11.25 7.5C11.6642 7.5 12 7.83579 12 8.25V9.75C12 10.1642 11.6642 10.5 11.25 10.5C10.8358 10.5 10.5 10.1642 10.5 9.75V8.25Z" stroke="url(#paint0_linear_209_6558)" stroke-width="1.5"/>
<path d="M10.5059 14.2522L9.75591 14.25V14.25L10.5059 14.2522ZM10.5103 12.75L11.2603 12.7522V12.75H10.5103ZM2.36218 14.1213L1.83251 14.6523L1.83251 14.6523L2.36218 14.1213ZM2.36218 3.87868L1.83251 3.34769L1.83251 3.34769L2.36218 3.87868ZM2.21481 7.69024L1.84914 8.34506H1.84914L2.21481 7.69024ZM1.50793 6.7421L0.758595 6.7106V6.7106L1.50793 6.7421ZM2.21481 10.3098L1.84914 9.65494H1.84914L2.21481 10.3098ZM1.50793 11.2579L2.25727 11.2264V11.2264L1.50793 11.2579ZM15.7852 7.69024L16.1509 8.34506V8.34506L15.7852 7.69024ZM16.4921 6.7421L17.2414 6.7106V6.7106L16.4921 6.7421ZM15.6378 3.87868L16.1675 3.34769L16.1675 3.34769L15.6378 3.87868ZM15.7852 10.3098L15.4195 10.9646V10.9646L15.7852 10.3098ZM16.4921 11.2579L17.2414 11.2894V11.2894L16.4921 11.2579ZM15.6378 14.1213L16.1675 14.6523L16.1675 14.6523L15.6378 14.1213ZM16.4577 10.749L17.1122 10.3826L17.1122 10.3826L16.4577 10.749ZM16.4577 7.25102L17.1122 7.61736L17.1122 7.61736L16.4577 7.25102ZM1.54226 10.749L0.887818 10.3826L0.887817 10.3826L1.54226 10.749ZM1.54226 7.25102L2.1967 6.88468L2.1967 6.88467L1.54226 7.25102ZM10.5103 5.25H11.2603L11.2603 5.24782L10.5103 5.25ZM10.5048 3.37391L9.75482 3.37609V3.37609L10.5048 3.37391ZM12.3958 3.01418L12.4152 2.26443V2.26443L12.3958 3.01418ZM12.7752 14.9731L12.8069 15.7224H12.8069L12.7752 14.9731ZM10.3946 14.8905L9.86504 14.3594L9.86504 14.3595L10.3946 14.8905ZM10.5059 14.2522L11.2559 14.2544L11.2603 12.7522L10.5103 12.75L9.76027 12.7478L9.75591 14.25L10.5059 14.2522ZM11.2621 12V12.75C11.264 12.75 11.2639 12.7502 11.2633 12.75C11.2631 12.7499 11.2635 12.75 11.2641 12.7507C11.2647 12.7513 11.2647 12.7515 11.2644 12.7508C11.2639 12.7497 11.264 12.7489 11.264 12.75H12.014H12.764C12.764 11.9198 12.0898 11.25 11.2621 11.25V12ZM11.2621 12V11.25C10.4344 11.25 9.76027 11.9198 9.76027 12.75H10.5103H11.2603C11.2603 12.7489 11.2603 12.7497 11.2598 12.7508C11.2596 12.7515 11.2595 12.7513 11.2602 12.7507C11.2608 12.75 11.2612 12.7499 11.261 12.75C11.2603 12.7502 11.2602 12.75 11.2621 12.75V12ZM7.49626 3V3.75H10.1289V3V2.25H7.49626V3ZM9.75591 15V14.25H7.49626V15V15.75H9.75591V15ZM7.49626 15V14.25C6.05737 14.25 5.05347 14.2484 4.29594 14.1468C3.55979 14.0481 3.16964 13.8674 2.89185 13.5903L2.36218 14.1213L1.83251 14.6523C2.4356 15.2539 3.19475 15.5126 4.09655 15.6335C4.97697 15.7516 6.09968 15.75 7.49626 15.75V15ZM7.49626 3V2.25C6.09968 2.25 4.97697 2.24841 4.09655 2.36649C3.19475 2.48743 2.4356 2.7461 1.83251 3.34769L2.36218 3.87868L2.89185 4.40967C3.16964 4.13257 3.55979 3.95191 4.29594 3.85318C5.05347 3.75159 6.05737 3.75 7.49626 3.75V3ZM2.21481 7.69024L1.84914 8.34506C2.08165 8.4749 2.23505 8.72055 2.23505 9H2.98505H3.73505C3.73505 8.15397 3.26714 7.41888 2.58049 7.03543L2.21481 7.69024ZM1.50793 6.7421L2.25727 6.77361C2.31569 5.38409 2.50624 4.79433 2.89185 4.40967L2.36218 3.87868L1.83251 3.34769C1.00513 4.17302 0.817858 5.301 0.758595 6.7106L1.50793 6.7421ZM2.98505 9H2.23505C2.23505 9.27945 2.08165 9.5251 1.84914 9.65494L2.21481 10.3098L2.58049 10.9646C3.26714 10.5811 3.73505 9.84603 3.73505 9H2.98505ZM1.50793 11.2579L0.758595 11.2894C0.817858 12.699 1.00513 13.827 1.83251 14.6523L2.36218 14.1213L2.89185 13.5903C2.50624 13.2057 2.31569 12.6159 2.25727 11.2264L1.50793 11.2579ZM15.0149 9H15.7649C15.7649 8.72055 15.9184 8.4749 16.1509 8.34506L15.7852 7.69024L15.4195 7.03543C14.7329 7.41888 14.2649 8.15397 14.2649 9H15.0149ZM16.4921 6.7421L17.2414 6.7106C17.1821 5.301 16.9949 4.17302 16.1675 3.34769L15.6378 3.87868L15.1081 4.40967C15.4938 4.79433 15.6843 5.38409 15.7427 6.77361L16.4921 6.7421ZM15.7852 10.3098L16.1509 9.65494C15.9184 9.5251 15.7649 9.27945 15.7649 9H15.0149H14.2649C14.2649 9.84603 14.7329 10.5811 15.4195 10.9646L15.7852 10.3098ZM16.4921 11.2579L15.7427 11.2264C15.6843 12.6159 15.4938 13.2057 15.1081 13.5903L15.6378 14.1213L16.1675 14.6523C16.9949 13.827 17.1821 12.699 17.2414 11.2894L16.4921 11.2579ZM15.7852 10.3098L15.4195 10.9646C15.6345 11.0846 15.7683 11.1596 15.8571 11.2156C15.9005 11.243 15.9133 11.2537 15.9105 11.2514C15.9081 11.2494 15.8954 11.2388 15.8779 11.2196C15.8607 11.2009 15.8318 11.1662 15.8033 11.1153L16.4577 10.749L17.1122 10.3826C17.0337 10.2424 16.9303 10.1483 16.8674 10.0962C16.7983 10.039 16.7239 9.98894 16.6574 9.94697C16.5263 9.86428 16.3497 9.76599 16.1509 9.65494L15.7852 10.3098ZM16.4921 11.2579L17.2414 11.2894C17.2467 11.1642 17.2533 11.022 17.248 10.9011C17.2426 10.7782 17.2232 10.581 17.1122 10.3826L16.4577 10.749L15.8033 11.1153C15.7732 11.0615 15.7595 11.0147 15.7535 10.9869C15.7481 10.962 15.7488 10.9516 15.7494 10.967C15.7501 10.9822 15.7504 11.0086 15.7492 11.055C15.748 11.1011 15.7457 11.1552 15.7427 11.2264L16.4921 11.2579ZM15.7852 7.69024L16.1509 8.34506C16.3497 8.23401 16.5263 8.13572 16.6574 8.05303C16.7239 8.01106 16.7983 7.96101 16.8674 7.90377C16.9303 7.8517 17.0337 7.75762 17.1122 7.61736L16.4577 7.25102L15.8033 6.88467C15.8318 6.83378 15.8607 6.79914 15.8779 6.78035C15.8954 6.76125 15.9081 6.75064 15.9105 6.74865C15.9133 6.74634 15.9005 6.75698 15.8571 6.78435C15.7683 6.84036 15.6345 6.91538 15.4195 7.03543L15.7852 7.69024ZM16.4921 6.7421L15.7427 6.77361C15.7457 6.84478 15.748 6.89887 15.7492 6.94501C15.7504 6.99139 15.7501 7.01782 15.7494 7.03296C15.7488 7.04843 15.7481 7.03797 15.7535 7.01313C15.7595 6.98532 15.7732 6.93849 15.8033 6.88468L16.4577 7.25102L17.1122 7.61736C17.2232 7.41897 17.2426 7.22179 17.248 7.09888C17.2533 6.97802 17.2467 6.83582 17.2414 6.7106L16.4921 6.7421ZM2.21481 10.3098L1.84914 9.65494C1.65029 9.76599 1.47373 9.86428 1.34265 9.94697C1.27611 9.98894 1.20165 10.039 1.13256 10.0962C1.0697 10.1483 0.966332 10.2424 0.887818 10.3826L1.54226 10.749L2.1967 11.1153C2.16821 11.1662 2.13928 11.2009 2.12207 11.2196C2.10456 11.2388 2.09188 11.2494 2.08947 11.2514C2.08669 11.2537 2.09954 11.243 2.14294 11.2156C2.23172 11.1596 2.36552 11.0846 2.58049 10.9646L2.21481 10.3098ZM1.50793 11.2579L2.25727 11.2264C2.25428 11.1552 2.25203 11.1011 2.25084 11.055C2.24964 11.0086 2.24989 10.9822 2.25056 10.967C2.25124 10.9516 2.25185 10.962 2.24648 10.9869C2.24048 11.0147 2.22682 11.0615 2.1967 11.1153L1.54226 10.749L0.887817 10.3826C0.776761 10.581 0.757415 10.7782 0.752009 10.9011C0.746692 11.022 0.75333 11.1642 0.758595 11.2894L1.50793 11.2579ZM2.21481 7.69024L2.58049 7.03543C2.36552 6.91538 2.23172 6.84036 2.14293 6.78435C2.09954 6.75698 2.08669 6.74634 2.08947 6.74865C2.09188 6.75064 2.10456 6.76125 2.12207 6.78036C2.13928 6.79914 2.16821 6.83378 2.1967 6.88468L1.54226 7.25102L0.887817 7.61736C0.96633 7.75762 1.0697 7.8517 1.13256 7.90377C1.20165 7.96101 1.27611 8.01106 1.34264 8.05303C1.47373 8.13572 1.65029 8.23401 1.84914 8.34506L2.21481 7.69024ZM1.50793 6.7421L0.758595 6.7106C0.75333 6.83582 0.746692 6.97802 0.752009 7.09888C0.757415 7.22179 0.776761 7.41897 0.887818 7.61736L1.54226 7.25102L2.1967 6.88467C2.22682 6.93849 2.24048 6.98532 2.24648 7.01313C2.25185 7.03797 2.25124 7.04843 2.25056 7.03296C2.24989 7.01783 2.24964 6.99139 2.25084 6.94501C2.25203 6.89887 2.25428 6.84479 2.25727 6.77361L1.50793 6.7421ZM10.5103 5.25L11.2603 5.24782L11.2548 3.37173L10.5048 3.37391L9.75482 3.37609L9.76027 5.25218L10.5103 5.25ZM11.2621 6V5.25C11.2602 5.25 11.2603 5.24976 11.261 5.25005C11.2612 5.25013 11.2608 5.24997 11.2602 5.24934C11.2595 5.24871 11.2596 5.24848 11.2598 5.24915C11.2603 5.25033 11.2603 5.25111 11.2603 5.25H10.5103H9.76027C9.76027 6.08019 10.4344 6.75 11.2621 6.75V6ZM12.014 5.25H11.264C11.264 5.25111 11.2639 5.25033 11.2644 5.24915C11.2647 5.24848 11.2647 5.24871 11.2641 5.24934C11.2635 5.24997 11.2631 5.25013 11.2633 5.25005C11.2639 5.24976 11.264 5.25 11.2621 5.25V6V6.75C12.0898 6.75 12.764 6.08019 12.764 5.25H12.014ZM12.014 3.38714H11.264V5.25H12.014H12.764V3.38714H12.014ZM12.3958 3.01418L12.3765 3.76393C14.0228 3.80639 14.6847 3.98723 15.1081 4.40967L15.6378 3.87868L16.1675 3.34769C15.2744 2.45683 14.0201 2.30582 12.4152 2.26443L12.3958 3.01418ZM12.014 3.38714H12.764C12.764 3.59671 12.5914 3.76947 12.3765 3.76393L12.3958 3.01418L12.4152 2.26443C11.7809 2.24807 11.264 2.75906 11.264 3.38714H12.014ZM10.1289 3V3.75C9.92448 3.75 9.75543 3.58452 9.75482 3.37609L10.5048 3.37391L11.2548 3.37174C11.253 2.74994 10.7477 2.25 10.1289 2.25V3ZM12.7752 14.9731L12.8069 15.7224C14.2154 15.6629 15.3421 15.4756 16.1675 14.6523L15.6378 14.1213L15.1081 13.5903C14.7228 13.9747 14.1317 14.1651 12.7436 14.2238L12.7752 14.9731ZM12.014 12.75H11.264V14.2324H12.014H12.764V12.75H12.014ZM10.5059 14.2522L9.75591 14.25C9.75565 14.3409 9.7554 14.4078 9.75382 14.4642C9.75222 14.521 9.74963 14.5487 9.748 14.5606C9.74644 14.5719 9.74838 14.5479 9.76523 14.5073C9.78454 14.4606 9.81708 14.4073 9.86504 14.3594L10.3946 14.8905L10.9242 15.4217C11.1415 15.205 11.2087 14.9494 11.2341 14.7645C11.2565 14.6012 11.2555 14.4095 11.2559 14.2544L10.5059 14.2522ZM9.75591 15V15.75C9.91105 15.75 10.1028 15.7516 10.2661 15.7296C10.4511 15.7048 10.7068 15.6383 10.9242 15.4216L10.3946 14.8905L9.86504 14.3595C9.913 14.3116 9.96646 14.2792 10.0131 14.2601C10.0539 14.2433 10.0779 14.2415 10.0665 14.243C10.0546 14.2446 10.0269 14.2471 9.97013 14.2485C9.91369 14.25 9.84685 14.25 9.75591 14.25V15ZM12.7752 14.9731L12.7436 14.2238C12.6523 14.2276 12.5858 14.2304 12.5297 14.2313C12.4732 14.2322 12.4467 14.2307 12.4365 14.2297C12.427 14.2287 12.4534 14.2301 12.4969 14.2467C12.5466 14.2657 12.6008 14.2977 12.6485 14.3434L12.1295 14.8848L11.6105 15.4262C11.8354 15.6418 12.0962 15.7035 12.2897 15.7225C12.4574 15.739 12.6523 15.729 12.8069 15.7224L12.7752 14.9731ZM12.014 14.2324H11.264C11.264 14.391 11.2623 14.5879 11.2855 14.7555C11.312 14.9466 11.3831 15.2082 11.6105 15.4262L12.1295 14.8848L12.6485 14.3434C12.6978 14.3906 12.7321 14.4446 12.7528 14.4931C12.7708 14.5353 12.7729 14.5607 12.7713 14.5495C12.7697 14.5378 12.7671 14.5097 12.7656 14.4516C12.7641 14.3939 12.764 14.3255 12.764 14.2324H12.014Z" fill="url(#paint1_linear_209_6558)"/>
<defs>
<linearGradient id="paint0_linear_209_6558" x1="10.8757" y1="7.12289" x2="13.1457" y2="10.1844" gradientUnits="userSpaceOnUse">
<stop stop-color="#23ADA4"/>
<stop offset="1" stop-color="#23ADA4"/>
</linearGradient>
<linearGradient id="paint1_linear_209_6558" x1="5.25731" y1="1.49154" x2="10.4307" y2="18.9352" gradientUnits="userSpaceOnUse">
<stop stop-color="#23ADA4"/>
<stop offset="1" stop-color="#23ADA4"/>
</linearGradient>
</defs>
</svg>
