<svg width="16" height="16" viewBox="0 0 16 16" fill="none" xmlns="http://www.w3.org/2000/svg">
<path d="M10.1378 9.057L8.46469 7.80216V5.24602C8.46469 4.989 8.25694 4.78125 7.99992 4.78125C7.74291 4.78125 7.53516 4.989 7.53516 5.24602V8.03456C7.53516 8.18095 7.60395 8.319 7.72106 8.40637L9.58008 9.80065C9.66373 9.86339 9.76134 9.8936 9.85847 9.8936C10.0002 9.8936 10.1396 9.82992 10.2307 9.70723C10.3851 9.50224 10.3432 9.21084 10.1378 9.057Z" fill="url(#paint0_linear_551_14715)"/>
<path d="M8 2C4.6914 2 2 4.6914 2 8C2 11.3086 4.6914 14 8 14C11.3086 14 14 11.3086 14 8C14 4.6914 11.3086 2 8 2ZM8 13.0705C5.20449 13.0705 2.92951 10.7955 2.92951 8C2.92951 5.20449 5.20449 2.92951 8 2.92951C10.796 2.92951 13.0705 5.20449 13.0705 8C13.0705 10.7955 10.7955 13.0705 8 13.0705Z" fill="url(#paint1_linear_551_14715)"/>
<defs>
<linearGradient id="paint0_linear_551_14715" x1="8.2337" y1="4.1386" x2="11.9924" y2="9.6693" gradientUnits="userSpaceOnUse">
<stop stop-color="#23ADA4"/>
<stop offset="1" stop-color="#23ADA4"/>
</linearGradient>
<linearGradient id="paint1_linear_551_14715" x1="5.00585" y1="0.491543" x2="11.1913" y2="17.1764" gradientUnits="userSpaceOnUse">
<stop stop-color="#23ADA4"/>
<stop offset="1" stop-color="#23ADA4"/>
</linearGradient>
</defs>
</svg>
