<svg width="18" height="18" viewBox="0 0 18 18" fill="none" xmlns="http://www.w3.org/2000/svg">
<path d="M12 4.5H11.5C11.5 5.88071 10.3807 7 9 7V7.5V8C10.933 8 12.5 6.433 12.5 4.5H12ZM9 7.5V7C7.61929 7 6.5 5.88071 6.5 4.5H6H5.5C5.5 6.433 7.067 8 9 8V7.5ZM6 4.5H6.5C6.5 3.11929 7.61929 2 9 2V1.5V1C7.067 1 5.5 2.567 5.5 4.5H6ZM9 1.5V2C10.3807 2 11.5 3.11929 11.5 4.5H12H12.5C12.5 2.567 10.933 1 9 1V1.5ZM6.75 9.75V10.25H11.25V9.75V9.25H6.75V9.75ZM11.25 15.75V15.25H6.75V15.75V16.25H11.25V15.75ZM6.75 15.75V15.25C5.36929 15.25 4.25 14.1307 4.25 12.75H3.75H3.25C3.25 14.683 4.817 16.25 6.75 16.25V15.75ZM14.25 12.75H13.75C13.75 14.1307 12.6307 15.25 11.25 15.25V15.75V16.25C13.183 16.25 14.75 14.683 14.75 12.75H14.25ZM11.25 9.75V10.25C12.6307 10.25 13.75 11.3693 13.75 12.75H14.25H14.75C14.75 10.817 13.183 9.25 11.25 9.25V9.75ZM6.75 9.75V9.25C4.817 9.25 3.25 10.817 3.25 12.75H3.75H4.25C4.25 11.3693 5.36929 10.25 6.75 10.25V9.75Z" fill="white"/>
</svg>
