<svg width="24" height="24" viewBox="0 0 24 24" fill="none" xmlns="http://www.w3.org/2000/svg">
<path d="M11.4863 0.97287C7.99475 0.97287 5.14648 3.83088 5.14648 7.32245C5.14648 9.45682 6.21449 11.3479 7.83984 12.4982C4.04878 14.0172 1.35938 17.7239 1.35938 22.049C1.36518 22.3103 1.47308 22.559 1.65998 22.7418C1.84689 22.9246 2.09794 23.0271 2.35938 23.0271C2.62081 23.0271 2.87186 22.9246 3.05877 22.7418C3.24567 22.559 3.35357 22.3103 3.35938 22.049C3.35938 17.4589 7.06032 13.7599 11.6504 13.7599C13.2526 13.7599 14.7399 14.2167 16.0059 15.0002C16.1179 15.0698 16.2427 15.1166 16.3729 15.1379C16.5031 15.1593 16.6362 15.1547 16.7647 15.1245C16.8931 15.0943 17.0144 15.0391 17.1214 14.962C17.2285 14.8849 17.3193 14.7875 17.3887 14.6753C17.4581 14.563 17.5046 14.4382 17.5256 14.3079C17.5467 14.1776 17.5418 14.0445 17.5113 13.9161C17.4808 13.7877 17.4253 13.6666 17.348 13.5597C17.2706 13.4528 17.173 13.3622 17.0605 13.2931C16.4901 12.9401 15.8709 12.6638 15.2324 12.426C16.8053 11.2698 17.8359 9.41423 17.8359 7.32245C17.8359 3.83088 14.9779 0.97287 11.4863 0.97287ZM11.4863 2.97475C13.897 2.97475 15.8359 4.91175 15.8359 7.32245C15.8359 9.73314 13.897 11.6623 11.4863 11.6623C9.07563 11.6623 7.14648 9.73314 7.14648 7.32245C7.14649 4.91175 9.07563 2.97475 11.4863 2.97475ZM21.6074 14.9768C21.4449 14.9815 21.2859 15.0256 21.1444 15.1056C21.0028 15.1856 20.8828 15.2989 20.7949 15.4357L17.3477 20.6018L15.1855 19.1545C15.0759 19.0808 14.9528 19.0294 14.8233 19.0034C14.6938 18.9773 14.5604 18.9771 14.4308 19.0027C14.3012 19.0283 14.1779 19.0793 14.068 19.1526C13.9581 19.226 13.8638 19.3203 13.7904 19.4301C13.717 19.54 13.6661 19.6632 13.6404 19.7928C13.6148 19.9224 13.615 20.0559 13.641 20.1854C13.667 20.3149 13.7183 20.438 13.792 20.5477C13.8656 20.6573 13.9602 20.7514 14.0703 20.8244L17.0762 22.8244C17.1857 22.8971 17.3084 22.9474 17.4374 22.9726C17.5664 22.9978 17.699 22.9972 17.8278 22.9711C17.9566 22.945 18.079 22.8938 18.1879 22.8204C18.2969 22.7469 18.3903 22.6528 18.4629 22.5432L22.4648 16.5413C22.5692 16.3888 22.6293 16.2104 22.6384 16.0258C22.6476 15.8413 22.6054 15.6577 22.5166 15.4957C22.4278 15.3337 22.2958 15.1994 22.1353 15.1078C21.9748 15.0162 21.7921 14.9708 21.6074 14.9768Z" fill="url(#paint0_linear_394_11371)"/>
<defs>
<linearGradient id="paint0_linear_394_11371" x1="6.68982" y1="-1.79945" x2="18.3668" y2="28.5929" gradientUnits="userSpaceOnUse">
<stop stop-color="#23ADA4"/>
<stop offset="1" stop-color="#23ADA4"/>
</linearGradient>
</defs>
</svg>
