<svg width="24" height="16" viewBox="0 0 24 16" fill="none" xmlns="http://www.w3.org/2000/svg">
<g clip-path="url(#clip0_928_25)">
<path fill-rule="evenodd" clip-rule="evenodd" d="M0 0H34.2V1.23125H0V0ZM0 2.4625H34.2V3.69375H0V2.4625ZM0 4.92188H34.2V6.15625H0V4.92188ZM0 7.38438H34.2V8.61563H0V7.38438ZM0 9.84688H34.2V11.0781H0V9.84688ZM0 12.3063H34.2V13.5375H0V12.3063ZM0 14.7688H34.2V16H0V14.7688Z" fill="#BD3D44"/>
<path fill-rule="evenodd" clip-rule="evenodd" d="M0 1.23125H34.2V2.4625H0V1.23125ZM0 3.69375H34.2V4.92187H0V3.69375ZM0 6.15312H34.2V7.38437H0V6.15312ZM0 8.61562H34.2V9.84687H0V8.61562ZM0 11.0781H34.2V12.3094H0V11.0781ZM0 13.5375H34.2V14.7687H0V13.5375Z" fill="white"/>
<path fill-rule="evenodd" clip-rule="evenodd" d="M0 0H13.6793V8.61563H0V0Z" fill="#192F5D"/>
<path fill-rule="evenodd" clip-rule="evenodd" d="M1.13904 0.368744L1.2656 0.709369H1.66638L1.34294 0.918744L1.46599 1.26249L1.13904 1.04999L0.815601 1.25937L0.938648 0.918744L0.611694 0.709369H1.01951L1.13904 0.368744ZM3.42068 0.368744L3.54373 0.709369H3.94802L3.62107 0.918744L3.74412 1.26249L3.42068 1.04999L3.09373 1.25937L3.21677 0.918744L2.89334 0.709369H3.29412L3.42068 0.368744ZM5.6988 0.368744L5.82537 0.709369H6.22263L5.8992 0.918744L6.02224 1.26249L5.69529 1.04999L5.37185 1.25937L5.4949 0.918744L5.16794 0.709369H5.57224L5.6988 0.368744ZM7.98045 0.368744L8.10349 0.709369H8.50779L8.18084 0.918744L8.3074 1.26249L7.98045 1.04999L7.65349 1.25937L7.78005 0.918744L7.4531 0.709369H7.85388L7.98045 0.368744ZM10.2586 0.368744L10.3851 0.709369H10.7859L10.4625 0.918744L10.5855 1.26249L10.2586 1.04999L9.93513 1.25937L10.0582 0.918744L9.73474 0.709369H10.1355L10.2586 0.368744ZM12.5402 0.368744L12.6633 0.709369H13.0676L12.7406 0.918744L12.8672 1.26249L12.5402 1.04999L12.2133 1.25937L12.3398 0.918744L12.0129 0.709369H12.4172L12.5402 0.368744ZM2.28162 1.23124L2.40466 1.57187H2.80896L2.48201 1.78124L2.60154 2.12187L2.28513 1.91249L1.95818 2.12187L2.07419 1.78124L1.75779 1.57187H2.15857L2.28162 1.23124ZM4.55974 1.23124L4.6863 1.57187H5.08709L4.76013 1.78124L4.88669 2.12187L4.55974 1.91249L4.23279 2.12187L4.35935 1.78124L4.0324 1.57187H4.43669L4.55974 1.23124ZM6.84138 1.23124L6.96443 1.57187H7.36873L7.04177 1.78124L7.16482 2.12187L6.84138 1.91249L6.51443 2.12187L6.63748 1.78124L6.31404 1.57187H6.71482L6.84138 1.23124ZM9.11951 1.23124L9.24607 1.57187H9.64685L9.3199 1.78124L9.44646 2.12187L9.11951 1.91249L8.79607 2.12187L8.91912 1.78124L8.59216 1.57187H8.99998L9.11951 1.23124ZM11.4011 1.23124L11.5242 1.57187H11.9285L11.6015 1.78124L11.7246 2.12187L11.4011 1.91249L11.0742 2.12187L11.1972 1.78124L10.8738 1.57187H11.2746L11.4011 1.23124ZM1.13904 2.09062L1.2656 2.43749H1.66638L1.34294 2.64687L1.46599 2.98749L1.13904 2.77499L0.815601 2.98749L0.938648 2.64374L0.611694 2.43437H1.01951L1.13904 2.09062ZM3.42068 2.09062L3.54373 2.43437H3.94802L3.62107 2.64374L3.74412 2.98437L3.42068 2.77187L3.09373 2.98437L3.21677 2.64062L2.89334 2.43124H3.29412L3.42068 2.09062ZM5.6988 2.09062L5.82537 2.43437H6.22263L5.8992 2.64374L6.02224 2.98437L5.69529 2.77187L5.37185 2.98437L5.4949 2.64062L5.16794 2.43124H5.57224L5.6988 2.09062ZM7.98045 2.09062L8.10349 2.43437H8.50779L8.18084 2.64374L8.3074 2.98437L7.98045 2.77187L7.65349 2.98437L7.78005 2.64062L7.4531 2.43124H7.85388L7.98045 2.09062ZM10.2586 2.09062L10.3851 2.43437H10.7859L10.4625 2.64374L10.5855 2.98437L10.2586 2.77187L9.93513 2.98437L10.0582 2.64062L9.73474 2.43124H10.1355L10.2586 2.09062ZM12.5402 2.09062L12.6633 2.43437H13.0676L12.7406 2.64374L12.8672 2.98437L12.5402 2.77187L12.2133 2.98437L12.3398 2.64062L12.0129 2.43124H12.4172L12.5402 2.09062ZM2.28162 2.95312L2.40466 3.29374H2.80896L2.48201 3.50312L2.60505 3.84687L2.28162 3.63437L1.95466 3.84374L2.07771 3.50312L1.75427 3.29374H2.15505L2.28162 2.95312ZM4.55974 2.95312L4.6863 3.29374H5.08709L4.76013 3.50312L4.88669 3.84687L4.55974 3.63437L4.23279 3.84374L4.35935 3.50312L4.0324 3.29374H4.43669L4.55974 2.95312ZM6.84138 2.95312L6.96443 3.29374H7.36873L7.04177 3.50312L7.16482 3.84687L6.84138 3.63437L6.51443 3.84374L6.63748 3.50312L6.31404 3.29374H6.71482L6.84138 2.95312ZM9.11951 2.95312L9.24607 3.29374H9.64685L9.32341 3.50312L9.44646 3.84687L9.11951 3.63437L8.79607 3.84374L8.91912 3.50312L8.59216 3.29374H8.99998L9.11951 2.95312ZM11.4011 2.95312L11.5242 3.29374H11.9285L11.6015 3.50312L11.7246 3.84687L11.4011 3.63437L11.0742 3.84374L11.1972 3.50312L10.8738 3.29374H11.2746L11.4011 2.95312ZM1.13904 3.81562L1.2656 4.15624H1.66638L1.34294 4.36562L1.46599 4.70937L1.13904 4.49687L0.815601 4.70624L0.938648 4.36562L0.611694 4.15624H1.01951L1.13904 3.81562ZM3.42068 3.81562L3.54373 4.15624H3.94802L3.62107 4.36562L3.74412 4.70624L3.42068 4.49687L3.09373 4.70624L3.21677 4.36562L2.89334 4.15624H3.29412L3.42068 3.81562ZM5.6988 3.81562L5.82537 4.15624H6.22263L5.8992 4.36562L6.02224 4.70937L5.69529 4.49687L5.37185 4.70624L5.4949 4.36562L5.16794 4.15624H5.57224L5.6988 3.81562ZM7.98045 3.81562L8.10349 4.15624H8.50779L8.18084 4.36562L8.3074 4.70937L7.98045 4.49687L7.65349 4.70624L7.78005 4.36562L7.4531 4.15624H7.85388L7.98045 3.81562ZM10.2586 3.81562L10.3851 4.15624H10.7859L10.4625 4.36562L10.5855 4.70937L10.2586 4.49687L9.93513 4.70624L10.0582 4.36562L9.73474 4.15624H10.1355L10.2586 3.81562ZM12.5402 3.81562L12.6633 4.15624H13.0676L12.7406 4.36562L12.8672 4.70937L12.5402 4.49687L12.2133 4.70624L12.3398 4.36562L12.0129 4.15624H12.4172L12.5402 3.81562ZM2.28162 4.67812L2.40466 5.01874H2.80896L2.48201 5.22812L2.60505 5.56874L2.28162 5.35624L1.95466 5.56874L2.07771 5.22499L1.75427 5.01562H2.15505L2.28162 4.67812ZM4.55974 4.67812L4.6863 5.01874H5.08709L4.76013 5.22812L4.88669 5.56874L4.55974 5.35624L4.23279 5.56874L4.35935 5.22499L4.0324 5.01562H4.43669L4.55974 4.67812ZM6.84138 4.67812L6.96443 5.01874H7.36873L7.04177 5.22812L7.16482 5.56874L6.84138 5.35624L6.51443 5.56874L6.63748 5.22499L6.31404 5.01562H6.71482L6.84138 4.67812ZM9.11951 4.67812L9.24607 5.01874H9.64685L9.32341 5.22812L9.44646 5.56874L9.11951 5.35624L8.79607 5.56874L8.91912 5.22499L8.59216 5.01562H8.99998L9.11951 4.67812ZM11.4011 4.67812L11.5242 5.01874H11.9285L11.6015 5.22812L11.7246 5.56874L11.4011 5.35624L11.0742 5.56874L11.1972 5.22499L10.8738 5.01562H11.2746L11.4011 4.67812ZM1.13904 5.53749L1.2656 5.88124H1.66638L1.34294 6.09062L1.46599 6.42812L1.13904 6.21874L0.815601 6.42812L0.938648 6.08749L0.611694 5.87812H1.01951L1.13904 5.53749ZM3.42068 5.53749L3.54373 5.88124H3.94802L3.62107 6.09062L3.74763 6.42812L3.42068 6.21874L3.09373 6.42812L3.22029 6.08749L2.89334 5.87812H3.29412L3.42068 5.53749ZM5.6988 5.53749L5.82537 5.88124H6.22263L5.8992 6.09062L6.02224 6.42812L5.69529 6.21874L5.37185 6.42812L5.4949 6.08749L5.16794 5.87812H5.57224L5.6988 5.53749ZM7.98045 5.53749L8.10349 5.88124H8.50779L8.18084 6.09062L8.3074 6.42812L7.98045 6.21874L7.65349 6.42812L7.78005 6.08749L7.4531 5.87812H7.85388L7.98045 5.53749ZM10.2586 5.53749L10.3851 5.88124H10.7859L10.4625 6.09062L10.5855 6.42812L10.2586 6.21874L9.93513 6.42812L10.0582 6.08749L9.73474 5.87812H10.1355L10.2586 5.53749ZM12.5402 5.53749L12.6633 5.88124H13.0676L12.7406 6.09062L12.8672 6.42812L12.5402 6.21874L12.2133 6.42812L12.3398 6.08749L12.0129 5.87812H12.4172L12.5402 5.53749ZM2.28162 6.39999L2.40466 6.74062H2.80896L2.48201 6.94999L2.60505 7.29374L2.28162 7.08124L1.95466 7.29062L2.07771 6.94999L1.75427 6.74062H2.15505L2.28162 6.39999ZM4.55974 6.39999L4.6863 6.74062H5.08709L4.76013 6.94999L4.88669 7.29374L4.55974 7.08124L4.23279 7.29062L4.35935 6.94999L4.0324 6.74062H4.43669L4.55974 6.39999ZM6.84138 6.39999L6.96443 6.74062H7.36873L7.04177 6.94999L7.16482 7.29374L6.84138 7.08124L6.51443 7.29062L6.63748 6.94999L6.31404 6.74062H6.71482L6.84138 6.39999ZM9.11951 6.39999L9.24607 6.74062H9.64685L9.32341 6.94999L9.44646 7.29374L9.11951 7.08124L8.79607 7.29062L8.91912 6.94999L8.59216 6.74062H8.99998L9.11951 6.39999ZM11.4011 6.39999L11.5242 6.74062H11.9285L11.6015 6.94999L11.7246 7.29374L11.4011 7.08124L11.0742 7.29062L11.1972 6.94999L10.8738 6.74062H11.2746L11.4011 6.39999ZM1.13904 7.26249L1.2656 7.60312H1.66638L1.34294 7.81249L1.46599 8.15312L1.13904 7.94374L0.815601 8.15312L0.938648 7.80937L0.611694 7.59999H1.01951L1.13904 7.26249ZM3.42068 7.26249L3.54373 7.60312H3.94802L3.62107 7.81249L3.74763 8.15312L3.42068 7.94374L3.09373 8.15312L3.22029 7.80937L2.89334 7.59999H3.29412L3.42068 7.26249ZM5.6988 7.26249L5.82537 7.60312H6.22263L5.90623 7.81249L6.02927 8.15312L5.70232 7.94374L5.37888 8.15312L5.50193 7.80937L5.17498 7.59999H5.57927L5.6988 7.26249ZM7.98045 7.26249L8.10349 7.60312H8.50779L8.18084 7.81249L8.3074 8.15312L7.98045 7.94374L7.65349 8.15312L7.78005 7.80937L7.4531 7.59999H7.85388L7.98045 7.26249ZM10.2586 7.26249L10.3851 7.60312H10.7859L10.4625 7.81249L10.5855 8.15312L10.2586 7.94374L9.93513 8.15312L10.0582 7.80937L9.73474 7.59999H10.1355L10.2586 7.26249ZM12.5402 7.26249L12.6633 7.60312H13.0676L12.7406 7.81249L12.8672 8.15312L12.5402 7.94374L12.2133 8.15312L12.3398 7.80937L12.0129 7.59999H12.4172L12.5402 7.26249Z" fill="white"/>
</g>
<defs>
<clipPath id="clip0_928_25">
<rect width="24" height="16" fill="white"/>
</clipPath>
</defs>
</svg>
