<svg width="32" height="32" viewBox="0 0 32 32" fill="none" xmlns="http://www.w3.org/2000/svg">
<path d="M28.7393 13.1006C28.3823 12.8421 27.8039 12.3866 27.7176 12.1898C27.6563 11.9683 27.8778 11.2174 28.0007 10.7745C28.321 9.70362 28.7146 8.36198 27.9517 7.316C27.1885 6.25741 25.7855 6.22045 24.653 6.19581C24.1978 6.18349 23.4346 6.15915 23.2501 6.04827C23.0656 5.90044 22.8192 5.1868 22.6716 4.75591C22.3024 3.68529 21.8222 2.35597 20.5671 1.94972C19.3486 1.55609 18.2654 2.30669 17.293 2.97135C16.8991 3.22976 16.2471 3.68529 16.0007 3.68529C15.7669 3.68529 15.1146 3.22976 14.7209 2.97135C13.7486 2.30669 12.653 1.55609 11.4469 1.94972C10.1915 2.35597 9.72393 3.68529 9.34232 4.76823C9.19479 5.1868 8.94839 5.88812 8.77622 6.03595C8.5794 6.15915 7.81618 6.18349 7.36065 6.19581C6.22844 6.22045 4.8255 6.25741 4.06227 7.316C3.29935 8.36198 3.68096 9.64202 4.0133 10.7745C4.13619 11.2174 4.35765 11.9683 4.29635 12.1898C4.21011 12.3866 3.63169 12.8298 3.27471 13.1006C2.36396 13.7899 1.23145 14.6637 1.23145 15.993C1.23145 17.3343 2.36396 18.1958 3.27471 18.8974C3.63169 19.1558 4.21011 19.5991 4.29635 19.7959C4.35765 20.0296 4.13619 20.7682 4.0133 21.2114C3.69298 22.2944 3.29935 23.636 4.06227 24.682C4.8255 25.7406 6.22844 25.7775 7.36065 25.8022C7.81618 25.8145 8.5794 25.8268 8.7639 25.9497C8.94839 26.0976 9.19479 26.8112 9.34232 27.2298C9.71161 28.3007 10.1915 29.642 11.4469 30.0483C11.681 30.1222 11.9024 30.1592 12.1362 30.1592C13.0716 30.1592 13.9454 29.5681 14.7209 29.0266C15.1146 28.7559 15.7669 28.313 16.0007 28.3007C16.2471 28.313 16.8991 28.7559 17.293 29.0266C18.2654 29.6913 19.3486 30.4422 20.5671 30.0483C21.8222 29.642 22.3024 28.3007 22.6716 27.2298C22.8192 26.8112 23.0656 26.0976 23.2378 25.962C23.4346 25.8268 24.1978 25.8145 24.653 25.8022C25.7855 25.7775 27.1885 25.7406 27.9517 24.682C28.7146 23.636 28.321 22.2944 28.0007 21.2114C27.8778 20.7682 27.6563 20.0296 27.7176 19.8082C27.8039 19.5991 28.3823 19.1558 28.7393 18.8974C29.6377 18.1958 30.7699 17.3343 30.7699 15.993C30.7699 14.6637 29.6377 13.8022 28.7393 13.1006ZM20.58 14.3307L15.5067 19.404C15.0259 19.8848 14.2471 19.8848 13.7663 19.404L11.4346 17.0723C10.9538 16.5915 10.9538 15.8127 11.4346 15.3319C11.9153 14.8512 12.6942 14.8512 13.175 15.3319L14.6365 16.7935L18.8396 12.5903C19.3204 12.1096 20.0992 12.1096 20.58 12.5903C21.0608 13.0711 21.0608 13.85 20.58 14.3307Z" fill="url(#paint0_linear_394_11360)"/>
<defs>
<linearGradient id="paint0_linear_394_11360" x1="8.63046" y1="-1.71893" x2="22.7626" y2="38.0438" gradientUnits="userSpaceOnUse">
<stop stop-color="#23ADA4"/>
<stop offset="1" stop-color="#23ADA4"/>
</linearGradient>
</defs>
</svg>
