<svg width="20" height="20" viewBox="0 0 20 20" fill="none" xmlns="http://www.w3.org/2000/svg">
<path d="M13.7493 10.0622V4.64551C13.7493 2.57444 12.0704 0.895508 9.99935 0.895508C7.92827 0.895508 6.24935 2.57444 6.24935 4.64551V10.0622C6.24935 12.1333 7.92827 13.8122 9.99935 13.8122C12.0704 13.8122 13.7493 12.1333 13.7493 10.0622Z" fill="#22D1D6"/>
<path d="M3.74935 8.81217C4.20959 8.81217 4.58268 9.18527 4.58268 9.64551C4.58268 12.6371 7.00779 15.0622 9.99935 15.0622C12.9909 15.0622 15.416 12.6371 15.416 9.64551C15.416 9.18527 15.7891 8.81217 16.2493 8.81217C16.7096 8.81217 17.0827 9.18527 17.0827 9.64551C17.0827 13.2756 14.352 16.2679 10.8327 16.6803V18.3955C10.8327 18.8557 10.4596 19.2288 9.99935 19.2288C9.53911 19.2288 9.16602 18.8557 9.16602 18.3955V16.6803C5.6467 16.2679 2.91602 13.2756 2.91602 9.64551C2.91602 9.18527 3.28911 8.81217 3.74935 8.81217Z" fill="#22D1D6"/>
</svg>
