<svg width="23" height="15" viewBox="0 0 23 15" fill="none" xmlns="http://www.w3.org/2000/svg">
<path fill-rule="evenodd" clip-rule="evenodd" d="M19.7015 0.448984C20.6539 0.693884 21.4072 1.41499 21.6631 2.32656C22.1322 3.98645 22.1464 7.42867 22.1464 7.42867C22.1464 7.42867 22.1464 10.8845 21.6773 12.5308C21.4215 13.4424 20.6681 14.1635 19.7157 14.4084C17.9957 14.8574 11.0732 14.8574 11.0732 14.8574C11.0732 14.8574 4.15067 14.8574 2.4307 14.4084C1.47832 14.1635 0.724947 13.4424 0.469083 12.5308C0 10.8709 0 7.42867 0 7.42867C0 7.42867 0 3.98645 0.454868 2.34017C0.710732 1.42859 1.46411 0.707495 2.41649 0.462595C4.13646 0.0136023 11.059 0 11.059 0C11.059 0 17.9815 0 19.7015 0.448984ZM14.5984 7.42868L8.85572 10.6124V4.24496L14.5984 7.42868Z" fill="white"/>
</svg>
