<svg width="50" height="50" viewBox="0 0 50 50" fill="none" xmlns="http://www.w3.org/2000/svg">
<g clip-path="url(#clip0_400_8795)">
<path d="M46.7501 19.8525L38.2047 10.4617C36.5138 8.77075 33.7592 8.76851 32.0524 10.4753C31.5116 11.0162 31.1434 11.6639 30.9525 12.3549C29.2525 11.0526 26.8002 11.1821 25.2342 12.7481C24.6956 13.289 24.3274 13.9367 24.1319 14.6253C22.432 13.3276 19.9797 13.4548 18.4161 15.0208C17.8865 15.5504 17.5229 16.1821 17.3251 16.8549L13.2978 12.8276C11.6069 11.1367 8.85238 11.1344 7.14559 12.8412C5.45245 14.5321 5.45245 17.2867 7.14559 18.9798L22.6183 34.4525L13.441 35.8934C10.9614 36.2479 9.09101 38.4025 9.09101 40.9093C9.09101 42.7889 10.6205 44.3184 12.5001 44.3184H33.9297C37.2683 44.3184 40.4069 43.0184 42.7683 40.6571L46.3432 37.0821C48.7023 34.7252 50 31.5889 50 28.2548C50 25.1411 48.8455 22.1571 46.7501 19.8525ZM44.7364 35.4752L41.1614 39.0502C39.2296 40.982 36.6614 42.0456 33.9296 42.0456H12.5C11.8727 42.0456 11.3636 41.5365 11.3636 40.9092C11.3636 39.5274 12.3954 38.3388 13.7795 38.141L25.1772 36.3501C25.6 36.2842 25.9477 35.9865 26.0818 35.5796C26.2136 35.1751 26.1069 34.7274 25.8045 34.4251L8.75234 17.373C7.94556 16.5662 7.94556 15.2525 8.76374 14.4321C9.16825 14.0298 9.69783 13.8275 10.2274 13.8275C10.757 13.8275 11.2865 14.0298 11.6911 14.4343L23.0616 25.8048C23.5048 26.248 24.2253 26.248 24.6684 25.8048C24.8889 25.5821 25.0003 25.2912 25.0003 25.0003C25.0003 24.7093 24.889 24.4185 24.6662 24.1957L20.023 19.5525C19.2162 18.7458 19.2162 17.4343 20.0367 16.6139C20.8412 15.8094 22.1571 15.8094 22.9617 16.6139L27.6071 21.2593C28.0503 21.7025 28.7708 21.7025 29.2139 21.2593C29.4344 21.0366 29.5458 20.7457 29.5458 20.4548C29.5458 20.1638 29.4345 19.873 29.2117 19.6502L26.8412 17.2797C26.0344 16.473 26.0344 15.1615 26.8548 14.3411C27.6594 13.5366 28.9753 13.5366 29.7798 14.3411L32.1616 16.7229C32.1662 16.7251 32.1639 16.7251 32.1639 16.7251L32.1661 16.7274C32.1683 16.7296 32.1683 16.7296 32.1683 16.7296C32.1706 16.7318 32.1706 16.7318 32.1706 16.7318H32.1728C32.1751 16.7318 32.1751 16.7341 32.1751 16.7341C32.6205 17.1568 33.3251 17.1477 33.7591 16.7114C34.2023 16.2682 34.2023 15.5477 33.7591 15.1045L33.6614 15.0068C33.2705 14.616 33.0546 14.0954 33.0546 13.5432C33.0546 12.9909 33.2682 12.4727 33.6728 12.0682C34.4819 11.2636 35.791 11.2659 36.5615 12.0295L45.0706 21.3818C46.7818 23.2661 47.7273 25.707 47.7273 28.2548C47.7273 30.9821 46.6659 33.5457 44.7364 35.4752Z" fill="url(#paint0_linear_400_8795)"/>
<path d="M19.5363 11.7113C17.8819 8.0499 14.2273 5.68164 10.2273 5.68164C4.58864 5.68164 0 10.2703 0 15.9089C0 19.909 2.36815 23.5635 6.02951 25.2203C6.18175 25.2885 6.34091 25.3204 6.49773 25.3204C6.92951 25.3204 7.34319 25.0703 7.5341 24.6522C7.79095 24.0795 7.53633 23.4067 6.96595 23.1476C4.11595 21.859 2.2728 19.018 2.2728 15.9089C2.2728 11.5226 5.84095 7.95433 10.2274 7.95433C13.3365 7.95433 16.1774 9.79748 17.4661 12.6475C17.7229 13.2202 18.3979 13.4771 18.9683 13.2156C19.5409 12.9566 19.7954 12.284 19.5363 11.7113Z" fill="url(#paint1_linear_400_8795)"/>
</g>
<defs>
<linearGradient id="paint0_linear_400_8795" x1="16.9283" y1="4.77907" x2="32.0078" y2="55.8778" gradientUnits="userSpaceOnUse">
<stop stop-color="#23ADA4"/>
<stop offset="1" stop-color="#23ADA4"/>
</linearGradient>
<linearGradient id="paint1_linear_400_8795" x1="4.91901" y1="3.21296" x2="15.0423" y2="30.5185" gradientUnits="userSpaceOnUse">
<stop stop-color="#23ADA4"/>
<stop offset="1" stop-color="#23ADA4"/>
</linearGradient>
<clipPath id="clip0_400_8795">
<rect width="50" height="50" fill="white"/>
</clipPath>
</defs>
</svg>
