<svg width="24" height="24" viewBox="0 0 24 24" fill="none" xmlns="http://www.w3.org/2000/svg">
<g clip-path="url(#clip0_238_7629)">
<path d="M16.2756 14.1199L12.9294 11.6102V6.49789C12.9294 5.98386 12.5139 5.56836 11.9998 5.56836C11.4858 5.56836 11.0703 5.98386 11.0703 6.49789V12.075C11.0703 12.3678 11.2079 12.6439 11.4421 12.8186L15.1602 15.6072C15.3275 15.7326 15.5227 15.7931 15.7169 15.7931C16.0004 15.7931 16.2793 15.6657 16.4615 15.4203C16.7702 15.0103 16.6865 14.4275 16.2756 14.1199Z" fill="#737373"/>
<path d="M12 0C5.3828 0 0 5.3828 0 12C0 18.6172 5.3828 24 12 24C18.6172 24 24 18.6172 24 12C24 5.3828 18.6172 0 12 0ZM12 22.141C6.40898 22.141 1.85902 17.591 1.85902 12C1.85902 6.40898 6.40898 1.85902 12 1.85902C17.592 1.85902 22.141 6.40898 22.141 12C22.141 17.591 17.591 22.141 12 22.141Z" fill="#737373"/>
</g>
<defs>
<clipPath id="clip0_238_7629">
<rect width="24" height="24" fill="white"/>
</clipPath>
</defs>
</svg>
