<svg width="30" height="30" viewBox="0 0 30 30" fill="none" xmlns="http://www.w3.org/2000/svg">
<path fill-rule="evenodd" clip-rule="evenodd" d="M17.7065 21.0452C17.9123 21.0452 18.074 20.8761 18.074 20.6747C18.074 20.4689 17.9123 20.3043 17.7065 20.3043C17.5007 20.3043 17.339 20.4689 17.339 20.6747C17.339 20.8761 17.5007 21.0452 17.7065 21.0452ZM17.7065 21.8375C17.0597 21.8375 16.5451 21.3142 16.5451 20.6747C16.5451 20.0352 17.0596 19.5119 17.7065 19.5119C18.3386 19.5119 18.8678 20.0352 18.8678 20.6747C18.8678 21.3142 18.3386 21.8375 17.7065 21.8375ZM21.3081 24.9452C21.3081 24.7379 21.1464 24.5748 20.9406 24.5748C20.7348 24.5748 20.5731 24.738 20.5731 24.9452C20.5731 25.1451 20.7348 25.3157 20.9406 25.3157C21.1464 25.3157 21.3081 25.1451 21.3081 24.9452ZM22.1019 24.9452C22.1019 25.5847 21.5874 26.108 20.9405 26.108C20.3084 26.108 19.7792 25.5847 19.7792 24.9452C19.7792 24.2999 20.3084 23.7824 20.9405 23.7824C21.5874 23.7824 22.1019 24.2999 22.1019 24.9452ZM20.8524 19.5487C21.0435 19.6398 21.1317 19.8765 21.0435 20.0779L18.3239 25.8743C18.2651 26.0228 18.1181 26.108 17.9711 26.108C17.6928 26.108 17.4813 25.8077 17.6036 25.542L20.3231 19.7398C20.4113 19.5443 20.6466 19.4531 20.8524 19.5487ZM23.7924 22.8092C23.7924 25.2774 21.7932 27.2855 19.3235 27.2855C16.8539 27.2855 14.8546 25.2774 14.8546 22.8092C14.8546 20.3425 16.8539 18.3329 19.3235 18.3329C21.7932 18.3329 23.7924 20.3425 23.7924 22.8092ZM14.3988 24.685H12.9435C10.9001 24.685 10.5179 23.0415 10.1798 20.5424C10.1063 19.9721 10.0181 19.3796 9.90053 18.8519C9.59183 17.5097 8.82737 16.5689 7.56317 15.972C6.40181 15.4164 6.07841 14.7666 6.25481 14.3653C6.46061 13.9214 7.31327 13.7156 8.31287 14.1698L11.0913 15.5751C11.3502 15.7101 11.6646 15.5142 11.6646 15.2208L11.6793 7.83826C11.6793 7.36786 12.0615 6.98272 12.5319 6.98272C13.0023 6.98272 13.3992 7.36786 13.3992 7.83826V14.1741C13.3992 14.3917 13.5756 14.571 13.7814 14.571C14.0019 14.571 14.1783 14.3917 14.1783 14.1741C14.1783 13.7037 14.5752 13.3185 15.0457 13.3185C15.5162 13.3185 15.8983 13.7037 15.8983 14.1741V15.2796C15.8983 15.4957 16.0747 15.675 16.2952 15.675C16.5157 15.675 16.6921 15.4957 16.6921 15.2796C16.6921 14.8033 17.0743 14.4225 17.5448 14.4225C18.0152 14.4225 18.3974 14.8033 18.3974 15.2796V16.3777C18.3974 16.5953 18.5738 16.7746 18.7943 16.7746C19.0148 16.7746 19.1912 16.5953 19.1912 16.3777C19.1912 15.9073 19.5734 15.5222 20.0438 15.5222C20.5142 15.5222 20.9111 15.9073 20.9111 16.3777C20.9111 16.6482 20.8964 17.1289 20.8376 17.7625C20.3672 17.6199 19.8527 17.5405 19.3235 17.5405C16.4127 17.5405 14.0607 19.9029 14.0607 22.8092C14.0607 23.4707 14.1783 24.1043 14.3988 24.685ZM24.5863 22.8092C24.5863 25.7111 22.2342 28.0793 19.3235 28.0793C17.3978 28.0793 15.7072 27.0326 14.7811 25.4788H12.9435C11.6646 25.4788 10.7238 24.9231 10.1652 23.8294C9.48023 22.4762 9.47591 20.5458 9.12143 19.0312C8.87153 17.9375 8.25407 17.1716 7.22507 16.685C5.46101 15.8442 5.21111 14.7299 5.53451 14.0316C5.90201 13.2348 7.12217 12.7585 8.65097 13.4509C8.65097 13.4553 8.66566 13.4553 8.66566 13.4612L10.8707 14.5755L10.8854 7.83826C10.8854 6.9298 11.6204 6.18886 12.5319 6.18886C13.4433 6.18886 14.1783 6.92974 14.1783 7.83826V12.7688C15.1634 12.1662 16.4663 12.7388 16.6627 13.8846C17.5849 13.277 18.9574 13.7966 19.1618 14.9886C20.3171 14.2761 21.7049 15.1301 21.7049 16.3778C21.7049 16.6909 21.6755 17.2877 21.6167 18.0639C23.3808 18.921 24.5863 20.7218 24.5863 22.8092ZM15.2368 9.92578C15.4132 10.0375 15.6631 9.9787 15.7807 9.79348C16.1335 9.20254 16.3246 8.52484 16.3246 7.83832C16.3246 5.75086 14.6193 4.05442 12.5319 4.05442C10.4444 4.05442 8.75387 5.75086 8.75387 7.83832C8.75387 8.52484 8.93027 9.20254 9.29777 9.79348C9.41393 9.98326 9.65369 10.0395 9.84167 9.92578C10.0328 9.81406 10.0916 9.5671 9.97397 9.38188C9.69467 8.91586 9.54767 8.38228 9.54767 7.83832C9.54767 6.18892 10.8854 4.84678 12.5318 4.84678C14.1782 4.84678 15.5307 6.18892 15.5307 7.83832C15.5307 8.38222 15.3837 8.91586 15.1044 9.38188C14.9869 9.5671 15.0457 9.81406 15.2368 9.92578ZM6.60761 7.83832C6.60761 9.45094 7.28381 11.0136 8.45987 12.1294C8.54807 12.2029 8.63627 12.2352 8.73917 12.2352C9.07643 12.2352 9.27905 11.8146 9.00377 11.5532C7.97477 10.5712 7.40141 9.25546 7.40141 7.83838C7.40141 5.01148 9.70937 2.71234 12.5319 2.71234C15.369 2.71234 17.6624 5.01148 17.6624 7.83838C17.6624 9.25552 17.0891 10.5712 16.06 11.5532C15.8983 11.706 15.8983 11.9559 16.0453 12.1133C16.1923 12.272 16.4569 12.2779 16.6039 12.1294C17.78 11.0136 18.4562 9.451 18.4562 7.83832C18.4562 4.57186 15.7954 1.91992 12.5319 1.91992C9.26843 1.91992 6.60761 4.57186 6.60761 7.83832Z" fill="url(#paint0_linear_706_6304)"/>
<defs>
<linearGradient id="paint0_linear_706_6304" x1="10.2162" y1="-1.36844" x2="26.8792" y2="31.5741" gradientUnits="userSpaceOnUse">
<stop stop-color="#23ADA4"/>
<stop offset="1" stop-color="#23ADA4"/>
</linearGradient>
</defs>
</svg>
