<svg width="30" height="30" viewBox="0 0 30 30" fill="none" xmlns="http://www.w3.org/2000/svg">
<g clip-path="url(#clip0_706_6313)">
<path d="M13.8431 20.348C14.0722 20.1189 14.0722 19.7481 13.8431 19.519C13.6137 19.2906 13.2422 19.2906 13.0127 19.519C12.7838 19.7481 12.7838 20.1189 13.0127 20.348C13.2422 20.5764 13.6137 20.5764 13.8431 20.348Z" fill="url(#paint0_linear_706_6313)"/>
<path d="M11.0635 6.44348C11.0635 9.99642 13.9597 12.8872 17.5196 12.8872C21.0795 12.8872 23.9757 9.99642 23.9757 6.44348C23.9757 2.89055 21.0795 0 17.5196 0C13.9597 0 11.0635 2.89055 11.0635 6.44348ZM22.802 6.44348C22.802 9.35051 20.4323 11.7156 17.5196 11.7156C14.6069 11.7156 12.2372 9.35051 12.2372 6.44348C12.2372 3.53668 14.6069 1.17165 17.5196 1.17165C20.4323 1.17165 22.802 3.53668 22.802 6.44348Z" fill="url(#paint1_linear_706_6313)"/>
<path d="M6.78977 29.8266C7.01727 30.0555 7.38764 30.058 7.61811 29.8314L10.4636 27.0335C10.9471 26.5511 11.0941 25.8367 10.8815 25.2158L11.4936 24.6266C11.8231 24.3089 12.257 24.1338 12.7157 24.1338H20.5181C21.9024 24.1338 23.2107 23.6033 24.2025 22.6399C24.2434 22.6003 23.8927 23.0125 29.5255 16.2935C30.361 15.307 30.236 13.8257 29.2467 12.991C28.2635 12.164 26.7908 12.2828 25.953 13.2523L22.4897 16.805C22.0524 16.2679 21.3855 15.933 20.6649 15.933H14.1201C13.1888 15.5441 12.2006 15.3473 11.181 15.3473C8.35472 15.3473 5.8869 16.6501 4.56252 19.0927C4.00456 18.9872 3.4161 19.1557 2.99276 19.5782L0.200671 22.3731C-0.0272825 22.6012 -0.0277411 22.9704 0.199754 23.1993L6.78977 29.8266ZM11.1807 16.5187C12.0797 16.5187 12.9489 16.6993 13.7646 17.0554C13.8389 17.0879 13.9189 17.1046 13.9999 17.1046H20.6649C21.3013 17.1046 21.8388 17.6226 21.8388 18.2761C21.8388 18.9222 21.3123 19.4477 20.6649 19.4477H15.8763C15.5522 19.4477 15.2894 19.71 15.2894 20.0334C15.2894 20.3571 15.5522 20.6191 15.8763 20.6191H20.6649C21.9595 20.6191 23.0126 19.5681 23.0126 18.2761C23.0126 18.1731 23.0052 18.071 22.9919 17.9698C26.3422 14.5327 26.8146 14.0498 26.8348 14.0257C27.2531 13.5329 27.9957 13.4705 28.4896 13.8861C28.9841 14.3034 29.0467 15.044 28.6272 15.5396L23.363 21.8205C22.5943 22.5571 21.585 22.9624 20.5181 22.9624H12.7157C11.9511 22.9624 11.2273 23.2542 10.6783 23.7836L10.1795 24.2641L5.58143 19.6752C6.65607 17.6631 8.67257 16.5187 11.1807 16.5187ZM3.82339 20.406C4.01695 20.2129 4.31416 20.1781 4.55014 20.3236C4.65173 20.3854 4.36002 20.1204 9.63369 25.3764C9.86829 25.6106 9.85568 25.9837 9.6369 26.202L7.21105 28.5872L1.4441 22.7876L3.82339 20.406Z" fill="url(#paint2_linear_706_6313)"/>
<path d="M16.8154 2.92871V3.61513C16.1322 3.85683 15.6415 4.508 15.6415 5.27178C15.6415 6.24063 16.4313 7.02913 17.4023 7.02913C17.7258 7.02913 17.9891 7.29189 17.9891 7.61484C17.9891 7.93779 17.7258 8.20055 17.4023 8.20055C17.1516 8.20055 16.8808 8.04331 16.6402 7.75743C16.4315 7.50978 16.0614 7.47797 15.8132 7.68602C15.5651 7.8943 15.533 8.26372 15.7417 8.51137C16.0554 8.88376 16.4244 9.14331 16.8154 9.27423V9.9579C16.8154 10.2815 17.0782 10.5436 17.4023 10.5436C17.7263 10.5436 17.9891 10.2815 17.9891 9.9579V9.27149C18.6723 9.02956 19.163 8.37839 19.163 7.61484C19.163 6.64575 18.3732 5.85748 17.4023 5.85748C17.0787 5.85748 16.8154 5.59473 16.8154 5.27178C16.8154 4.94882 17.0787 4.68584 17.4023 4.68584C17.6103 4.68584 17.8297 4.79181 18.037 4.99208C18.27 5.21707 18.6416 5.21089 18.867 4.97858C19.0924 4.74603 19.0862 4.37525 18.8535 4.15025C18.5556 3.86255 18.2574 3.69981 17.9891 3.61101V2.92871C17.9891 2.60507 17.7263 2.34277 17.4023 2.34277C17.0782 2.34277 16.8154 2.60507 16.8154 2.92871Z" fill="url(#paint3_linear_706_6313)"/>
</g>
<defs>
<linearGradient id="paint0_linear_706_6313" x1="13.135" y1="19.2004" x2="13.7381" y2="20.8302" gradientUnits="userSpaceOnUse">
<stop stop-color="#23ADA4"/>
<stop offset="1" stop-color="#23ADA4"/>
</linearGradient>
<linearGradient id="paint1_linear_706_6313" x1="14.2979" y1="-1.61998" x2="20.9309" y2="16.3069" gradientUnits="userSpaceOnUse">
<stop stop-color="#23ADA4"/>
<stop offset="1" stop-color="#23ADA4"/>
</linearGradient>
<linearGradient id="paint2_linear_706_6313" x1="7.5564" y1="10.2331" x2="13.3027" y2="36.7585" gradientUnits="userSpaceOnUse">
<stop stop-color="#23ADA4"/>
<stop offset="1" stop-color="#23ADA4"/>
</linearGradient>
<linearGradient id="paint3_linear_706_6313" x1="16.4955" y1="1.31189" x2="22.9006" y2="8.81015" gradientUnits="userSpaceOnUse">
<stop stop-color="#23ADA4"/>
<stop offset="1" stop-color="#23ADA4"/>
</linearGradient>
<clipPath id="clip0_706_6313">
<rect width="30" height="30" fill="white"/>
</clipPath>
</defs>
</svg>
