<svg width="50" height="50" viewBox="0 0 50 50" fill="none" xmlns="http://www.w3.org/2000/svg">
<g clip-path="url(#clip0_400_8781)">
<path d="M49.1142 21.4199C48.5958 20.6371 47.81 20.0977 46.8964 19.8932C47.4857 18.766 47.4617 17.3595 46.711 16.2262C46.1769 15.4194 45.3712 14.8983 44.4942 14.7011C44.6507 14.4027 44.7662 14.0808 44.8353 13.7413C45.0268 12.7971 44.8399 11.8351 44.3077 11.0321C43.7893 10.2489 43.0035 9.70952 42.0898 9.50543C42.6792 8.37819 42.6552 6.97171 41.9044 5.83798C40.807 4.18049 38.5647 3.72464 36.9068 4.82251L33.3172 7.19983C31.4037 6.22937 29.3686 5.54082 27.2564 5.14866C26.5888 4.1351 25.8125 3.19287 24.9435 2.35058L23.4585 0.911296C22.3709 -0.143087 20.6653 -0.301397 19.4027 0.535167C17.9088 1.52432 17.4984 3.54458 18.4875 5.03842C18.5264 5.09755 18.5646 5.15706 18.6024 5.21657C13.7344 6.20152 9.29792 8.78484 6.01423 12.5702C2.45091 16.6782 0.488251 21.9394 0.488251 27.3846C0.488251 28.4283 0.559586 29.4739 0.700729 30.4916C1.7883 38.4037 7.05869 45.2221 14.4546 48.2864C17.1974 49.4232 20.1076 50 23.1033 50C27.8477 50 32.3891 48.547 36.2369 45.7985C40.0013 43.1091 42.8177 39.3978 44.3821 35.0658C44.5282 34.6622 44.3188 34.2163 43.9152 34.0706C43.5112 33.9249 43.0656 34.1339 42.9199 34.5379C41.4631 38.5719 38.8397 42.028 35.3329 44.5332C31.7505 47.0924 27.5215 48.4451 23.1033 48.4451C20.8191 48.4451 18.5886 48.0846 16.4539 47.3736L22.7794 43.1847C22.7798 43.1843 22.7802 43.1843 22.7806 43.1839C22.781 43.1839 22.781 43.1835 22.7814 43.1831L28.0384 39.7018H28.0388C28.5107 39.389 28.833 38.9114 28.9459 38.3564C29.0588 37.8013 28.949 37.2352 28.6362 36.7634L28.5667 36.6581L29.5879 35.9817C30.3165 35.4992 31.1928 35.31 32.0557 35.4484C33.305 35.6491 34.5737 35.3744 35.6281 34.676L44.0983 29.0668C44.0403 29.8015 43.9449 30.5321 43.8118 31.2504C43.7332 31.6727 44.0121 32.0785 44.4344 32.1567C44.482 32.1659 44.5301 32.1701 44.577 32.1701C44.9444 32.1701 45.2709 31.9084 45.3403 31.5342C45.5559 30.3749 45.6799 29.1874 45.7119 27.9983L48.0988 26.4175C48.9018 25.8858 49.4499 25.0728 49.6414 24.1291C49.8333 23.1849 49.646 22.2229 49.1142 21.4199ZM31.8077 8.19928L29.4323 9.77246L28.9646 8.51247C28.7693 7.9868 28.5454 7.47144 28.2974 6.96713C29.5025 7.27269 30.6759 7.68468 31.8077 8.19928ZM7.18877 13.5891C10.3447 9.95099 14.6435 7.50539 19.3462 6.65738C20.1008 8.48538 20.2816 10.5278 19.8307 12.4744L17.9352 20.6634C17.6372 20.3453 17.2504 20.1259 16.8148 20.0374C16.2594 19.9241 15.6936 20.0344 15.2218 20.3472L9.85258 23.9025C9.85219 23.9025 9.85219 23.9025 9.85181 23.9029C9.85181 23.9029 9.85143 23.9029 9.85143 23.9033L2.10759 29.0314C2.06525 28.4851 2.04312 27.9346 2.04312 27.3846C2.04312 22.3141 3.87075 17.4145 7.18877 13.5891ZM27.4223 38.0463C27.3922 38.1943 27.306 38.3221 27.1797 38.4056H27.1801L22.5628 41.4631L13.9931 28.6827C13.7539 28.326 13.2709 28.231 12.9143 28.4702C12.558 28.7094 12.4626 29.192 12.7018 29.5486L21.2662 42.3218L14.6747 46.6869C8.1249 43.8221 3.43778 37.772 2.31091 30.7319L10.0639 25.6145L10.9562 26.9459C11.1065 27.1694 11.3521 27.2903 11.6028 27.2903C11.7515 27.2903 11.9022 27.248 12.035 27.1587C12.3916 26.9195 12.487 26.4366 12.2478 26.0799L11.3617 24.7581L16.0805 21.6434C16.206 21.5599 16.3566 21.5309 16.5047 21.561C16.6527 21.5912 16.7805 21.6774 16.864 21.8033L27.3399 37.6221C27.4231 37.7476 27.4525 37.8982 27.4223 38.0463ZM48.1178 23.8193C48.0087 24.3564 47.6971 24.8188 47.2401 25.1213L44.5114 26.9283C44.5107 26.9287 44.5099 26.9295 44.5087 26.9298L34.7694 33.3797C34.0408 33.8623 33.1646 34.0519 32.3017 33.913C31.0528 33.7128 29.784 33.987 28.7292 34.6855L27.708 35.3619L19.128 22.406L21.3459 12.8254C21.9169 10.3573 21.616 7.75754 20.528 5.49275C20.5181 5.4691 20.5074 5.44621 20.4952 5.4237C20.2862 4.9957 20.0489 4.58027 19.7838 4.17973C19.268 3.40077 19.482 2.34753 20.2614 1.8314C20.9198 1.39538 21.8094 1.47778 22.3762 2.02748L23.8613 3.46714C25.4677 5.02469 26.7284 6.95645 27.5066 9.05377L28.3153 11.2323C28.3169 11.2365 28.3184 11.24 28.3199 11.2438C28.3218 11.2488 28.3241 11.2541 28.326 11.2591C28.3317 11.2724 28.3371 11.2846 28.3428 11.2949C28.3584 11.3277 28.3756 11.3601 28.3962 11.391C28.6335 11.7492 29.1157 11.8473 29.4735 11.61L37.7655 6.11912C38.7085 5.49466 39.9837 5.75368 40.6082 6.69667C41.2327 7.63966 40.9737 8.91492 40.0307 9.53938L39.3108 10.0162C39.3108 10.0162 39.3105 10.0162 39.3101 10.0166L37.7045 11.0801C37.7022 11.0817 37.7006 11.0832 37.6984 11.0843C37.6892 11.0908 37.6804 11.0969 37.6732 11.103C37.3413 11.3468 37.2555 11.8103 37.4855 12.1574C37.7224 12.5156 38.205 12.6137 38.5632 12.3764L40.1699 11.3121C40.6265 11.0103 41.1732 10.9039 41.7099 11.013C42.2466 11.1221 42.7094 11.4338 43.0115 11.8908C43.314 12.3474 43.4208 12.8948 43.3117 13.4315C43.2026 13.9686 42.8909 14.431 42.4339 14.7335L40.1077 16.2742C39.7495 16.5111 39.6515 16.9933 39.8888 17.3515C40.0383 17.5773 40.2855 17.6998 40.5376 17.6998C40.6849 17.6998 40.834 17.6578 40.966 17.5705L41.3261 17.3321L42.572 16.5069C43.5154 15.8825 44.7903 16.1415 45.4147 17.0845C46.0392 18.0279 45.7802 19.3027 44.8372 19.9276L43.6752 20.697C43.6691 20.7008 43.663 20.705 43.6569 20.7092L42.511 21.468C42.1528 21.7048 42.0547 22.1874 42.292 22.5456C42.4416 22.7714 42.6888 22.8939 42.9409 22.8939C43.0882 22.8939 43.2373 22.8519 43.3693 22.7646L43.7294 22.5261C43.7294 22.5261 43.7294 22.5258 43.7298 22.5258L44.9757 21.701C45.4323 21.3985 45.9793 21.2917 46.5164 21.4012C47.0535 21.5099 47.5159 21.822 47.8184 22.2786C48.1205 22.7352 48.2269 23.2826 48.1178 23.8193Z" fill="url(#paint0_linear_400_8781)"/>
</g>
<defs>
<linearGradient id="paint0_linear_400_8781" x1="12.8189" y1="-6.28524" x2="38.8969" y2="62.9702" gradientUnits="userSpaceOnUse">
<stop stop-color="#23ADA4"/>
<stop offset="1" stop-color="#23ADA4"/>
</linearGradient>
<clipPath id="clip0_400_8781">
<rect width="50" height="50" fill="white"/>
</clipPath>
</defs>
</svg>
