<svg width="50" height="50" viewBox="0 0 50 50" fill="none" xmlns="http://www.w3.org/2000/svg">
<path d="M44.7916 10.4163V31.2497C44.7916 34.1214 42.455 36.458 39.5833 36.458H35.0626C34.2377 36.458 33.432 36.7912 32.8511 37.3715L25.7365 44.4862C25.533 44.6896 25.2665 44.7913 25 44.7913C24.7335 44.7913 24.4669 44.6896 24.2635 44.4862L17.1488 37.3715C16.568 36.7912 15.7623 36.458 14.9373 36.458H10.4166C7.54494 36.458 5.20831 34.1214 5.20831 31.2497V15.6247C5.20831 15.0494 5.67472 14.583 6.24998 14.583C6.82524 14.583 7.29165 15.0494 7.29165 15.6247V31.2497C7.29165 32.9729 8.69342 34.3747 10.4166 34.3747H14.9373C16.3106 34.3747 17.6534 34.9301 18.6218 35.8985L25 42.2767L31.3782 35.8985C32.3466 34.9301 33.6894 34.3747 35.0626 34.3747H39.5833C41.3065 34.3747 42.7083 32.9729 42.7083 31.2497V10.4163C42.7083 8.69311 41.3065 7.29134 39.5833 7.29134H10.4166C8.69342 7.29134 7.29165 8.69311 7.29165 10.4163V11.458C7.29165 12.0333 6.82524 12.4997 6.24998 12.4997C5.67472 12.4997 5.20831 12.0333 5.20831 11.458V10.4163C5.20831 7.54463 7.54494 5.20801 10.4166 5.20801H39.5833C42.455 5.20801 44.7916 7.54463 44.7916 10.4163ZM10.4548 21.3538C10.3723 20.9873 10.4789 20.5898 10.7854 20.3305L16.2526 15.704C21.3216 11.4153 28.6784 11.4153 33.7473 15.704L39.2146 20.3305C39.5211 20.5898 39.6276 20.9873 39.5452 21.3538C39.6276 21.7204 39.5211 22.1179 39.2146 22.3772L33.7473 27.0037C31.2129 29.148 28.1067 30.2202 25 30.2202C21.8933 30.2202 18.7871 29.148 16.2526 27.0037L10.7854 22.3772C10.4789 22.1179 10.3723 21.7204 10.4548 21.3538ZM12.8008 21.3538L17.5984 25.4137C21.8872 29.0422 28.1138 29.0422 32.4015 25.4137L37.1991 21.3538L32.4015 17.294C28.1138 13.666 21.8872 13.667 17.5984 17.294L12.8008 21.3538ZM20.3125 21.3538C20.3125 18.769 22.4151 16.6663 25 16.6663C27.5848 16.6663 29.6875 18.769 29.6875 21.3538C29.6875 23.9387 27.5848 26.0413 25 26.0413C22.4151 26.0413 20.3125 23.9387 20.3125 21.3538ZM22.3958 21.3538C22.3958 22.7897 23.5641 23.958 25 23.958C26.4358 23.958 27.6041 22.7897 27.6041 21.3538C27.6041 19.918 26.4358 18.7497 25 18.7497C23.5641 18.7497 22.3958 19.918 22.3958 21.3538Z" fill="url(#paint0_linear_400_8784)"/>
<defs>
<linearGradient id="paint0_linear_400_8784" x1="15.1234" y1="0.232195" x2="35.527" y2="55.2692" gradientUnits="userSpaceOnUse">
<stop stop-color="#23ADA4"/>
<stop offset="1" stop-color="#23ADA4"/>
</linearGradient>
</defs>
</svg>
