<svg width="30" height="30" viewBox="0 0 30 30" fill="none" xmlns="http://www.w3.org/2000/svg">
<g clip-path="url(#clip0_706_6324)">
<path d="M28.4974 7.06369L25.3127 5.7106V1.38301C25.3092 1.01326 25.1591 0.660002 24.8955 0.400736C24.6318 0.14147 24.2761 -0.00263362 23.9063 3.6541e-05H15.468C15.0983 -0.00263674 14.7425 0.141466 14.4789 0.400732C14.2152 0.659998 14.0652 1.01326 14.0617 1.38301V5.51141L10.4081 7.06369C10.1827 7.16002 10.0044 7.34154 9.91221 7.5687C9.81999 7.79586 9.82126 8.05026 9.91576 8.27649L11.7192 12.4781C12.0209 12.3673 12.3181 12.2701 12.6117 12.1818L10.7801 7.91004L14.0617 6.51579V11.8204C14.3822 11.7567 14.6947 11.7045 14.9992 11.6637V1.38301C15.0004 1.25976 15.0504 1.14199 15.1383 1.05557C15.2262 0.969143 15.3448 0.921113 15.468 0.922016H23.9063C24.0296 0.921113 24.1482 0.969143 24.2361 1.05557C24.3239 1.14199 24.3739 1.25976 24.3751 1.38301V13.1325H21.7116C21.9795 13.4245 22.2232 13.7379 22.4401 14.0696H26.1224C26.2508 14.0779 26.3742 14.122 26.4789 14.1968C26.9337 14.645 27.1519 15.103 27.1274 15.5581C27.085 16.3439 26.3509 16.9351 26.345 16.9398C26.2938 16.9796 26.2515 17.0297 26.2207 17.0868C26.1899 17.1439 26.1713 17.2067 26.1661 17.2714C26.1609 17.336 26.1692 17.401 26.1904 17.4623C26.2116 17.5236 26.2453 17.5798 26.2894 17.6274C26.9753 18.3684 27.2703 19.0807 27.1664 19.7446C26.9942 20.8447 25.7879 21.5367 25.7768 21.5428C25.6763 21.5987 25.5999 21.6897 25.5621 21.7983C25.5244 21.9069 25.5279 22.0256 25.572 22.1318C25.9009 22.9242 25.9263 23.6176 25.6475 24.193C25.1444 25.231 23.8065 25.6191 23.7943 25.6226C23.7206 25.6429 23.653 25.681 23.5974 25.7335C23.5418 25.786 23.4999 25.8513 23.4754 25.9237C23.4508 25.9961 23.4444 26.0734 23.4566 26.1489C23.4688 26.2244 23.4993 26.2957 23.5454 26.3567C23.9919 26.9471 24.1537 27.4742 24.0263 27.9233C23.8417 28.5736 23.1049 28.9565 22.8723 29.063H19.7786C19.6173 29.0752 19.4553 29.0539 19.3026 29.0006C19.1499 28.9472 19.0099 28.863 18.8913 28.753C18.7727 28.643 18.6781 28.5098 18.6134 28.3615C18.5487 28.2133 18.5153 28.0533 18.5153 27.8916C18.5153 27.7299 18.5487 27.5699 18.6134 27.4217C18.6781 27.2734 18.7727 27.1402 18.8913 27.0302C19.0099 26.9202 19.1499 26.8359 19.3026 26.7826C19.4553 26.7293 19.6173 26.708 19.7786 26.7202H20.859C20.9833 26.7202 21.1025 26.6709 21.1903 26.583C21.2782 26.4951 21.3276 26.376 21.3276 26.2517C21.3276 26.1274 21.2782 26.0083 21.1903 25.9204C21.1025 25.8325 20.9833 25.7832 20.859 25.7832H19.7786C19.6173 25.7954 19.4553 25.7741 19.3026 25.7208C19.1499 25.6675 19.0099 25.5832 18.8913 25.4732C18.7727 25.3632 18.6781 25.23 18.6134 25.0817C18.5487 24.9335 18.5153 24.7735 18.5153 24.6118C18.5153 24.4501 18.5487 24.2901 18.6134 24.1419C18.6781 23.9936 18.7727 23.8604 18.8913 23.7504C19.0099 23.6404 19.1499 23.5562 19.3026 23.5028C19.4553 23.4495 19.6173 23.4282 19.7786 23.4404H21.7965C21.8581 23.4406 21.9192 23.4286 21.9761 23.4051C22.0331 23.3816 22.0849 23.3471 22.1285 23.3036C22.1721 23.2601 22.2067 23.2084 22.2303 23.1514C22.2539 23.0945 22.2661 23.0335 22.2661 22.9719C22.2661 22.9103 22.2539 22.8493 22.2303 22.7924C22.2067 22.7354 22.1721 22.6837 22.1285 22.6402C22.0849 22.5967 22.0331 22.5622 21.9761 22.5387C21.9192 22.5152 21.8581 22.5032 21.7965 22.5034H19.7786C19.2074 22.492 18.6551 22.7076 18.2425 23.1028C17.83 23.498 17.591 24.0407 17.5778 24.6118C17.5797 24.9298 17.6546 25.2431 17.7969 25.5274C17.9392 25.8118 18.145 26.0596 18.3984 26.2517C18.145 26.4438 17.9392 26.6916 17.7969 26.976C17.6546 27.2603 17.5797 27.5736 17.5778 27.8916C17.5781 28.3111 17.7081 28.7202 17.95 29.0629H12.9325C12.8021 29.0483 12.6783 28.998 12.5747 28.9174L10.2157 26.8522C9.47853 26.2488 8.02664 26.252 7.96862 26.2517H7.03114V16.4123H7.73792C8.49711 16.3885 9.23198 16.139 9.84874 15.6957C9.90127 15.6621 9.94899 15.6315 9.99236 15.6055C14.803 12.7118 19.2275 13.7699 19.7847 13.9209C20.8063 14.6209 21.709 16.2865 22.4685 18.8735C22.5227 19.119 22.4875 19.3757 22.3692 19.5974C22.2509 19.8192 22.0573 19.9914 21.8233 20.0831C21.2709 20.2921 20.6631 20.0734 19.9634 19.4154C19.216 18.7127 18.3681 17.8544 18.159 17.5213C18.1139 17.4503 18.0503 17.3929 17.9751 17.3552C18.0863 17.0901 18.1822 16.8189 18.2624 16.543C18.2969 16.4236 18.2826 16.2955 18.2226 16.1867C18.1627 16.0779 18.062 15.9973 17.9427 15.9627C17.8234 15.9281 17.6952 15.9422 17.5863 16.002C17.4775 16.0618 17.3968 16.1624 17.362 16.2817C16.3722 19.6897 13.7163 19.6938 13.6027 19.6921C13.4786 19.6896 13.3586 19.7365 13.269 19.8224C13.1794 19.9083 13.1275 20.0263 13.1248 20.1504C13.1221 20.2745 13.1688 20.3946 13.2546 20.4843C13.3403 20.574 13.4582 20.6261 13.5823 20.629H13.5908C14.3925 20.5861 15.1712 20.3454 15.8574 19.9285C16.5436 19.5116 17.116 18.9314 17.5235 18.2396C18.0866 18.893 18.6867 19.5135 19.3211 20.098C20.0297 20.7645 20.7279 21.0993 21.4058 21.0993C21.6623 21.0987 21.9165 21.0512 22.1558 20.9592C22.6083 20.7809 22.9806 20.4445 23.2035 20.0123C23.4265 19.5802 23.485 19.0818 23.3681 18.6097C23.0556 17.5454 22.1046 14.3064 20.2386 13.0973C20.2031 13.0742 20.1645 13.0561 20.1241 13.0434C19.9175 12.9785 15.0065 11.4954 9.50908 14.8025C9.4593 14.8325 9.40425 14.8675 9.34396 14.906C8.87526 15.2503 8.31522 15.4484 7.73427 15.4752H1.40624C1.28195 15.4752 1.16274 15.5246 1.07484 15.6124C0.986932 15.7003 0.937532 15.8195 0.9375 15.9438V27.1888C0.937986 27.5615 1.08632 27.9189 1.34995 28.1824C1.61358 28.4459 1.97097 28.5941 2.34372 28.5944H5.62491C5.99766 28.5941 6.35506 28.4459 6.61869 28.1824C6.88232 27.9189 7.03065 27.5615 7.03114 27.1888H7.97171L7.98693 27.1887C8.37592 27.1887 9.26087 27.2818 9.6099 27.5672L11.9509 29.6169C12.2254 29.8505 12.5702 29.9854 12.9303 30H22.9684C23.0254 30 23.0819 29.9896 23.1352 29.9694C23.1938 29.9471 24.5746 29.4089 24.9262 28.1857C25.0076 27.868 25.0233 27.537 24.9723 27.213C24.9213 26.8891 24.8046 26.5789 24.6294 26.3017C25.422 25.9629 26.0769 25.3662 26.4878 24.6085C26.6656 24.2231 26.7648 23.8061 26.7795 23.3818C26.7943 22.9576 26.7244 22.5348 26.5739 22.1379C27.0608 21.7826 27.9131 21.015 28.0914 19.8969C28.2267 19.0489 27.9526 18.1899 27.2765 17.3388C27.7244 16.8695 28.0014 16.2633 28.0631 15.6176C28.1057 14.8797 27.7943 14.1771 27.1371 13.5295C27.0589 13.4546 26.971 13.3906 26.8757 13.3393L28.9914 8.27244C29.0848 8.04651 29.0854 7.79284 28.9929 7.56653C28.9004 7.34021 28.7223 7.15952 28.4974 7.06369ZM6.09366 27.1888C6.09351 27.313 6.04407 27.4322 5.95619 27.52C5.86831 27.6078 5.74917 27.6572 5.62491 27.6573H2.34372C2.21947 27.6572 2.10033 27.6078 2.01245 27.52C1.92458 27.4321 1.87514 27.313 1.87499 27.1888V16.4123H6.09366V27.1888ZM25.9484 13.1325H25.3127V6.72234L28.1242 7.92208L25.9484 13.1325Z" fill="url(#paint0_linear_706_6324)"/>
<path d="M19.6875 10.5469C20.2438 10.5469 20.7875 10.3819 21.25 10.0729C21.7126 9.76384 22.073 9.32459 22.2859 8.81067C22.4988 8.29676 22.5545 7.73126 22.446 7.18568C22.3374 6.64011 22.0696 6.13897 21.6762 5.74564C21.2829 5.3523 20.7818 5.08444 20.2362 4.97592C19.6906 4.8674 19.1251 4.92309 18.6112 5.13597C18.0973 5.34884 17.658 5.70932 17.349 6.17183C17.0399 6.63435 16.875 7.17812 16.875 7.73438C16.8759 8.48004 17.1724 9.19491 17.6997 9.72217C18.227 10.2494 18.9418 10.546 19.6875 10.5469ZM19.6875 5.85938C20.0583 5.85938 20.4209 5.96934 20.7292 6.17537C21.0375 6.3814 21.2779 6.67423 21.4198 7.01684C21.5617 7.35946 21.5988 7.73646 21.5265 8.10017C21.4541 8.46388 21.2755 8.79798 21.0133 9.0602C20.7511 9.32242 20.417 9.501 20.0533 9.57335C19.6896 9.6457 19.3126 9.60856 18.97 9.46665C18.6274 9.32474 18.3345 9.08441 18.1285 8.77607C17.9225 8.46773 17.8125 8.10522 17.8125 7.73438C17.8131 7.23727 18.0108 6.76069 18.3623 6.40918C18.7138 6.05767 19.1904 5.85994 19.6875 5.85938Z" fill="url(#paint1_linear_706_6324)"/>
<path d="M3.98433 19.0672C4.24315 19.0672 4.45297 18.8573 4.45297 18.5985C4.45297 18.3397 4.24315 18.1299 3.98433 18.1299C3.7255 18.1299 3.51569 18.3397 3.51569 18.5985C3.51569 18.8573 3.7255 19.0672 3.98433 19.0672Z" fill="url(#paint2_linear_706_6324)"/>
</g>
<defs>
<linearGradient id="paint0_linear_706_6324" x1="7.9823" y1="-3.77115" x2="24.2071" y2="37.2578" gradientUnits="userSpaceOnUse">
<stop stop-color="#23ADA4"/>
<stop offset="1" stop-color="#23ADA4"/>
</linearGradient>
<linearGradient id="paint1_linear_706_6324" x1="18.284" y1="4.21479" x2="21.1834" y2="12.0358" gradientUnits="userSpaceOnUse">
<stop stop-color="#23ADA4"/>
<stop offset="1" stop-color="#23ADA4"/>
</linearGradient>
<linearGradient id="paint2_linear_706_6324" x1="3.75046" y1="18.0121" x2="4.23359" y2="19.3153" gradientUnits="userSpaceOnUse">
<stop stop-color="#23ADA4"/>
<stop offset="1" stop-color="#23ADA4"/>
</linearGradient>
<clipPath id="clip0_706_6324">
<rect width="30" height="30" fill="white"/>
</clipPath>
</defs>
</svg>
