<svg width="30" height="30" viewBox="0 0 30 30" fill="none" xmlns="http://www.w3.org/2000/svg">
<path fill-rule="evenodd" clip-rule="evenodd" d="M5.3408 1.90137H25.0342C25.812 1.90137 26.4416 2.532 26.4416 3.30793V26.3176C26.4416 26.8157 26.1774 27.2771 25.746 27.531C25.316 27.7832 24.7835 27.788 24.348 27.5453L22.2651 26.3799C22.1128 26.2952 21.9268 26.3016 21.7798 26.3974L19.3613 27.9748C18.8948 28.2782 18.2922 28.2782 17.8244 27.9748L15.4436 26.4214C15.2886 26.3192 15.0864 26.3192 14.9313 26.4214L12.5506 27.9748C12.0828 28.2782 11.4801 28.2782 11.0137 27.9748L8.59514 26.3974C8.44819 26.3016 8.26217 26.2952 8.10983 26.3799L6.02696 27.5453C5.59151 27.788 5.05902 27.7832 4.62897 27.531C4.19757 27.2771 3.93335 26.8157 3.93335 26.3176V3.30793C3.93335 2.532 4.56293 1.90137 5.3408 1.90137ZM4.87162 3.30793V26.3176C4.87162 26.4836 4.95925 26.6369 5.1035 26.7215C5.2464 26.8061 5.42435 26.8077 5.5686 26.7263L7.65147 25.5624C8.10849 25.307 8.66929 25.3261 9.10743 25.6119L11.526 27.1893C11.681 27.2899 11.8819 27.2899 12.0383 27.1893L14.419 25.6359C14.8855 25.3309 15.4895 25.3309 15.9559 25.6359L18.3367 27.1893C18.4931 27.2899 18.694 27.2899 18.849 27.1893L21.2675 25.6119C21.7057 25.3261 22.2665 25.307 22.7235 25.5624L24.8064 26.7263C24.9506 26.8077 25.1286 26.8061 25.2715 26.7215C25.4157 26.6369 25.5034 26.4836 25.5034 26.3176V3.30793C25.5034 3.04929 25.293 2.84014 25.0342 2.84014H23.6281V6.12108C23.6281 6.31107 23.5135 6.48191 23.3382 6.55535C23.163 6.62719 22.9621 6.58728 22.8273 6.45316L21.7528 5.37868L20.677 6.45316C20.5436 6.58728 20.3414 6.62719 20.1661 6.55535C19.9908 6.48191 19.8763 6.31107 19.8763 6.12108V2.84014H5.3408C5.08196 2.84014 4.87162 3.04929 4.87162 3.30793ZM22.6898 2.84014H20.8146V4.98912L21.4212 4.38402C21.6032 4.20042 21.9011 4.20042 22.0845 4.38402L22.6898 4.98912V2.84014ZM7.21603 22.0851C6.95719 22.0851 6.74689 21.876 6.74689 21.6173C6.74689 21.3587 6.95719 21.1479 7.21603 21.1479H23.1589C23.4178 21.1479 23.6281 21.3587 23.6281 21.6173C23.6281 21.876 23.4178 22.0851 23.1589 22.0851H7.21603ZM23.3935 15.0315V19.272C23.3935 19.5306 23.1832 19.7414 22.9244 19.7414H20.1109C19.852 19.7414 19.6417 19.5306 19.6417 19.272V15.0315C19.6417 14.7713 19.852 14.5621 20.1109 14.5621H22.9244C23.1832 14.5621 23.3935 14.7713 23.3935 15.0315ZM22.4552 15.4993H20.58V18.8042H22.4552V15.4993ZM17.7664 15.7372V19.272C17.7664 19.5306 17.5561 19.7414 17.2973 19.7414H14.4838C14.2249 19.7414 14.0146 19.5306 14.0146 19.272V15.7372C14.0146 15.4785 14.2249 15.2694 14.4838 15.2694H17.2973C17.5561 15.2694 17.7664 15.4785 17.7664 15.7372ZM16.8282 16.2066H14.9529V18.8042H16.8282V16.2066ZM7.21603 23.9611C6.95719 23.9611 6.74689 23.7503 6.74689 23.4917C6.74689 23.233 6.95719 23.0239 7.21603 23.0239H23.1589C23.4178 23.0239 23.6281 23.233 23.6281 23.4917C23.6281 23.7503 23.4178 23.9611 23.1589 23.9611H7.21603ZM10.0296 8.42173C8.93355 8.42173 8.07206 7.60908 8.07206 6.65114C8.07206 5.8337 8.6976 5.12322 9.5604 4.93004V4.60435C9.5604 4.34571 9.77074 4.13496 10.0296 4.13496C10.2884 4.13496 10.4987 4.34571 10.4987 4.60435V4.93004C11.3615 5.12322 11.987 5.8337 11.987 6.65114C11.987 6.90978 11.7768 7.11893 11.5179 7.11893C11.2591 7.11893 11.0487 6.90978 11.0487 6.65114C11.0487 6.17217 10.5769 5.81773 10.0296 5.81773C9.48224 5.81773 9.01038 6.17217 9.01038 6.65114C9.01038 7.12851 9.48224 7.48455 10.0296 7.48455C11.1256 7.48455 11.987 8.29559 11.987 9.25513C11.987 10.0726 11.3615 10.783 10.4987 10.9746V11.3019C10.4987 11.5606 10.2884 11.7697 10.0296 11.7697C9.77074 11.7697 9.5604 11.5606 9.5604 11.3019V10.9746C8.6976 10.783 8.07206 10.0726 8.07206 9.25513C8.07206 8.99648 8.2824 8.78574 8.54124 8.78574C8.80008 8.78574 9.01038 8.99648 9.01038 9.25513C9.01038 9.7341 9.48224 10.0885 10.0296 10.0885C10.5769 10.0885 11.0487 9.7341 11.0487 9.25513C11.0487 8.77616 10.5769 8.42173 10.0296 8.42173ZM12.1394 16.4445V19.272C12.1394 19.5306 11.9291 19.7414 11.6702 19.7414H8.85667C8.59783 19.7414 8.38889 19.5306 8.38889 19.272V16.4445C8.38889 16.1858 8.59783 15.9751 8.85667 15.9751H11.6702C11.9291 15.9751 12.1394 16.1858 12.1394 16.4445ZM11.2011 16.9138H9.32585V18.8042H11.2011V16.9138ZM21.312 10.8581L17.0802 13.5515C16.9778 13.6153 16.8551 13.6393 16.7365 13.6153L12.2257 12.7133L7.69191 15.4322C7.46947 15.5663 7.18099 15.4945 7.04887 15.2726C6.91541 15.0507 6.98684 14.7617 7.20928 14.6292L11.8981 11.816C11.9978 11.7553 12.1165 11.7346 12.2311 11.7569L16.7365 12.659L20.7499 10.1045L19.55 9.86342C19.2966 9.81233 19.1321 9.56646 19.182 9.31261C19.2332 9.05875 19.4799 8.8943 19.7347 8.9438L22.0791 9.4132C22.2045 9.43874 22.3137 9.51378 22.3824 9.62075C22.4471 9.72293 22.4701 9.84587 22.4472 9.96561L21.978 12.3094C21.9267 12.5632 21.6801 12.7277 21.4253 12.6766C21.1718 12.6271 21.0074 12.3796 21.0586 12.1258L21.312 10.8581Z" fill="url(#paint0_linear_706_6334)"/>
<defs>
<linearGradient id="paint0_linear_706_6334" x1="9.57139" y1="-1.40479" x2="24.743" y2="33.618" gradientUnits="userSpaceOnUse">
<stop stop-color="#23ADA4"/>
<stop offset="1" stop-color="#23ADA4"/>
</linearGradient>
</defs>
</svg>
