<svg width="24" height="24" viewBox="0 0 24 24" fill="none" xmlns="http://www.w3.org/2000/svg">
<g clip-path="url(#clip0_1208_6718)">
<mask id="mask0_1208_6718" style="mask-type:luminance" maskUnits="userSpaceOnUse" x="0" y="0" width="24" height="24">
<path d="M24 0H0V24H24V0Z" fill="white"/>
</mask>
<g mask="url(#mask0_1208_6718)">
<path d="M11.9999 5.45457C13.5036 5.45457 14.7272 4.23103 14.7272 2.72731C14.7272 1.22359 13.5036 0 11.9999 0C10.4962 0 9.27271 1.22354 9.27271 2.72726C9.27271 4.23097 10.4962 5.45457 11.9999 5.45457ZM11.9999 1.09089C12.9023 1.09089 13.6363 1.8249 13.6363 2.72726C13.6363 3.62961 12.9023 4.36362 11.9999 4.36362C11.0976 4.36362 10.3636 3.62961 10.3636 2.72726C10.3636 1.8249 11.0976 1.09089 11.9999 1.09089Z" fill="url(#paint0_linear_1208_6718)"/>
<path d="M8.2595 10.9091H15.7404C16.3849 10.9091 16.909 10.3434 16.909 9.64771V9.2983C16.909 8.38689 16.4578 7.55434 15.7307 7.12551C14.8598 6.612 13.5058 6 11.9999 6C10.4941 6 9.14001 6.61205 8.26911 7.12551C7.542 7.55429 7.09082 8.38689 7.09082 9.2983V9.64771C7.09082 10.3434 7.61497 10.9091 8.2595 10.9091ZM8.18172 9.2983C8.18172 8.77896 8.43367 8.29526 8.82307 8.06514C9.57682 7.62087 10.7402 7.09089 11.9999 7.09089C13.2597 7.09089 14.423 7.62092 15.1768 8.06514C15.5662 8.29526 15.8181 8.7789 15.8181 9.2983V9.64771C15.8181 9.76118 15.7537 9.81815 15.7404 9.81815H8.2595C8.2462 9.81815 8.18172 9.76113 8.18172 9.64771V9.2983Z" fill="url(#paint1_linear_1208_6718)"/>
<path d="M4.90914 18.5454C6.41285 18.5454 7.63639 17.3218 7.63639 15.8181C7.63639 14.3144 6.41285 13.0908 4.90914 13.0908C3.40542 13.0908 2.18188 14.3144 2.18188 15.8181C2.18188 17.3218 3.40542 18.5454 4.90914 18.5454ZM4.90914 14.1817C5.81149 14.1817 6.54551 14.9157 6.54551 15.8181C6.54551 16.7204 5.81149 17.4544 4.90914 17.4544C4.00678 17.4544 3.27277 16.7204 3.27277 15.8181C3.27277 14.9157 4.00678 14.1817 4.90914 14.1817Z" fill="url(#paint2_linear_1208_6718)"/>
<path d="M8.6399 20.2163C7.769 19.7028 6.41496 19.0908 4.90909 19.0908C3.40323 19.0908 2.04919 19.7029 1.17828 20.2163C0.451176 20.6451 0 21.4777 0 22.3891V22.7385C0 23.4341 0.524148 23.9999 1.16867 23.9999H8.64952C9.29404 23.9999 9.81819 23.4341 9.81819 22.7385V22.3891C9.81819 21.4777 9.36701 20.6451 8.6399 20.2163ZM8.7273 22.7385C8.7273 22.852 8.66286 22.909 8.64952 22.909H1.16867C1.15538 22.909 1.09089 22.852 1.09089 22.7385V22.3891C1.09089 21.8698 1.34284 21.3861 1.73225 21.156C2.486 20.7117 3.64935 20.1817 4.90909 20.1817C6.16884 20.1817 7.33219 20.7117 8.08594 21.156C8.47535 21.3861 8.7273 21.8697 8.7273 22.3891V22.7385Z" fill="url(#paint3_linear_1208_6718)"/>
<path d="M19.0908 18.5454C20.5945 18.5454 21.8181 17.3218 21.8181 15.8181C21.8181 14.3144 20.5946 13.0908 19.0908 13.0908C17.587 13.0908 16.3635 14.3144 16.3635 15.8181C16.3635 17.3218 17.5871 18.5454 19.0908 18.5454ZM19.0908 14.1817C19.9932 14.1817 20.7272 14.9157 20.7272 15.8181C20.7272 16.7204 19.9932 17.4544 19.0908 17.4544C18.1885 17.4544 17.4544 16.7204 17.4544 15.8181C17.4544 14.9157 18.1885 14.1817 19.0908 14.1817Z" fill="url(#paint4_linear_1208_6718)"/>
<path d="M22.8218 20.2163C21.9509 19.7028 20.5968 19.0908 19.091 19.0908C17.5851 19.0908 16.2311 19.7029 15.3601 20.2163C14.633 20.6451 14.1819 21.4777 14.1819 22.3891V22.7385C14.1819 23.4342 14.706 23.9999 15.3505 23.9999H22.8314C23.4759 23.9999 24.0001 23.4342 24.0001 22.7385V22.3891C24 21.4777 23.5488 20.6451 22.8218 20.2163ZM22.9091 22.7385C22.9091 22.852 22.8447 22.909 22.8313 22.909H15.3505C15.3372 22.909 15.2727 22.852 15.2727 22.7385V22.3891C15.2727 21.8698 15.5247 21.3861 15.9141 21.156C16.6678 20.7117 17.8312 20.1817 19.0909 20.1817C20.3506 20.1817 21.514 20.7117 22.2678 21.156C22.6572 21.3861 22.9091 21.8697 22.9091 22.3891V22.7385Z" fill="url(#paint5_linear_1208_6718)"/>
<path d="M14.7269 18.5455C14.8872 18.5455 15.0454 18.4751 15.1536 18.3409C15.3416 18.1055 15.3032 17.7624 15.0683 17.5739L12.5456 15.5557V12.5455C12.5456 12.244 12.3016 12 12.0001 12C11.6986 12 11.4547 12.2439 11.4547 12.5454V15.5561L8.9319 17.5738C8.69698 17.7624 8.65863 18.1054 8.84666 18.3409C8.95481 18.4751 9.11298 18.5454 9.27334 18.5454C9.39264 18.5454 9.51307 18.5065 9.61371 18.4261L12.0001 16.517L14.3865 18.4261C14.4871 18.5065 14.6075 18.5455 14.7269 18.5455Z" fill="url(#paint6_linear_1208_6718)"/>
</g>
</g>
<defs>
<linearGradient id="paint0_linear_1208_6718" x1="10.639" y1="-0.685665" x2="13.4506" y2="6.8984" gradientUnits="userSpaceOnUse">
<stop stop-color="#23ADA4"/>
<stop offset="1" stop-color="#23ADA4"/>
</linearGradient>
<linearGradient id="paint1_linear_1208_6718" x1="9.55015" y1="5.3829" x2="10.9415" y2="12.8888" gradientUnits="userSpaceOnUse">
<stop stop-color="#23ADA4"/>
<stop offset="1" stop-color="#23ADA4"/>
</linearGradient>
<linearGradient id="paint2_linear_1208_6718" x1="3.54817" y1="12.4052" x2="6.35982" y2="19.9892" gradientUnits="userSpaceOnUse">
<stop stop-color="#23ADA4"/>
<stop offset="1" stop-color="#23ADA4"/>
</linearGradient>
<linearGradient id="paint3_linear_1208_6718" x1="2.45934" y1="18.4737" x2="3.85063" y2="25.9796" gradientUnits="userSpaceOnUse">
<stop stop-color="#23ADA4"/>
<stop offset="1" stop-color="#23ADA4"/>
</linearGradient>
<linearGradient id="paint4_linear_1208_6718" x1="17.7298" y1="12.4052" x2="20.5414" y2="19.9893" gradientUnits="userSpaceOnUse">
<stop stop-color="#23ADA4"/>
<stop offset="1" stop-color="#23ADA4"/>
</linearGradient>
<linearGradient id="paint5_linear_1208_6718" x1="16.6412" y1="18.4737" x2="18.0325" y2="25.9796" gradientUnits="userSpaceOnUse">
<stop stop-color="#23ADA4"/>
<stop offset="1" stop-color="#23ADA4"/>
</linearGradient>
<linearGradient id="paint6_linear_1208_6718" x1="10.3669" y1="11.1772" x2="13.7408" y2="20.2781" gradientUnits="userSpaceOnUse">
<stop stop-color="#23ADA4"/>
<stop offset="1" stop-color="#23ADA4"/>
</linearGradient>
<clipPath id="clip0_1208_6718">
<rect width="24" height="24" fill="white"/>
</clipPath>
</defs>
</svg>
