<svg width="24" height="24" viewBox="0 0 24 24" fill="none" xmlns="http://www.w3.org/2000/svg">
<path d="M12.0004 12.7501L11.4701 13.2804C11.6107 13.421 11.8015 13.5001 12.0004 13.5001C12.1993 13.5001 12.3901 13.421 12.5308 13.2804L12.0004 12.7501ZM20.0004 8V8.75C20.4146 8.75 20.7504 8.41421 20.7504 8H20.0004ZM4.00047 8H3.25047C3.25047 8.41421 3.58626 8.75 4.00047 8.75V8ZM11.8052 16.5555L9.95113 14.2378L8.77983 15.1748L10.6339 17.4925L11.8052 16.5555ZM9.75047 13.6658V13.5911H8.25046V13.6658H9.75047ZM11.1861 12.9964L11.4701 13.2804L12.5308 12.2197L12.2467 11.9357L11.1861 12.9964ZM12.5308 13.2804L12.8148 12.9964L11.7541 11.9357L11.4701 12.2197L12.5308 13.2804ZM14.2504 13.5911V13.6658H15.7504V13.5911H14.2504ZM14.0498 14.2378L12.1956 16.5555L13.3669 17.4925L15.2211 15.1748L14.0498 14.2378ZM14.2504 13.6658C14.2504 13.8737 14.1797 14.0754 14.0498 14.2378L15.2211 15.1748C15.5637 14.7465 15.7504 14.2143 15.7504 13.6658H14.2504ZM13.4094 12.7501C13.8739 12.7501 14.2504 13.1266 14.2504 13.5911H15.7504C15.7504 12.2982 14.7023 11.2501 13.4094 11.2501V12.7501ZM10.5914 12.7501C10.8145 12.7501 11.0284 12.8387 11.1861 12.9964L12.2467 11.9357C11.8077 11.4967 11.2123 11.2501 10.5914 11.2501V12.7501ZM9.75047 13.5911C9.75047 13.1266 10.1269 12.7501 10.5914 12.7501V11.2501C9.29857 11.2501 8.25046 12.2982 8.25046 13.5911H9.75047ZM9.95113 14.2378C9.82124 14.0754 9.75047 13.8737 9.75047 13.6658H8.25046C8.25046 14.2143 8.43716 14.7465 8.77983 15.1748L9.95113 14.2378ZM12.8148 12.9964C12.9725 12.8387 13.1864 12.7501 13.4094 12.7501V11.2501C12.7886 11.2501 12.1931 11.4967 11.7541 11.9357L12.8148 12.9964ZM10.6339 17.4925C11.3345 18.3682 12.6664 18.3682 13.3669 17.4925L12.1956 16.5555C12.0956 16.6806 11.9053 16.6806 11.8052 16.5555L10.6339 17.4925ZM19.2504 7V8H20.7504V7H19.2504ZM20.0004 7.25H4.00047V8.75H20.0004V7.25ZM4.75047 8V5H3.25047V8H4.75047ZM14.1979 4.75H17.0004V3.25H14.1979V4.75ZM7.00047 2.75H9.56964V1.25H7.00047V2.75ZM10.9526 3.2252L11.893 3.958L12.815 2.7748L11.8745 2.042L10.9526 3.2252ZM14.1979 3.25C13.6969 3.25 13.2102 3.08276 12.815 2.7748L11.893 3.958C12.5517 4.47127 13.3629 4.75 14.1979 4.75V3.25ZM20.7504 7C20.7504 4.92893 19.0715 3.25 17.0004 3.25V4.75C18.2431 4.75 19.2504 5.75736 19.2504 7H20.7504ZM9.56964 2.75C10.0706 2.75 10.5573 2.91724 10.9526 3.2252L11.8745 2.042C11.2158 1.52873 10.4047 1.25 9.56964 1.25V2.75ZM4.75047 5C4.75047 3.75736 5.75783 2.75 7.00047 2.75V1.25C4.9294 1.25 3.25047 2.92893 3.25047 5H4.75047ZM3.47445 8.75H20.5264V7.25H3.47445V8.75ZM21.7487 10.2619L19.9446 18.681L21.4113 18.9953L23.2154 10.5762L21.7487 10.2619ZM16.7668 21.25H7.23414V22.75H16.7668V21.25ZM4.05628 18.681L2.25219 10.2619L0.785482 10.5762L2.58957 18.9953L4.05628 18.681ZM7.23414 21.25C5.70164 21.25 4.37738 20.1794 4.05628 18.681L2.58957 18.9953C3.05888 21.1853 4.99433 22.75 7.23414 22.75V21.25ZM19.9446 18.681C19.6235 20.1794 18.2993 21.25 16.7668 21.25V22.75C19.0066 22.75 20.942 21.1853 21.4113 18.9953L19.9446 18.681ZM20.5264 8.75C21.3223 8.75 21.9154 9.48377 21.7487 10.2619L23.2154 10.5762C23.5822 8.8643 22.2772 7.25 20.5264 7.25V8.75ZM3.47445 7.25C1.72367 7.25 0.418645 8.8643 0.785482 10.5762L2.25219 10.2619C2.08545 9.48377 2.67864 8.75 3.47445 8.75V7.25Z" fill="url(#paint0_linear_1208_6730)"/>
<defs>
<linearGradient id="paint0_linear_1208_6730" x1="6.37292" y1="-1.45265" x2="17.0551" y2="28.7746" gradientUnits="userSpaceOnUse">
<stop stop-color="#23ADA4"/>
<stop offset="1" stop-color="#23ADA4"/>
</linearGradient>
</defs>
</svg>
