<svg width="24" height="24" viewBox="0 0 24 24" fill="none" xmlns="http://www.w3.org/2000/svg">
<g clip-path="url(#clip0_1208_6689)">
<mask id="mask0_1208_6689" style="mask-type:luminance" maskUnits="userSpaceOnUse" x="0" y="0" width="24" height="24">
<path d="M24 0H0V24H24V0Z" fill="white"/>
</mask>
<g mask="url(#mask0_1208_6689)">
<path fill-rule="evenodd" clip-rule="evenodd" d="M15.375 1.5H7.125V0.75C7.125 0.336 6.7875 0 6.375 0C5.9625 0 5.625 0.336 5.625 0.75V1.51163C4.17 1.60275 2.79373 2.22075 1.75873 3.25725C0.633728 4.38263 0 5.90887 0 7.5V18C0 21.3139 2.685 24 6 24H12.1163C12.5288 24 12.8663 23.664 12.8663 23.25C12.8663 22.836 12.5288 22.5 12.1163 22.5H6C3.51375 22.5 1.5 20.4851 1.5 18V7.5C1.5 6.30638 1.9725 5.16187 2.81625 4.31812C3.57375 3.56287 4.5675 3.10388 5.625 3.01575V4.5C5.625 4.914 5.9625 5.25 6.375 5.25C6.7875 5.25 7.125 4.914 7.125 4.5V3H15.375V4.5C15.375 4.914 15.7125 5.25 16.125 5.25C16.5375 5.25 16.875 4.914 16.875 4.5V3.01538C19.185 3.20588 21 5.14087 21 7.5V10.917C21 11.331 21.3375 11.667 21.75 11.667C22.1625 11.667 22.5 11.331 22.5 10.917V7.5C22.5 4.31212 20.0138 1.70513 16.875 1.51163V0.75C16.875 0.336 16.5375 0 16.125 0C15.7125 0 15.375 0.336 15.375 0.75V1.5ZM21.375 20.7386V19.758C21.375 19.344 21.0375 19.008 20.625 19.008C20.2125 19.008 19.875 19.344 19.875 19.758V22.383C19.875 22.7974 20.2087 23.133 20.625 23.133H23.25C23.6625 23.133 24 22.797 24 22.383C24 21.969 23.6625 21.633 23.25 21.633H22.5825C23.4675 20.5376 24 19.143 24 17.625C24 14.1064 21.1425 11.25 17.625 11.25C14.1075 11.25 11.25 14.1064 11.25 17.625C11.25 21.1436 14.1075 24 17.625 24C18.0375 24 18.375 23.664 18.375 23.25C18.375 22.836 18.0375 22.5 17.625 22.5C14.9362 22.5 12.75 20.3156 12.75 17.625C12.75 14.9344 14.9362 12.75 17.625 12.75C20.3175 12.75 22.5 14.9344 22.5 17.625C22.5 18.8085 22.0763 19.8937 21.375 20.7386ZM7.125 14.25C5.47125 14.25 4.125 15.5944 4.125 17.25C4.125 18.9056 5.47125 20.25 7.125 20.25C8.77875 20.25 10.125 18.9056 10.125 17.25C10.125 15.5944 8.77875 14.25 7.125 14.25ZM7.125 15.75C7.95375 15.75 8.625 16.422 8.625 17.25C8.625 18.078 7.95375 18.75 7.125 18.75C6.29625 18.75 5.625 18.078 5.625 17.25C5.625 16.422 6.29625 15.75 7.125 15.75ZM7.125 6.75C5.47125 6.75 4.125 8.09437 4.125 9.75C4.125 11.4056 5.47125 12.75 7.125 12.75C8.77875 12.75 10.125 11.4056 10.125 9.75C10.125 8.09437 8.77875 6.75 7.125 6.75ZM14.1 10.5409C13.9575 10.3114 13.875 10.0402 13.875 9.75C13.875 8.922 14.5463 8.25 15.375 8.25C16.2038 8.25 16.875 8.922 16.875 9.75C16.875 10.164 17.2125 10.5 17.625 10.5C18.0375 10.5 18.375 10.164 18.375 9.75C18.375 8.09437 17.0287 6.75 15.375 6.75C13.7213 6.75 12.375 8.09437 12.375 9.75C12.375 10.3313 12.54 10.8742 12.8287 11.334C13.0462 11.6854 13.5112 11.793 13.86 11.574C14.2125 11.355 14.3175 10.8922 14.1 10.5409ZM7.125 8.25C7.95375 8.25 8.625 8.922 8.625 9.75C8.625 10.578 7.95375 11.25 7.125 11.25C6.29625 11.25 5.625 10.578 5.625 9.75C5.625 8.922 6.29625 8.25 7.125 8.25Z" fill="url(#paint0_linear_1208_6689)"/>
</g>
</g>
<defs>
<linearGradient id="paint0_linear_1208_6689" x1="6.0117" y1="-3.01691" x2="18.3827" y2="30.3529" gradientUnits="userSpaceOnUse">
<stop stop-color="#23ADA4"/>
<stop offset="1" stop-color="#23ADA4"/>
</linearGradient>
<clipPath id="clip0_1208_6689">
<rect width="24" height="24" fill="white"/>
</clipPath>
</defs>
</svg>
