<svg width="24" height="24" viewBox="0 0 24 24" fill="none" xmlns="http://www.w3.org/2000/svg">
<path d="M5.625 18.5625H3C2.06946 18.5625 1.3125 17.8055 1.3125 16.875V4.875C1.3125 3.94446 2.06946 3.1875 3 3.1875H5.625C5.93573 3.1875 6.1875 3.43927 6.1875 3.75C6.1875 4.06073 5.93573 4.3125 5.625 4.3125H3C2.68982 4.3125 2.4375 4.56482 2.4375 4.875V16.875C2.4375 17.1852 2.68982 17.4375 3 17.4375H5.625C5.93573 17.4375 6.1875 17.6893 6.1875 18C6.1875 18.3107 5.93573 18.5625 5.625 18.5625Z" fill="url(#paint0_linear_1208_6708)"/>
<path d="M19.875 14.2875C19.5643 14.2875 19.3125 14.0358 19.3125 13.725V4.875C19.3125 4.56482 19.0602 4.3125 18.75 4.3125H16.125C15.8143 4.3125 15.5625 4.06073 15.5625 3.75C15.5625 3.43927 15.8143 3.1875 16.125 3.1875H18.75C19.6805 3.1875 20.4375 3.94446 20.4375 4.875V13.725C20.4375 14.0358 20.1857 14.2875 19.875 14.2875Z" fill="url(#paint1_linear_1208_6708)"/>
<path d="M11.25 20.4375H6.75C5.81946 20.4375 5.0625 19.6805 5.0625 18.75V3C5.0625 2.06946 5.81946 1.3125 6.75 1.3125H15C15.9305 1.3125 16.6875 2.06946 16.6875 3V13.3837C16.6875 13.6945 16.4357 13.9462 16.125 13.9462C15.8143 13.9462 15.5625 13.6945 15.5625 13.3837V3C15.5625 2.68982 15.3102 2.4375 15 2.4375H6.75C6.43982 2.4375 6.1875 2.68982 6.1875 3V18.75C6.1875 19.0602 6.43982 19.3125 6.75 19.3125H11.25C11.5607 19.3125 11.8125 19.5643 11.8125 19.875C11.8125 20.1857 11.5607 20.4375 11.25 20.4375Z" fill="url(#paint2_linear_1208_6708)"/>
<path d="M13.5 8.81246H8.25C7.93927 8.81246 7.6875 8.56068 7.6875 8.24996V4.49996C7.6875 4.28682 7.8078 4.09218 7.99841 3.99678C8.18902 3.90175 8.41718 3.92207 8.58746 4.04988L9.69708 4.88228L10.4767 4.10225C10.6965 3.88252 11.0526 3.88271 11.2723 4.10207L12.0527 4.8821L13.1625 4.04988C13.3332 3.92207 13.5612 3.90193 13.7516 3.99678C13.9422 4.09218 14.0625 4.28682 14.0625 4.49996V8.24996C14.0625 8.56068 13.8107 8.81246 13.5 8.81246ZM8.8125 7.68746H12.9375V5.62477L12.3375 6.07485C12.1139 6.24275 11.8004 6.2206 11.6023 6.02266L10.8748 5.29537L10.1479 6.02266C9.94958 6.2206 9.63629 6.24294 9.41253 6.07503L8.8125 5.62496V7.68746Z" fill="url(#paint3_linear_1208_6708)"/>
<path d="M10.875 17.0018C10.2925 17.0018 9.7619 16.6589 9.55444 16.1482C9.43744 15.8605 9.57605 15.5324 9.86389 15.4154C10.151 15.298 10.4797 15.4366 10.5967 15.7249C10.6326 15.8129 10.7496 15.8768 10.875 15.8768C11.1037 15.8768 11.2969 15.7289 11.2969 15.5538V15.5104C11.2969 15.3314 10.9116 15.2032 10.7789 15.1792C10.2424 15.0898 9.32812 14.685 9.32812 13.7394V13.696C9.32812 12.8977 10.0221 12.248 10.875 12.248C11.4575 12.248 11.9881 12.591 12.1956 13.1017C12.3126 13.3893 12.1739 13.7175 11.8861 13.8345C11.5988 13.9515 11.2701 13.813 11.1533 13.525C11.1174 13.437 11.0004 13.373 10.875 13.373C10.6463 13.373 10.4531 13.521 10.4531 13.696V13.7394C10.4531 13.9185 10.8384 14.0467 10.9711 14.0707C11.5076 14.16 12.4219 14.5649 12.4219 15.5104V15.5538C12.4219 16.3522 11.7279 17.0018 10.875 17.0018Z" fill="url(#paint4_linear_1208_6708)"/>
<path d="M10.875 13.3731C10.5643 13.3731 10.3125 13.1213 10.3125 12.8106V12C10.3125 11.6893 10.5643 11.4375 10.875 11.4375C11.1857 11.4375 11.4375 11.6893 11.4375 12V12.8106C11.4375 13.1213 11.1857 13.3731 10.875 13.3731Z" fill="url(#paint5_linear_1208_6708)"/>
<path d="M10.875 17.8126C10.5643 17.8126 10.3125 17.5608 10.3125 17.2501V16.4395C10.3125 16.1287 10.5643 15.877 10.875 15.877C11.1857 15.877 11.4375 16.1287 11.4375 16.4395V17.2501C11.4375 17.5608 11.1857 17.8126 10.875 17.8126Z" fill="url(#paint6_linear_1208_6708)"/>
<path d="M17.625 22.6875C14.8336 22.6875 12.5625 20.4164 12.5625 17.625C12.5625 14.8336 14.8336 12.5625 17.625 12.5625C20.4164 12.5625 22.6875 14.8336 22.6875 17.625C22.6875 20.4164 20.4164 22.6875 17.625 22.6875ZM17.625 13.6875C15.4539 13.6875 13.6875 15.4539 13.6875 17.625C13.6875 19.7961 15.4539 21.5625 17.625 21.5625C19.7961 21.5625 21.5625 19.7961 21.5625 17.625C21.5625 15.4539 19.7961 13.6875 17.625 13.6875Z" fill="url(#paint7_linear_1208_6708)"/>
<path d="M16.9688 19.6879C16.8195 19.6879 16.6765 19.6285 16.571 19.5231L14.8835 17.8356C14.6638 17.616 14.6638 17.2597 14.8835 17.0402C15.1033 16.8204 15.4592 16.8204 15.679 17.0402L16.9687 18.3298L19.571 15.7273C19.7904 15.5076 20.1467 15.5076 20.3665 15.7273C20.5862 15.9468 20.5862 16.303 20.3665 16.5227L17.3665 19.5231C17.261 19.6285 17.118 19.6879 16.9688 19.6879Z" fill="url(#paint8_linear_1208_6708)"/>
<defs>
<linearGradient id="paint0_linear_1208_6708" x1="2.53363" y1="1.25479" x2="14.5444" y2="11.5274" gradientUnits="userSpaceOnUse">
<stop stop-color="#23ADA4"/>
<stop offset="1" stop-color="#23ADA4"/>
</linearGradient>
<linearGradient id="paint1_linear_1208_6708" x1="16.7836" y1="1.79218" x2="25.4364" y2="12.043" gradientUnits="userSpaceOnUse">
<stop stop-color="#23ADA4"/>
<stop offset="1" stop-color="#23ADA4"/>
</linearGradient>
<linearGradient id="paint2_linear_1208_6708" x1="7.97442" y1="-1.0916" x2="21.4201" y2="20.9541" gradientUnits="userSpaceOnUse">
<stop stop-color="#23ADA4"/>
<stop offset="1" stop-color="#23ADA4"/>
</linearGradient>
<linearGradient id="paint3_linear_1208_6708" x1="9.28436" y1="3.32469" x2="11.3074" y2="10.4609" gradientUnits="userSpaceOnUse">
<stop stop-color="#23ADA4"/>
<stop offset="1" stop-color="#23ADA4"/>
</linearGradient>
<linearGradient id="paint4_linear_1208_6708" x1="10.1031" y1="11.6505" x2="13.3365" y2="17.3267" gradientUnits="userSpaceOnUse">
<stop stop-color="#23ADA4"/>
<stop offset="1" stop-color="#23ADA4"/>
</linearGradient>
<linearGradient id="paint5_linear_1208_6708" x1="10.5943" y1="11.1942" x2="11.9822" y2="13.3701" gradientUnits="userSpaceOnUse">
<stop stop-color="#23ADA4"/>
<stop offset="1" stop-color="#23ADA4"/>
</linearGradient>
<linearGradient id="paint6_linear_1208_6708" x1="10.5943" y1="15.6336" x2="11.9822" y2="17.8095" gradientUnits="userSpaceOnUse">
<stop stop-color="#23ADA4"/>
<stop offset="1" stop-color="#23ADA4"/>
</linearGradient>
<linearGradient id="paint7_linear_1208_6708" x1="15.0987" y1="11.2897" x2="20.3177" y2="25.3676" gradientUnits="userSpaceOnUse">
<stop stop-color="#23ADA4"/>
<stop offset="1" stop-color="#23ADA4"/>
</linearGradient>
<linearGradient id="paint8_linear_1208_6708" x1="16.1747" y1="15.0439" x2="17.7802" y2="21.1458" gradientUnits="userSpaceOnUse">
<stop stop-color="#23ADA4"/>
<stop offset="1" stop-color="#23ADA4"/>
</linearGradient>
</defs>
</svg>
