<svg width="24" height="24" viewBox="0 0 24 24" fill="none" xmlns="http://www.w3.org/2000/svg">
<path d="M9.60012 11.2801H4.80036C4.35156 11.2801 3.9294 11.1049 3.61188 10.7864C3.30012 10.4773 3.12012 10.0444 3.12012 9.60012V4.80012C3.12012 4.35132 3.29484 3.92916 3.61188 3.6114C3.92796 3.2946 4.35012 3.12012 4.80036 3.12012H9.60012C10.0501 3.12012 10.4723 3.2946 10.7886 3.6114C11.1056 3.9294 11.2801 4.35132 11.2801 4.80012V9.60012C11.2801 10.0441 11.1003 10.4771 10.7869 10.7881C10.4706 11.1049 10.0487 11.2801 9.60012 11.2801ZM4.80036 4.08012C4.60692 4.08012 4.4262 4.15452 4.29156 4.28964C4.155 4.42596 4.08012 4.6074 4.08012 4.80012V9.60012C4.08012 9.78996 4.15644 9.97452 4.28964 10.1065C4.42788 10.245 4.6086 10.3201 4.80036 10.3201H9.60012C9.79188 10.3201 9.9726 10.245 10.1091 10.1082C10.2438 9.97476 10.3201 9.78996 10.3201 9.60012V4.80012C10.3201 4.6074 10.2452 4.42596 10.1089 4.28964C9.97428 4.15452 9.79356 4.08012 9.60012 4.08012H4.80036Z" fill="url(#paint0_linear_1208_6684)"/>
<path d="M9.60012 20.8797H4.80036C4.35156 20.8797 3.9294 20.7045 3.61188 20.386C3.30012 20.0769 3.12012 19.644 3.12012 19.1997V14.3997C3.12012 13.9509 3.29484 13.5288 3.61188 13.211C3.92796 12.8942 4.35012 12.7197 4.80036 12.7197H9.60012C10.0501 12.7197 10.4723 12.8942 10.7886 13.211C11.1056 13.529 11.2801 13.9509 11.2801 14.3997V19.1997C11.2801 19.6437 11.1003 20.0767 10.7869 20.3877C10.4706 20.7045 10.0487 20.8797 9.60012 20.8797ZM4.80036 13.6797C4.60692 13.6797 4.4262 13.7541 4.29156 13.8892C4.155 14.0256 4.08012 14.207 4.08012 14.3997V19.1997C4.08012 19.3896 4.15644 19.5741 4.28964 19.7061C4.42788 19.8446 4.6086 19.9197 4.80036 19.9197H9.60012C9.79188 19.9197 9.9726 19.8446 10.1091 19.7078C10.2438 19.5744 10.3201 19.3896 10.3201 19.1997V14.3997C10.3201 14.207 10.2452 14.0256 10.1089 13.8892C9.97428 13.7541 9.79356 13.6797 9.60012 13.6797H4.80036Z" fill="url(#paint1_linear_1208_6684)"/>
<path d="M19.2 11.2801H14.4002C13.9514 11.2801 13.5293 11.1049 13.2118 10.7864C12.9 10.4773 12.72 10.0444 12.72 9.60012V4.80012C12.72 4.35132 12.8947 3.92916 13.2118 3.6114C13.5278 3.2946 13.95 3.12012 14.4002 3.12012H19.2C19.65 3.12012 20.0722 3.2946 20.3885 3.6114C20.7055 3.9294 20.88 4.35132 20.88 4.80012V9.60012C20.88 10.0441 20.7002 10.4771 20.3868 10.7881C20.0705 11.1049 19.6486 11.2801 19.2 11.2801ZM14.4002 4.08012C14.2068 4.08012 14.0261 4.15452 13.8914 4.28964C13.7549 4.42596 13.68 4.6074 13.68 4.80012V9.60012C13.68 9.78996 13.7563 9.97452 13.8895 10.1065C14.0278 10.245 14.2085 10.3201 14.4002 10.3201H19.2C19.3918 10.3201 19.5725 10.245 19.709 10.1082C19.8437 9.97476 19.92 9.78996 19.92 9.60012V4.80012C19.92 4.6074 19.8451 4.42596 19.7088 4.28964C19.5742 4.15452 19.3934 4.08012 19.2 4.08012H14.4002Z" fill="url(#paint2_linear_1208_6684)"/>
<path d="M19.2 20.8797H14.4002C13.9514 20.8797 13.5293 20.7045 13.2118 20.386C12.9 20.0769 12.72 19.644 12.72 19.1997V14.3997C12.72 13.9509 12.8947 13.5288 13.2118 13.211C13.5278 12.8942 13.95 12.7197 14.4002 12.7197H19.2C19.65 12.7197 20.0722 12.8942 20.3885 13.211C20.7055 13.529 20.88 13.9509 20.88 14.3997V19.1997C20.88 19.6437 20.7002 20.0767 20.3868 20.3877C20.0705 20.7045 19.6486 20.8797 19.2 20.8797ZM14.4002 13.6797C14.2068 13.6797 14.0261 13.7541 13.8914 13.8892C13.7549 14.0256 13.68 14.207 13.68 14.3997V19.1997C13.68 19.3896 13.7563 19.5741 13.8895 19.7061C14.0278 19.8446 14.2085 19.9197 14.4002 19.9197H19.2C19.3918 19.9197 19.5725 19.8446 19.709 19.7078C19.8437 19.5744 19.92 19.3896 19.92 19.1997V14.3997C19.92 14.207 19.8451 14.0256 19.7088 13.8892C19.5742 13.7541 19.3934 13.6797 19.2 13.6797H14.4002Z" fill="url(#paint3_linear_1208_6684)"/>
<defs>
<linearGradient id="paint0_linear_1208_6684" x1="5.1641" y1="2.09437" x2="9.37021" y2="13.4401" gradientUnits="userSpaceOnUse">
<stop stop-color="#23ADA4"/>
<stop offset="1" stop-color="#23ADA4"/>
</linearGradient>
<linearGradient id="paint1_linear_1208_6684" x1="5.1641" y1="11.694" x2="9.37023" y2="23.0397" gradientUnits="userSpaceOnUse">
<stop stop-color="#23ADA4"/>
<stop offset="1" stop-color="#23ADA4"/>
</linearGradient>
<linearGradient id="paint2_linear_1208_6684" x1="14.7639" y1="2.09437" x2="18.9701" y2="13.4401" gradientUnits="userSpaceOnUse">
<stop stop-color="#23ADA4"/>
<stop offset="1" stop-color="#23ADA4"/>
</linearGradient>
<linearGradient id="paint3_linear_1208_6684" x1="14.7639" y1="11.694" x2="18.9701" y2="23.0397" gradientUnits="userSpaceOnUse">
<stop stop-color="#23ADA4"/>
<stop offset="1" stop-color="#23ADA4"/>
</linearGradient>
</defs>
</svg>
