<svg width="24" height="24" viewBox="0 0 24 24" fill="none" xmlns="http://www.w3.org/2000/svg">
<g clip-path="url(#clip0_1208_6695)">
<mask id="mask0_1208_6695" style="mask-type:luminance" maskUnits="userSpaceOnUse" x="0" y="0" width="24" height="24">
<path d="M24 0H0V24H24V0Z" fill="white"/>
</mask>
<g mask="url(#mask0_1208_6695)">
<path d="M17.7193 10.4629C18.2961 10.0764 18.7097 9.49966 18.8921 8.81909C19.0914 8.07518 18.9903 7.30024 18.6074 6.63701C18.2245 5.97377 17.604 5.49874 16.86 5.29938C16.1795 5.11704 15.4732 5.18688 14.85 5.49316L13.2442 2.71193C12.9024 2.11985 12.2885 1.77476 11.6068 1.78638C10.9233 1.7989 10.3243 2.16701 10.0042 2.77108C9.77951 3.19549 9.56844 3.63635 9.34499 4.10313C8.43426 6.00555 7.40201 8.1618 5.17043 9.45021L2.30295 11.1057C1.3159 11.6756 0.608891 12.5994 0.312079 13.707C0.0153126 14.8146 0.165688 15.9682 0.735547 16.9552C1.52778 18.3274 2.97012 19.0954 4.45123 19.0954C4.99142 19.0954 5.53671 18.9931 6.05759 18.7808L8.0622 22.2529C8.47695 22.9713 9.23182 23.3732 10.0072 23.3732C10.3871 23.3732 10.7721 23.2766 11.1241 23.0734C11.641 22.7749 12.0112 22.2914 12.1665 21.7118C12.3218 21.1323 12.243 20.5284 11.9445 20.0115L9.97203 16.595C12.0487 15.6077 14.2286 15.7752 16.1693 15.9252C16.6858 15.9652 17.1735 16.0029 17.6538 16.0204C18.336 16.0449 18.9553 15.7107 19.3078 15.1249C19.6604 14.5392 19.6668 13.8362 19.325 13.2441L17.7193 10.4629ZM16.5567 6.43132C16.9983 6.54963 17.3662 6.83074 17.5926 7.22294C18.0297 7.98002 17.8178 8.93627 17.1313 9.44449L15.438 6.51166C15.7885 6.35946 16.1789 6.33007 16.5567 6.43132ZM4.44931 17.9239C3.37362 17.9238 2.32587 17.366 1.75048 16.3693C1.33714 15.6534 1.22829 14.8156 1.4441 14.0104C1.65987 13.2051 2.17301 12.534 2.88893 12.1206L5.24923 10.7579L8.36239 16.1434L5.99923 17.5078C5.5106 17.7899 4.9767 17.9239 4.44931 17.9239ZM11.0347 21.4086C10.9604 21.6858 10.7841 21.9166 10.5382 22.0586C10.0275 22.3534 9.37204 22.1779 9.0771 21.6671L7.09254 18.2297L8.94514 17.1601L10.9297 20.5975C11.0716 20.8433 11.109 21.1314 11.0347 21.4086ZM18.3038 14.5207C18.1706 14.7421 17.9557 14.8594 17.6967 14.8494C17.2402 14.8327 16.764 14.7959 16.2597 14.7569C14.1418 14.5933 11.7605 14.4098 9.38735 15.5749L6.25404 10.1546C8.45229 8.68043 9.48449 6.52577 10.402 4.60919C10.6202 4.15343 10.8263 3.72293 11.0399 3.31962C11.1608 3.09119 11.3698 2.9628 11.6282 2.95812C11.6331 2.95802 11.638 2.95798 11.6429 2.95798C11.8947 2.95798 12.1026 3.0783 12.2294 3.29791L18.3102 13.8302C18.4395 14.054 18.4372 14.2993 18.3038 14.5207ZM16.7818 3.01591L17.9918 0.920038C18.1536 0.639772 18.5119 0.543725 18.7922 0.705584C19.0725 0.867397 19.1685 1.22576 19.0066 1.50598L17.7966 3.60185C17.6881 3.78982 17.4911 3.89491 17.2886 3.89491C17.1892 3.89491 17.0885 3.8696 16.9962 3.8163C16.716 3.65449 16.62 3.29613 16.7818 3.01591ZM22.2217 5.22682L20.0752 6.46619C19.9829 6.51944 19.8821 6.5448 19.7827 6.5448C19.5802 6.5448 19.3833 6.43971 19.2748 6.25174C19.113 5.97148 19.209 5.61312 19.4892 5.45135L21.6358 4.21198C21.916 4.05012 22.2744 4.14621 22.4362 4.42643C22.598 4.70665 22.502 5.06505 22.2217 5.22682ZM23.8366 9.44266C23.8366 9.76624 23.5742 10.0286 23.2507 10.0286H20.8305C20.5069 10.0286 20.2446 9.76629 20.2446 9.44266C20.2446 9.11904 20.5069 8.85673 20.8305 8.85673H23.2507C23.5742 8.85673 23.8366 9.11904 23.8366 9.44266Z" fill="url(#paint0_linear_1208_6695)"/>
</g>
</g>
<defs>
<linearGradient id="paint0_linear_1208_6695" x1="6.09319" y1="-2.23236" x2="17.4643" y2="29.6904" gradientUnits="userSpaceOnUse">
<stop stop-color="#23ADA4"/>
<stop offset="1" stop-color="#23ADA4"/>
</linearGradient>
<clipPath id="clip0_1208_6695">
<rect width="24" height="24" fill="white"/>
</clipPath>
</defs>
</svg>
