<svg width="18" height="18" viewBox="0 0 18 18" fill="none" xmlns="http://www.w3.org/2000/svg">
<g clip-path="url(#clip0_1259_6524)">
<path d="M12.0227 7.52275C12.2424 7.30308 12.2424 6.94692 12.0227 6.72725C11.8031 6.50758 11.4469 6.50758 11.2273 6.72725L7.875 10.0795L6.77275 8.97725C6.55308 8.75758 6.19692 8.75758 5.97725 8.97725C5.75758 9.19692 5.75758 9.55308 5.97725 9.77275L7.47725 11.2727C7.69692 11.4924 8.05308 11.4924 8.27275 11.2727L12.0227 7.52275Z" fill="url(#paint0_linear_1259_6524)"/>
<path fill-rule="evenodd" clip-rule="evenodd" d="M9 0.9375C4.5472 0.9375 0.9375 4.5472 0.9375 9C0.9375 13.4528 4.5472 17.0625 9 17.0625C13.4528 17.0625 17.0625 13.4528 17.0625 9C17.0625 4.5472 13.4528 0.9375 9 0.9375ZM2.0625 9C2.0625 5.16852 5.16852 2.0625 9 2.0625C12.8315 2.0625 15.9375 5.16852 15.9375 9C15.9375 12.8315 12.8315 15.9375 9 15.9375C5.16852 15.9375 2.0625 12.8315 2.0625 9Z" fill="url(#paint1_linear_1259_6524)"/>
</g>
<defs>
<linearGradient id="paint0_linear_1259_6524" x1="4.97661" y1="-1.08949" x2="13.2884" y2="21.3308" gradientUnits="userSpaceOnUse">
<stop stop-color="#23ADA4"/>
<stop offset="1" stop-color="#23ADA4"/>
</linearGradient>
<linearGradient id="paint1_linear_1259_6524" x1="4.97661" y1="-1.08949" x2="13.2884" y2="21.3308" gradientUnits="userSpaceOnUse">
<stop stop-color="#23ADA4"/>
<stop offset="1" stop-color="#23ADA4"/>
</linearGradient>
<clipPath id="clip0_1259_6524">
<rect width="18" height="18" fill="white"/>
</clipPath>
</defs>
</svg>
