<svg width="18" height="18" viewBox="0 0 18 18" fill="none" xmlns="http://www.w3.org/2000/svg">
<path d="M12.75 10.5C13.1642 10.5 13.5 10.1642 13.5 9.75C13.5 9.33578 13.1642 9 12.75 9C12.3358 9 12 9.33578 12 9.75C12 10.1642 12.3358 10.5 12.75 10.5Z" fill="url(#paint0_linear_1259_6526)"/>
<path d="M12.75 13.5C13.1642 13.5 13.5 13.1642 13.5 12.75C13.5 12.3358 13.1642 12 12.75 12C12.3358 12 12 12.3358 12 12.75C12 13.1642 12.3358 13.5 12.75 13.5Z" fill="url(#paint1_linear_1259_6526)"/>
<path d="M9.75 9.75C9.75 10.1642 9.41422 10.5 9 10.5C8.58578 10.5 8.25 10.1642 8.25 9.75C8.25 9.33578 8.58578 9 9 9C9.41422 9 9.75 9.33578 9.75 9.75Z" fill="url(#paint2_linear_1259_6526)"/>
<path d="M9.75 12.75C9.75 13.1642 9.41422 13.5 9 13.5C8.58578 13.5 8.25 13.1642 8.25 12.75C8.25 12.3358 8.58578 12 9 12C9.41422 12 9.75 12.3358 9.75 12.75Z" fill="url(#paint3_linear_1259_6526)"/>
<path d="M5.25 10.5C5.66422 10.5 6 10.1642 6 9.75C6 9.33578 5.66422 9 5.25 9C4.83579 9 4.5 9.33578 4.5 9.75C4.5 10.1642 4.83579 10.5 5.25 10.5Z" fill="url(#paint4_linear_1259_6526)"/>
<path d="M5.25 13.5C5.66422 13.5 6 13.1642 6 12.75C6 12.3358 5.66422 12 5.25 12C4.83579 12 4.5 12.3358 4.5 12.75C4.5 13.1642 4.83579 13.5 5.25 13.5Z" fill="url(#paint5_linear_1259_6526)"/>
<path fill-rule="evenodd" clip-rule="evenodd" d="M5.25 1.3125C5.56066 1.3125 5.8125 1.56434 5.8125 1.875V2.44704C6.309 2.43749 6.856 2.43749 7.4576 2.4375H10.5423C11.144 2.43749 11.691 2.43749 12.1875 2.44704V1.875C12.1875 1.56434 12.4393 1.3125 12.75 1.3125C13.0607 1.3125 13.3125 1.56434 13.3125 1.875V2.49532C13.5074 2.51018 13.6921 2.52887 13.8668 2.55235C14.7461 2.67057 15.4578 2.91966 16.0191 3.48093C16.5803 4.04221 16.8294 4.75391 16.9477 5.63324C17.0625 6.48764 17.0625 7.57935 17.0625 8.95762V10.5423C17.0625 11.9206 17.0625 13.0124 16.9477 13.8668C16.8294 14.7461 16.5803 15.4578 16.0191 16.0191C15.4578 16.5803 14.7461 16.8294 13.8668 16.9477C13.0124 17.0625 11.9207 17.0625 10.5424 17.0625H7.45769C6.07939 17.0625 4.98764 17.0625 4.13324 16.9477C3.25392 16.8294 2.54221 16.5803 1.98093 16.0191C1.41966 15.4578 1.17057 14.7461 1.05236 13.8668C0.937478 13.0124 0.937485 11.9207 0.9375 10.5423V8.9577C0.937485 7.57935 0.937478 6.48764 1.05236 5.63324C1.17057 4.75391 1.41966 4.04221 1.98093 3.48093C2.54221 2.91966 3.25392 2.67057 4.13324 2.55235C4.30793 2.52887 4.49255 2.51018 4.6875 2.49532V1.875C4.6875 1.56434 4.93934 1.3125 5.25 1.3125ZM4.28314 3.66732C3.52857 3.76877 3.09383 3.95902 2.77643 4.27643C2.45902 4.59383 2.26877 5.02857 2.16732 5.78314C2.15014 5.91092 2.13578 6.04546 2.12376 6.1875H15.8762C15.8642 6.04546 15.8498 5.91093 15.8327 5.78314C15.7313 5.02857 15.541 4.59383 15.2236 4.27643C14.9062 3.95902 14.4714 3.76877 13.7169 3.66732C12.9461 3.56369 11.9301 3.5625 10.5 3.5625H7.5C6.06988 3.5625 5.05388 3.56369 4.28314 3.66732ZM2.0625 9C2.0625 8.3595 2.06274 7.80203 2.07232 7.3125H15.9277C15.9373 7.80203 15.9375 8.3595 15.9375 9V10.5C15.9375 11.9301 15.9363 12.9461 15.8327 13.7169C15.7313 14.4714 15.541 14.9062 15.2236 15.2236C14.9062 15.541 14.4714 15.7313 13.7169 15.8327C12.9461 15.9363 11.9301 15.9375 10.5 15.9375H7.5C6.06988 15.9375 5.05388 15.9363 4.28314 15.8327C3.52857 15.7313 3.09383 15.541 2.77643 15.2236C2.45902 14.9062 2.26877 14.4714 2.16732 13.7169C2.06369 12.9461 2.0625 11.9301 2.0625 10.5V9Z" fill="url(#paint6_linear_1259_6526)"/>
<defs>
<linearGradient id="paint0_linear_1259_6526" x1="12.3757" y1="8.81144" x2="13.1489" y2="10.8971" gradientUnits="userSpaceOnUse">
<stop stop-color="#23ADA4"/>
<stop offset="1" stop-color="#23ADA4"/>
</linearGradient>
<linearGradient id="paint1_linear_1259_6526" x1="12.3757" y1="11.8114" x2="13.1489" y2="13.8971" gradientUnits="userSpaceOnUse">
<stop stop-color="#23ADA4"/>
<stop offset="1" stop-color="#23ADA4"/>
</linearGradient>
<linearGradient id="paint2_linear_1259_6526" x1="8.62573" y1="8.81144" x2="9.39892" y2="10.8971" gradientUnits="userSpaceOnUse">
<stop stop-color="#23ADA4"/>
<stop offset="1" stop-color="#23ADA4"/>
</linearGradient>
<linearGradient id="paint3_linear_1259_6526" x1="8.62573" y1="11.8114" x2="9.39892" y2="13.8971" gradientUnits="userSpaceOnUse">
<stop stop-color="#23ADA4"/>
<stop offset="1" stop-color="#23ADA4"/>
</linearGradient>
<linearGradient id="paint4_linear_1259_6526" x1="4.87573" y1="8.81144" x2="5.64892" y2="10.8971" gradientUnits="userSpaceOnUse">
<stop stop-color="#23ADA4"/>
<stop offset="1" stop-color="#23ADA4"/>
</linearGradient>
<linearGradient id="paint5_linear_1259_6526" x1="4.87573" y1="11.8114" x2="5.64892" y2="13.8971" gradientUnits="userSpaceOnUse">
<stop stop-color="#23ADA4"/>
<stop offset="1" stop-color="#23ADA4"/>
</linearGradient>
<linearGradient id="paint6_linear_1259_6526" x1="4.97661" y1="-0.66735" x2="12.9506" y2="21.3539" gradientUnits="userSpaceOnUse">
<stop stop-color="#23ADA4"/>
<stop offset="1" stop-color="#23ADA4"/>
</linearGradient>
</defs>
</svg>
