<svg width="50" height="50" viewBox="0 0 50 50" fill="none" xmlns="http://www.w3.org/2000/svg">
<path d="M44.7917 45.8337H5.20833C2.3375 45.8337 0 43.4962 0 40.6253V36.4587C0 35.8837 0.466667 35.417 1.04167 35.417H2.08333C4.38125 35.417 6.25 33.5482 6.25 31.2503C6.25 28.9524 4.38125 27.0837 2.08333 27.0837H1.04167C0.466667 27.0837 0 26.617 0 26.042V21.8753C0 19.0045 2.3375 16.667 5.20833 16.667H44.7917C47.6625 16.667 50 19.0045 50 21.8753V26.042C50 26.617 49.5333 27.0837 48.9583 27.0837H47.9167C45.6187 27.0837 43.75 28.9524 43.75 31.2503C43.75 32.3628 44.1833 33.4087 44.9708 34.1962C45.7562 34.9837 46.8021 35.417 47.9146 35.417H48.9562C49.5312 35.417 49.9979 35.8837 49.9979 36.4587V40.6253C50 43.4962 47.6625 45.8337 44.7917 45.8337ZM2.08333 37.5003V40.6253C2.08333 42.3482 3.48542 43.7503 5.20833 43.7503H44.7917C46.5146 43.7503 47.9167 42.3482 47.9167 40.6253V37.5003C46.2479 37.5003 44.6771 36.8503 43.4979 35.6712C42.3167 34.4899 41.6667 32.9191 41.6667 31.2503C41.6667 27.8045 44.4708 25.0003 47.9167 25.0003V21.8753C47.9167 20.1524 46.5146 18.7503 44.7917 18.7503H5.20833C3.48542 18.7503 2.08333 20.1524 2.08333 21.8753V25.0003C5.52917 25.0003 8.33333 27.8045 8.33333 31.2503C8.33333 34.6962 5.52917 37.5003 2.08333 37.5003Z" fill="url(#paint0_linear_400_8803)"/>
<path d="M17.7083 20.8337C17.1333 20.8337 16.6666 20.367 16.6666 19.792V17.7087C16.6666 17.1337 17.1333 16.667 17.7083 16.667C18.2833 16.667 18.75 17.1337 18.75 17.7087V19.792C18.75 20.367 18.2833 20.8337 17.7083 20.8337Z" fill="url(#paint1_linear_400_8803)"/>
<path d="M17.7083 38.4609C17.1333 38.4609 16.6666 37.9942 16.6666 37.4192V33.8963C16.6666 33.3213 17.1333 32.8546 17.7083 32.8546C18.2833 32.8546 18.75 33.3192 18.75 33.8963V37.4213C18.75 37.9963 18.2833 38.4609 17.7083 38.4609ZM17.7083 29.6484C17.1333 29.6484 16.6666 29.1817 16.6666 28.6067V25.0817C16.6666 24.5067 17.1333 24.04 17.7083 24.04C18.2833 24.04 18.75 24.5067 18.75 25.0817V28.6067C18.75 29.1817 18.2833 29.6484 17.7083 29.6484Z" fill="url(#paint2_linear_400_8803)"/>
<path d="M17.7083 45.8337C17.1333 45.8337 16.6666 45.367 16.6666 44.792V42.7087C16.6666 42.1337 17.1333 41.667 17.7083 41.667C18.2833 41.667 18.75 42.1337 18.75 42.7087V44.792C18.75 45.367 18.2833 45.8337 17.7083 45.8337Z" fill="url(#paint3_linear_400_8803)"/>
<path d="M5.20839 18.7496C4.78547 18.7496 4.38756 18.4913 4.23339 18.0725C4.03131 17.5329 4.30422 16.9329 4.84381 16.7329L37.9688 4.36418C39.5792 3.76002 41.4709 4.66418 42.0209 6.2871L45.7771 17.3725C45.9605 17.9183 45.6688 18.5079 45.1251 18.6933C44.5855 18.8788 43.9896 18.585 43.8042 18.0413L40.048 6.95585C39.8646 6.41418 39.2355 6.11835 38.6959 6.31418L5.57089 18.6829C5.45214 18.7288 5.32922 18.7496 5.20839 18.7496Z" fill="url(#paint4_linear_400_8803)"/>
<defs>
<linearGradient id="paint0_linear_400_8803" x1="12.5244" y1="13.0006" x2="22.054" y2="57.0669" gradientUnits="userSpaceOnUse">
<stop stop-color="#23ADA4"/>
<stop offset="1" stop-color="#23ADA4"/>
</linearGradient>
<linearGradient id="paint1_linear_400_8803" x1="17.1885" y1="16.1432" x2="20.3411" y2="20.3953" gradientUnits="userSpaceOnUse">
<stop stop-color="#23ADA4"/>
<stop offset="1" stop-color="#23ADA4"/>
</linearGradient>
<linearGradient id="paint2_linear_400_8803" x1="17.1885" y1="22.2273" x2="24.9042" y2="25.234" gradientUnits="userSpaceOnUse">
<stop stop-color="#23ADA4"/>
<stop offset="1" stop-color="#23ADA4"/>
</linearGradient>
<linearGradient id="paint3_linear_400_8803" x1="17.1885" y1="41.1432" x2="20.3411" y2="45.3953" gradientUnits="userSpaceOnUse">
<stop stop-color="#23ADA4"/>
<stop offset="1" stop-color="#23ADA4"/>
</linearGradient>
<linearGradient id="paint4_linear_400_8803" x1="14.6034" y1="2.34378" x2="17.5427" y2="25.0111" gradientUnits="userSpaceOnUse">
<stop stop-color="#23ADA4"/>
<stop offset="1" stop-color="#23ADA4"/>
</linearGradient>
</defs>
</svg>
